<svg id="Layer_1" xmlns="http://www.w3.org/2000/svg" viewBox="0 0 822 242"><style>.st0,.st1,.st2{fill:none;stroke:#2e343a;stroke-miterlimit:10}.st1,.st2{fill:#2e343a}.st2{fill:none;stroke-linejoin:bevel}</style><g id="file1"><path class="st0" d="M7.75 157.667H1V85.431l21.098-21.098H71V141"/><path class="st1" d="M46.542 111l-18.271-10.549v21.098z"/><path class="st0" d="M22.098 71.366v14.065H8.033"/><circle class="st0" cx="56" cy="157.667" r="15"/><path class="st0" d="M56 172.667h-3.75c-8.285 0-15-6.715-15-15s6.715-15 15-15H56"/><path class="st0" d="M52.25 172.667H48.5c-8.285 0-15-6.715-15-15s6.715-15 15-15h3.75"/><path class="st0" d="M48.5 172.667h-3.75c-8.285 0-15-6.715-15-15s6.715-15 15-15h3.75"/><path class="st0" d="M44.75 172.667H41c-8.285 0-15-6.715-15-15s6.715-15 15-15h3.75"/><path class="st0" d="M41 172.667h-3.75c-8.284 0-15-6.715-15-15s6.716-15 15-15H41"/><path class="st0" d="M37.25 172.667H33.5c-8.285 0-15-6.715-15-15s6.715-15 15-15h3.75"/><path class="st0" d="M33.5 172.667h-3.75c-8.285 0-15-6.715-15-15s6.715-15 15-15h3.75"/></g><g id="phones"><g id="phone_2_"><path class="st0" d="M154.938 22.818h109.091v196.364H154.938zM264.029 230.091V241H154.938v-10.909M154.938 11.909V1h109.091v10.909"/><circle class="st0" cx="209.484" cy="230.091" r="5.455"/><circle class="st0" cx="195.847" cy="11.909" r="2.727"/><path class="st0" d="M204.029 11.909h21.818"/></g><g id="phone_1_"><path class="st0" d="M433.424 22.818h109.091v196.364H433.424zM542.515 230.091V241H433.424v-10.909M433.424 11.909V1h109.091v10.909"/><circle class="st0" cx="487.969" cy="230.091" r="5.455"/><circle class="st0" cx="474.333" cy="11.909" r="2.727"/><path class="st0" d="M482.515 11.909h21.818"/></g><g id="phone"><path class="st0" d="M711.909 22.818H821v196.364H711.909zM821 230.091V241H711.909v-10.909M711.909 11.909V1H821v10.909"/><circle class="st0" cx="766.455" cy="230.091" r="5.455"/><circle class="st0" cx="752.818" cy="11.909" r="2.727"/><path class="st0" d="M761 11.909h21.818"/></g></g><g id="arrow1"><path class="st0" d="M81 121h63.938"/><path class="st2" d="M124.938 101l20 20-20 20"/></g><g id="file2"><path class="st0" d="M203.734 157.667h-29.25V85.431l21.097-21.098h48.903v76.334"/><path class="st1" d="M220.026 111l-18.271-10.549v21.098z"/><path class="st0" d="M195.581 71.366v14.065h-14.065"/><circle class="st0" cx="229.484" cy="157.667" r="15"/><path class="st0" d="M229.484 172.667h-3.75c-8.284 0-15-6.715-15-15s6.716-15 15-15h3.75"/></g><g id="arrow2"><path class="st0" d="M274.029 121h149.395"/><path class="st2" d="M403.424 101l20 20-20 20"/></g><g id="arrow2a"><circle class="st0" cx="348.539" cy="64.333" r="15"/><path class="st0" d="M348.539 79.333h-3.75c-8.284 0-15-6.715-15-15s6.716-15 15-15h3.75M334.07 53.843c-11.71-7.001-25.406-11.025-40.041-11.025h-20M372.167 120.956c0-16.731-5.259-32.235-14.214-44.947"/><path class="st2" d="M294.029 62.818l-20-20 20-20"/></g><g id="file3"><path class="st0" d="M482.219 157.667h-29.25V85.431l21.098-21.098h48.902v76.334"/><path class="st1" d="M498.511 111l-18.271-10.549v21.098z"/><path class="st0" d="M474.067 71.366v14.065h-14.065"/><circle class="st0" cx="507.969" cy="157.667" r="15"/><path class="st0" d="M507.969 172.667h-3.75c-8.285 0-15-6.715-15-15s6.715-15 15-15h3.75"/></g><g id="file3_1_"><path class="st0" d="M760.704 157.667h-29.25V85.431l21.098-21.098h48.902v76.334"/><path class="st1" d="M776.996 111l-18.271-10.549v21.098z"/><path class="st0" d="M752.552 71.366v14.065h-14.064"/><circle class="st0" cx="786.454" cy="157.667" r="15"/><path class="st0" d="M786.454 172.667h-3.75c-8.284 0-15-6.715-15-15s6.716-15 15-15h3.75"/></g><g id="arrow3"><path class="st0" d="M552.515 121h149.394"/><path class="st2" d="M681.909 101l20 20-20 20"/></g><g id="arrow3a"><circle class="st0" cx="627.025" cy="64.333" r="15"/><path class="st0" d="M627.025 79.333h-3.75c-8.284 0-15-6.715-15-15s6.716-15 15-15h3.75M612.556 53.843c-11.71-7.001-25.406-11.025-40.041-11.025h-20M650.653 120.956c0-16.731-5.259-32.235-14.214-44.947"/><path class="st2" d="M572.515 62.818l-20-20 20-20"/></g></svg>