<svg id="Layer_1" xmlns="http://www.w3.org/2000/svg" viewBox="0 0 822 242"><style>.st0{fill:none}.st0,.st1{stroke:#2e343a;stroke-miterlimit:10}.st1,.st2{fill:#2e343a}</style><g id="phones"><path class="st0" d="M1 22.818h109.091v196.364H1zM110.091 230.091V241H1v-10.909M1 11.909V1h109.091v10.909"/><circle class="st0" cx="55.545" cy="230.091" r="5.455"/><circle class="st0" cx="41.909" cy="11.909" r="2.727"/><path class="st0" d="M50.091 11.909h21.818"/><g><path class="st0" d="M463.424 22.818h109.091v196.364H463.424zM572.515 230.091V241H463.424v-10.909M463.424 11.909V1h109.091v10.909"/><circle class="st0" cx="517.969" cy="230.091" r="5.455"/><circle class="st0" cx="504.333" cy="11.909" r="2.727"/><path class="st0" d="M512.515 11.909h21.818"/></g><g><path class="st0" d="M90.545 64.333v93.334h-70V85.431l21.098-21.098z"/><path class="st1" d="M66.088 111l-18.272-10.549v21.098z"/><path class="st0" d="M41.643 71.366v14.065H27.578"/></g></g><g id="filearrow"><path class="st0" d="M321.757 64.333v93.334h-70V85.431l21.098-21.098z"/><path class="st1" d="M297.299 111l-18.271-10.549v21.098z"/><path class="st0" d="M272.855 71.366v14.065H258.79M120.091 111h131.666M321.757 111h131.667M433.424 91l20 20-20 20"/></g><g id="certificatearrow"><path class="st0" d="M306.757 199.182h146.667M266.757 199.182H120.091M140.091 219.182l-20-20 20-20"/><circle class="st0" cx="286.757" cy="199.182" r="20"/><path class="st2" d="M283.136 209.682l-9.414-9.414 4.345-4.344 5.069 5.069 12.312-12.311 4.345 4.344z"/></g></svg>