<svg id="Layer_1" xmlns="http://www.w3.org/2000/svg" viewBox="0 0 742 240"><style>.st0{fill:none;stroke:#2e343a;stroke-miterlimit:10}.st1{fill:#2e343a}</style><g id="Scale"><path class="st0" d="M3 87.395v140M39.8 87.395v140M739 87.395v140M371 87.395v140"/><g><path class="st1" d="M52.104 226.494c-.756-.702-1.135-1.584-1.135-2.665H52.5c0 .667.233 1.225.702 1.675.468.45 1.116.685 1.926.685.919 0 1.585-.252 2.018-.774.414-.522.63-1.206.63-2.089 0-.846-.216-1.513-.648-2.034-.45-.522-1.099-.774-1.98-.774-.99 0-1.782.414-2.377 1.242h-1.584l.485-6.968h7.059v1.386h-5.726l-.288 4.016h.072c.63-.685 1.494-1.026 2.593-1.026 1.242 0 2.196.378 2.898 1.135.702.773 1.044 1.765 1.044 2.971 0 1.314-.359 2.341-1.062 3.114-.721.774-1.765 1.171-3.134 1.171-1.259-.002-2.268-.363-3.024-1.065zM62.419 220.229c-.45-.595-.666-1.387-.666-2.377s.216-1.782.666-2.377c.432-.594 1.099-.899 1.98-.899s1.549.306 1.999.899c.432.595.647 1.387.647 2.377s-.216 1.782-.647 2.377c-.45.594-1.117.9-1.999.9s-1.548-.307-1.98-.9zm3.349-2.377c0-1.422-.45-2.124-1.368-2.124s-1.368.702-1.368 2.124c0 1.423.45 2.125 1.368 2.125s1.368-.702 1.368-2.125zm5.977-3.061h1.387v.18l-8.498 12.424h-1.423v-.18l8.534-12.424zm-1.764 11.865c-.45-.594-.667-1.387-.667-2.377s.217-1.782.667-2.376c.432-.595 1.098-.9 1.98-.9.882 0 1.548.306 1.998.9.433.594.648 1.386.648 2.376s-.216 1.783-.648 2.377c-.45.595-1.116.9-1.998.9-.882.001-1.548-.305-1.98-.9zm3.349-2.377c0-1.422-.45-2.124-1.368-2.124-.919 0-1.369.702-1.369 2.124 0 1.423.45 2.125 1.369 2.125.918 0 1.368-.702 1.368-2.125z"/></g><g><path class="st1" d="M383.305 226.494c-.756-.702-1.135-1.584-1.135-2.665h1.531c0 .667.233 1.225.702 1.675.468.45 1.116.685 1.926.685.919 0 1.585-.252 2.018-.774.414-.522.63-1.206.63-2.089 0-.846-.216-1.513-.648-2.034-.45-.522-1.099-.774-1.98-.774-.99 0-1.782.414-2.377 1.242h-1.584l.485-6.968h7.059v1.386h-5.726l-.288 4.016h.072c.63-.685 1.494-1.026 2.593-1.026 1.242 0 2.196.378 2.898 1.135.702.773 1.044 1.765 1.044 2.971 0 1.314-.359 2.341-1.062 3.114-.721.774-1.765 1.171-3.134 1.171-1.26-.002-2.268-.363-3.024-1.065zM392.953 221.057c0-4.321 1.458-6.481 4.393-6.481 2.936 0 4.394 2.16 4.394 6.481 0 4.339-1.458 6.5-4.394 6.5-2.935 0-4.393-2.161-4.393-6.5zm5.798 4.718c.378-.271.684-.648.882-1.135s.324-1.026.414-1.603.126-1.242.126-1.98c0-3.403-.937-5.113-2.827-5.113s-2.826 1.71-2.826 5.113c0 .738.036 1.404.126 1.98s.233 1.116.432 1.603.486.864.864 1.135c.378.27.847.414 1.404.414.558 0 1.026-.145 1.405-.414zM404.923 220.229c-.45-.595-.666-1.387-.666-2.377s.216-1.782.666-2.377c.432-.594 1.098-.899 1.98-.899.882 0 1.549.306 1.998.899.433.595.648 1.387.648 2.377s-.216 1.782-.648 2.377c-.449.594-1.116.9-1.998.9-.882 0-1.549-.307-1.98-.9zm3.348-2.377c0-1.422-.45-2.124-1.368-2.124s-1.368.702-1.368 2.124c0 1.423.45 2.125 1.368 2.125s1.368-.702 1.368-2.125zm5.978-3.061h1.387v.18l-8.498 12.424h-1.423v-.18l8.534-12.424zm-1.764 11.865c-.45-.594-.667-1.387-.667-2.377s.217-1.782.667-2.376c.432-.595 1.098-.9 1.98-.9.882 0 1.548.306 1.998.9.433.594.648 1.386.648 2.376s-.216 1.783-.648 2.377c-.45.595-1.116.9-1.998.9-.882.001-1.548-.305-1.98-.9zm3.349-2.377c0-1.422-.45-2.124-1.368-2.124-.919 0-1.369.702-1.369 2.124 0 1.423.45 2.125 1.369 2.125.918 0 1.368-.702 1.368-2.125z"/></g><g><path class="st1" d="M384.709 192.582l-2.898 2.16h-.181v-2.646l3.133-2.305h2.81v12.604h-2.791v-9.812h-.073zM392.322 189.07v4.808h.072c.594-.702 1.458-1.062 2.575-1.062 1.062 0 1.908.307 2.538.919.631.611.954 1.44.954 2.466v6.194h-2.772v-5.329c0-1.152-.522-1.729-1.584-1.729-.505 0-.919.161-1.261.504-.342.342-.522.774-.522 1.332v5.222h-2.772V189.07h2.772z"/></g></g><g id="Nodes"><circle class="st1" cx="3" cy="75.395" r="2"/><circle class="st1" cx="39.8" cy="75.395" r="2"/><circle class="st1" cx="76.6" cy="75.395" r="2"/><circle class="st1" cx="113.4" cy="75.395" r="2"/><circle class="st1" cx="150.2" cy="75.395" r="2"/><circle class="st1" cx="187" cy="75.395" r="2"/><circle class="st1" cx="223.8" cy="75.395" r="2"/><circle class="st1" cx="260.6" cy="75.395" r="2"/><circle class="st1" cx="297.4" cy="75.395" r="2"/><circle class="st1" cx="334.2" cy="75.395" r="2"/><circle class="st1" cx="371" cy="75.395" r="2"/><circle class="st1" cx="407.8" cy="75.395" r="2"/><circle class="st1" cx="444.6" cy="75.395" r="2"/><circle class="st1" cx="481.4" cy="75.395" r="2"/><circle class="st1" cx="518.2" cy="75.395" r="2"/><circle class="st1" cx="555" cy="75.395" r="2"/><circle class="st1" cx="591.8" cy="75.395" r="2"/><circle class="st1" cx="628.6" cy="75.395" r="2"/><circle class="st1" cx="665.4" cy="75.395" r="2"/><circle class="st1" cx="702.2" cy="75.395" r="2"/><circle class="st1" cx="739" cy="75.395" r="2"/></g><path class="st0" d="M39.8 63.395c0-10.162-8.238-18.4-18.4-18.4S3 53.233 3 63.395" id="Hops1"/><g id="Hops2"><path class="st0" d="M76.6 63.395c0-10.162-8.238-18.4-18.4-18.4s-18.4 8.238-18.4 18.4M113.4 63.395c0-10.162-8.238-18.4-18.4-18.4s-18.4 8.238-18.4 18.4"/><path class="st0" d="M150.2 63.395c0-10.162-8.238-18.4-18.4-18.4s-18.4 8.238-18.4 18.4M187 63.395c0-10.162-8.238-18.4-18.4-18.4-10.162 0-18.4 8.238-18.4 18.4M223.8 63.395c0-10.162-8.238-18.4-18.4-18.4-10.162 0-18.4 8.238-18.4 18.4M260.6 63.395c0-10.162-8.238-18.4-18.4-18.4-10.162 0-18.4 8.238-18.4 18.4M297.4 63.395c0-10.162-8.238-18.4-18.4-18.4s-18.4 8.238-18.4 18.4M334.2 63.395c0-10.162-8.238-18.4-18.4-18.4-10.162 0-18.4 8.238-18.4 18.4M371 63.395c0-10.162-8.238-18.4-18.4-18.4s-18.4 8.238-18.4 18.4M407.8 63.395c0-10.162-8.238-18.4-18.4-18.4s-18.4 8.238-18.4 18.4M444.6 63.395c0-10.162-8.238-18.4-18.4-18.4-10.162 0-18.4 8.238-18.4 18.4M481.4 63.395c0-10.162-8.238-18.4-18.4-18.4s-18.4 8.238-18.4 18.4M518.2 63.395c0-10.162-8.238-18.4-18.4-18.4-10.162 0-18.4 8.238-18.4 18.4M555 63.395c0-10.162-8.238-18.4-18.4-18.4-10.162 0-18.4 8.238-18.4 18.4M591.8 63.395c0-10.162-8.238-18.4-18.4-18.4-10.162 0-18.4 8.238-18.4 18.4M628.6 63.395c0-10.162-8.238-18.4-18.4-18.4s-18.4 8.238-18.4 18.4M665.4 63.395c0-10.162-8.238-18.4-18.4-18.4s-18.4 8.238-18.4 18.4M702.2 63.395c0-10.162-8.238-18.4-18.4-18.4s-18.4 8.238-18.4 18.4M739 63.395c0-10.162-8.238-18.4-18.4-18.4-10.162 0-18.4 8.238-18.4 18.4"/><path class="st0" d="M113.4 63.395c0-20.324-16.476-36.8-36.8-36.8s-36.8 16.476-36.8 36.8"/><path class="st0" d="M150.2 63.395c0-20.324-16.476-36.8-36.8-36.8s-36.8 16.476-36.8 36.8"/><path class="st0" d="M187 63.395c0-20.324-16.476-36.8-36.8-36.8s-36.8 16.476-36.8 36.8"/><path class="st0" d="M223.8 63.395c0-20.324-16.476-36.8-36.8-36.8s-36.8 16.476-36.8 36.8"/><path class="st0" d="M260.6 63.395c0-20.324-16.476-36.8-36.8-36.8S187 43.071 187 63.395"/><path class="st0" d="M297.4 63.395c0-20.324-16.476-36.8-36.8-36.8s-36.8 16.476-36.8 36.8"/><path class="st0" d="M334.2 63.395c0-20.324-16.476-36.8-36.8-36.8-20.324 0-36.8 16.476-36.8 36.8"/><path class="st0" d="M371 63.395c0-20.324-16.476-36.8-36.8-36.8-20.324 0-36.8 16.476-36.8 36.8"/><path class="st0" d="M407.8 63.395c0-20.324-16.476-36.8-36.8-36.8s-36.8 16.476-36.8 36.8"/><path class="st0" d="M444.6 63.395c0-20.324-16.476-36.8-36.8-36.8-20.324 0-36.8 16.476-36.8 36.8"/><path class="st0" d="M481.4 63.395c0-20.324-16.476-36.8-36.8-36.8-20.324 0-36.8 16.476-36.8 36.8"/><path class="st0" d="M518.2 63.395c0-20.324-16.476-36.8-36.8-36.8-20.324 0-36.8 16.476-36.8 36.8"/><path class="st0" d="M555 63.395c0-20.324-16.476-36.8-36.8-36.8s-36.8 16.476-36.8 36.8"/><path class="st0" d="M591.8 63.395c0-20.324-16.476-36.8-36.8-36.8s-36.8 16.476-36.8 36.8"/><path class="st0" d="M628.6 63.395c0-20.324-16.476-36.8-36.8-36.8S555 43.071 555 63.395"/><path class="st0" d="M665.4 63.395c0-20.324-16.476-36.8-36.8-36.8-20.324 0-36.8 16.476-36.8 36.8"/><path class="st0" d="M702.2 63.395c0-20.324-16.476-36.8-36.8-36.8-20.324 0-36.8 16.476-36.8 36.8"/><path class="st0" d="M739 63.395c0-20.324-16.476-36.8-36.8-36.8s-36.8 16.476-36.8 36.8M150.2 63.395c0-30.486-24.714-55.2-55.2-55.2s-55.2 24.714-55.2 55.2"/><path class="st0" d="M187 63.395c0-30.486-24.714-55.2-55.2-55.2s-55.2 24.714-55.2 55.2"/><path class="st0" d="M223.8 63.395c0-30.486-24.714-55.2-55.2-55.2s-55.2 24.714-55.2 55.2"/><path class="st0" d="M260.6 63.395c0-30.486-24.714-55.2-55.2-55.2s-55.2 24.714-55.2 55.2"/><path class="st0" d="M297.4 63.395c0-30.486-24.714-55.2-55.2-55.2S187 32.909 187 63.395"/><path class="st0" d="M334.2 63.395c0-30.486-24.714-55.2-55.2-55.2s-55.2 24.714-55.2 55.2"/><path class="st0" d="M371 63.395c0-30.486-24.714-55.2-55.2-55.2-30.486 0-55.2 24.714-55.2 55.2"/><path class="st0" d="M407.8 63.395c0-30.486-24.714-55.2-55.2-55.2s-55.2 24.714-55.2 55.2"/><path class="st0" d="M444.6 63.395c0-30.486-24.714-55.2-55.2-55.2s-55.2 24.714-55.2 55.2"/><path class="st0" d="M481.4 63.395c0-30.486-24.714-55.2-55.2-55.2-30.486 0-55.2 24.714-55.2 55.2"/><path class="st0" d="M518.2 63.395c0-30.486-24.714-55.2-55.2-55.2s-55.2 24.714-55.2 55.2"/><path class="st0" d="M555 63.395c0-30.486-24.714-55.2-55.2-55.2-30.486 0-55.2 24.714-55.2 55.2"/><path class="st0" d="M591.8 63.395c0-30.486-24.714-55.2-55.2-55.2-30.486 0-55.2 24.714-55.2 55.2"/><path class="st0" d="M628.6 63.395c0-30.486-24.714-55.2-55.2-55.2-30.486 0-55.2 24.714-55.2 55.2"/><path class="st0" d="M665.4 63.395c0-30.486-24.714-55.2-55.2-55.2-30.486 0-55.2 24.714-55.2 55.2"/><path class="st0" d="M702.2 63.395c0-30.486-24.714-55.2-55.2-55.2s-55.2 24.714-55.2 55.2"/><path class="st0" d="M739 63.395c0-30.486-24.714-55.2-55.2-55.2-30.486 0-55.2 24.714-55.2 55.2M150.2 63.395c0-30.486-24.714-55.2-55.2-55.2s-55.2 24.714-55.2 55.2"/></g></svg>