<svg id="Layer_1" xmlns="http://www.w3.org/2000/svg" viewBox="0 0 800 480"><style>.st0{fill:none;stroke:#2e343a;stroke-miterlimit:10}.st1{fill:#2e343a}</style><g id="_x30_4arrow1"><path class="st0" d="M0 60h800"/><path class="st1" d="M291.4 27.4V40h-2.8V27.4h2.8zM299.6 27.4c1.3 0 2.3.4 3 1.2.8.8 1.1 1.8 1.1 3s-.4 2.2-1.1 3c-.8.8-1.8 1.2-3 1.2h-2.9V40h-2.8V27.4h5.7zm-.5 5.9c1.2 0 1.8-.6 1.8-1.7 0-.5-.2-1-.5-1.2-.3-.3-.8-.4-1.4-.4h-2.3v3.4h2.4zM310.2 33.5V36h-5.5v-2.5h5.5zM318.6 27.4c1.3 0 2.3.4 3 1.2.8.8 1.1 1.8 1.1 3s-.4 2.2-1.1 3c-.8.8-1.8 1.2-3 1.2h-2.9V40h-2.8V27.4h5.7zm-.5 5.9c1.2 0 1.8-.6 1.8-1.7 0-.5-.2-1-.5-1.2-.3-.3-.8-.4-1.4-.4h-2.3v3.4h2.4zM335.2 40h-3.3l-2.7-4.4h-1.8V40h-2.8V27.4h5.8c1.3 0 2.3.4 3.1 1.2.8.8 1.2 1.7 1.2 2.8 0 .9-.2 1.7-.6 2.3-.5.7-1.1 1.2-1.8 1.5l3 4.6-.1.2zm-5-7c.5 0 .9-.2 1.2-.5s.4-.7.4-1.1c0-.4-.1-.8-.4-1.1-.3-.3-.6-.4-1.2-.4h-2.8V33h2.8zM337.5 38.3c-1.1-1.2-1.6-2.8-1.6-4.6s.5-3.5 1.6-4.7c1.1-1.2 2.6-1.8 4.5-1.8 2 0 3.5.6 4.5 1.8 1.1 1.2 1.6 2.8 1.6 4.7s-.5 3.4-1.6 4.6c-1.1 1.2-2.6 1.8-4.5 1.8-1.9.1-3.4-.6-4.5-1.8zm7-1.7c.6-.7.8-1.6.8-2.9s-.3-2.3-.8-2.9-1.4-1-2.4-1c-1.1 0-1.9.3-2.4 1s-.8 1.6-.8 2.9.3 2.2.8 2.9c.6.7 1.4 1 2.4 1s1.8-.3 2.4-1zM349 29.9v-2.5h10.1v2.5h-3.6V40h-2.8V29.9H349zM369.6 27.4v2.5h-6.2v2.3h5.6v2.5h-5.6v2.7h6.2V40h-9V27.4h9zM372.5 38.3c-1.1-1.2-1.6-2.8-1.6-4.6 0-1.9.5-3.5 1.6-4.7 1.1-1.2 2.6-1.8 4.5-1.8 1.6 0 2.9.5 3.9 1.4s1.6 2.1 1.7 3.5h-2.9c-.1-.7-.3-1.2-.8-1.7s-1.1-.7-1.9-.7c-1 0-1.8.3-2.4 1-.6.7-.8 1.6-.8 2.9 0 1.3.3 2.2.8 2.9.6.7 1.4 1 2.4 1 .8 0 1.4-.2 1.9-.6s.7-1 .8-1.6h2.9c-.1 1.4-.7 2.5-1.7 3.4-1 .9-2.3 1.4-3.9 1.4-2 .1-3.5-.6-4.5-1.8zM383.4 29.9v-2.5h10.1v2.5h-3.6V40H387V29.9h-3.6zM404 27.4v2.5h-6.2v2.3h5.6v2.5h-5.6v2.7h6.2V40h-9V27.4h9zM410.4 27.4c1.9 0 3.5.6 4.7 1.7 1.2 1.2 1.8 2.7 1.8 4.6 0 1.8-.6 3.3-1.8 4.5-1.2 1.2-2.8 1.8-4.7 1.8H406V27.4h4.4zm-.2 10.1c1.2 0 2.1-.3 2.8-.9.7-.6 1-1.6 1-2.9s-.3-2.2-1-2.8c-.7-.6-1.6-.9-2.8-.9h-1.5v7.6l1.5-.1zM424.3 39c-.9-.8-1.4-1.9-1.5-3.3h2.9c.1.7.3 1.2.7 1.5.4.3 1 .5 1.7.5 1.6 0 2.4-.4 2.4-1.3 0-.3-.1-.6-.3-.8-.2-.2-.6-.4-1.2-.5l-1.8-.4c-1.2-.3-2.2-.7-2.9-1.3-.7-.6-1-1.4-1-2.5s.5-1.9 1.3-2.6c.9-.7 2.1-1 3.6-1s2.6.4 3.6 1.2c.9.8 1.4 1.7 1.4 3h-2.9c0-.5-.2-.8-.6-1.1-.4-.3-.9-.5-1.6-.5-.7 0-1.2.1-1.5.3-.3.2-.5.5-.5.8 0 .3.1.5.3.7.2.2.6.3 1.1.5l1.7.4c1.3.3 2.3.7 3 1.3.7.6 1.1 1.5 1.1 2.6 0 1.2-.4 2.1-1.3 2.8-.8.7-2.2 1-4 1-1.5-.1-2.8-.5-3.7-1.3zM436 38.3c-1.1-1.2-1.6-2.8-1.6-4.6s.5-3.5 1.6-4.7 2.6-1.8 4.5-1.8 3.5.6 4.5 1.8 1.6 2.8 1.6 4.7-.5 3.4-1.6 4.6c-1.1 1.2-2.6 1.8-4.5 1.8s-3.5-.6-4.5-1.8zm6.9-1.7c.6-.7.8-1.6.8-2.9s-.3-2.3-.8-2.9-1.4-1-2.4-1c-1.1 0-1.9.3-2.4 1-.6.7-.8 1.6-.8 2.9s.3 2.2.8 2.9c.6.7 1.3 1 2.4 1 1 0 1.8-.3 2.4-1zM451.2 27.4v10.1h5.7V40h-8.6V27.4h2.9zM459.7 38.8c-1-.9-1.5-2.2-1.5-3.8v-7.6h2.8V35c0 1.8.8 2.7 2.5 2.7s2.5-.9 2.5-2.7v-7.6h2.8V35c0 1.7-.5 2.9-1.5 3.8-1 .9-2.3 1.3-3.9 1.3-1.4.1-2.7-.4-3.7-1.3zM470.3 29.9v-2.5h10.1v2.5h-3.6V40H474V29.9h-3.7zM484.8 27.4V40H482V27.4h2.8zM488.2 38.3c-1.1-1.2-1.6-2.8-1.6-4.6s.5-3.5 1.6-4.7 2.6-1.8 4.5-1.8 3.5.6 4.5 1.8 1.6 2.8 1.6 4.7-.5 3.4-1.6 4.6c-1.1 1.2-2.6 1.8-4.5 1.8s-3.5-.6-4.5-1.8zm6.9-1.7c.6-.7.8-1.6.8-2.9s-.3-2.3-.8-2.9-1.4-1-2.4-1c-1.1 0-1.9.3-2.4 1-.6.7-.8 1.6-.8 2.9s.3 2.2.8 2.9c.6.7 1.3 1 2.4 1 1 0 1.8-.3 2.4-1zM503.9 27.4l4.6 8.2h.1v-8.2h2.8V40h-3.3l-4.6-8.2h-.1V40h-2.8V27.4h3.3z"/><path class="st0" d="M25 85L0 60l25-25M775 35l25 25-25 25"/></g><g id="_x30_5arrow2"><path class="st0" d="M800 321.5H0"/><path class="st1" d="M274.8 288.9h3l1.7 8.7h.1l2-8.7h3.1l2.1 8.7h.1l1.7-8.7h3v.2l-2.9 12.4H285l-1.8-8.3h-.1l-1.8 8.3h-3.7l-2.9-12.4.1-.2zM295.8 288.9v12.6H293v-12.6h2.8zM307.3 288.9v2.5h-6.2v2.7h5.6v2.5h-5.6v4.9h-2.8v-12.6h9zM312.1 288.9v12.6h-2.8v-12.6h2.8zM324.1 288.9c1.9 0 3.5.6 4.7 1.7 1.2 1.2 1.8 2.7 1.8 4.6 0 1.8-.6 3.3-1.8 4.5-1.2 1.2-2.8 1.8-4.7 1.8h-4.4v-12.6h4.4zm-.2 10.1c1.2 0 2.1-.3 2.8-.9.7-.6 1-1.6 1-2.9s-.3-2.2-1-2.8c-.7-.6-1.6-.9-2.8-.9h-1.5v7.6l1.5-.1zM335.2 288.9v12.6h-2.8v-12.6h2.8zM348.4 301.5H345l-2.7-4.4h-1.8v4.4h-2.8v-12.6h5.8c1.3 0 2.3.4 3.1 1.2.8.8 1.2 1.7 1.2 2.8 0 .9-.2 1.7-.6 2.3-.5.7-1.1 1.2-1.8 1.5l3 4.6v.2zm-5-7c.5 0 .9-.2 1.2-.5.3-.3.4-.7.4-1.1 0-.4-.1-.8-.4-1.1-.3-.3-.6-.4-1.2-.4h-2.8v3.1h2.8zM358.8 288.9v2.5h-6.2v2.3h5.6v2.5h-5.6v2.7h6.2v2.5h-9v-12.6l9 .1zM361.7 299.8c-1.1-1.2-1.6-2.8-1.6-4.6 0-1.9.5-3.5 1.6-4.7s2.6-1.8 4.5-1.8c1.6 0 2.9.5 3.9 1.4 1 1 1.6 2.1 1.7 3.5h-2.9c-.1-.7-.3-1.2-.8-1.7-.5-.4-1.1-.7-1.9-.7-1 0-1.8.3-2.4 1-.6.7-.8 1.6-.8 2.9 0 1.3.3 2.2.8 2.9.6.7 1.4 1 2.4 1 .8 0 1.4-.2 1.9-.6s.7-1 .8-1.6h2.9c-.1 1.4-.7 2.5-1.7 3.4s-2.3 1.4-3.9 1.4c-2 .1-3.5-.6-4.5-1.8zM372.6 291.4v-2.5h10.1v2.5H379v10.1h-2.8v-10.1h-3.6zM390.1 299.8c-1.1-1.2-1.6-2.8-1.6-4.6s.5-3.5 1.6-4.7c1.1-1.2 2.6-1.8 4.5-1.8 2 0 3.5.6 4.5 1.8 1.1 1.2 1.6 2.8 1.6 4.7s-.5 3.4-1.6 4.6c-1.1 1.2-2.6 1.8-4.5 1.8-1.9.1-3.4-.6-4.5-1.8zm7-1.7c.6-.7.8-1.6.8-2.9s-.3-2.3-.8-2.9-1.4-1-2.4-1c-1.1 0-1.9.3-2.4 1-.6.7-.8 1.6-.8 2.9s.3 2.2.8 2.9c.6.7 1.4 1 2.4 1s1.8-.3 2.4-1zM413.2 301.5h-3.3l-2.7-4.4h-1.8v4.4h-2.8v-12.6h5.8c1.3 0 2.3.4 3.1 1.2.8.8 1.2 1.7 1.2 2.8 0 .9-.2 1.7-.6 2.3-.5.7-1.1 1.2-1.8 1.5l3 4.6-.1.2zm-5-7c.5 0 .9-.2 1.2-.5.3-.3.4-.7.4-1.1 0-.4-.1-.8-.4-1.1-.3-.3-.6-.4-1.2-.4h-2.8v3.1h2.8zM425.7 288.9c1.1 0 2.1.3 2.8.9.7.6 1 1.4 1 2.4 0 1.1-.4 2-1.2 2.6v.1c1.1.5 1.7 1.5 1.7 3 0 1.1-.4 2-1.1 2.7-.7.6-1.7 1-3 1h-6.3V289l6.1-.1zm-.4 4.9c.9 0 1.3-.4 1.3-1.2s-.5-1.2-1.3-1.2h-2.8v2.4h2.8zm.2 5.2c1.1 0 1.6-.5 1.6-1.4 0-.4-.1-.7-.4-1-.3-.3-.7-.4-1.2-.4h-3v2.8h3zM434.5 288.9V299h5.7v2.5h-8.6v-12.6h2.9zM443 300.3c-1-.9-1.5-2.2-1.5-3.8v-7.6h2.8v7.6c0 1.8.8 2.7 2.5 2.7s2.5-.9 2.5-2.7v-7.6h2.8v7.6c0 1.7-.5 2.9-1.5 3.8-1 .9-2.3 1.3-3.9 1.3-1.5.1-2.7-.4-3.7-1.3zM463.5 288.9v2.5h-6.2v2.3h5.6v2.5h-5.6v2.7h6.2v2.5h-9v-12.6l9 .1zM464.5 291.4v-2.5h10.1v2.5H471v10.1h-2.8v-10.1h-3.7zM477 299.8c-1.1-1.2-1.6-2.8-1.6-4.6s.5-3.5 1.6-4.7c1.1-1.2 2.6-1.8 4.5-1.8s3.5.6 4.5 1.8c1.1 1.2 1.6 2.8 1.6 4.7s-.5 3.4-1.6 4.6c-1.1 1.2-2.6 1.8-4.5 1.8s-3.4-.6-4.5-1.8zm6.9-1.7c.6-.7.8-1.6.8-2.9s-.3-2.3-.8-2.9-1.4-1-2.4-1c-1.1 0-1.9.3-2.4 1-.6.7-.8 1.6-.8 2.9s.3 2.2.8 2.9c.6.7 1.3 1 2.4 1 1.1 0 1.9-.3 2.4-1zM490.3 299.8c-1.1-1.2-1.6-2.8-1.6-4.6s.5-3.5 1.6-4.7c1.1-1.2 2.6-1.8 4.5-1.8s3.5.6 4.5 1.8c1.1 1.2 1.6 2.8 1.6 4.7s-.5 3.4-1.6 4.6c-1.1 1.2-2.6 1.8-4.5 1.8s-3.4-.6-4.5-1.8zm7-1.7c.6-.7.8-1.6.8-2.9s-.3-2.3-.8-2.9-1.4-1-2.4-1c-1.1 0-1.9.3-2.4 1-.6.7-.8 1.6-.8 2.9s.3 2.2.8 2.9c.6.7 1.3 1 2.4 1 1 0 1.8-.3 2.4-1zM501.8 291.4v-2.5h10.1v2.5h-3.6v10.1h-2.8v-10.1h-3.7zM524.1 301.5h-2.8v-5.2h-5.1v5.2h-2.8v-12.6h2.8v4.8h5.1v-4.8h2.8v12.6z"/><g><path class="st1" d="M221.4 352.2c-1-1.2-1.5-2.7-1.5-4.7s.5-3.6 1.5-4.7c1-1.2 2.3-1.7 4.1-1.7 1.5 0 2.7.4 3.5 1.2.9.8 1.4 1.9 1.5 3.2h-1.6c-.1-.9-.5-1.6-1-2.1-.6-.5-1.4-.8-2.4-.8-.7 0-1.3.1-1.8.4-.5.3-.9.6-1.2 1.1-.3.5-.5 1-.6 1.6-.1.6-.2 1.2-.2 1.9s.1 1.3.2 1.9c.1.6.3 1.1.6 1.6s.7.9 1.2 1.1c.5.3 1.1.4 1.8.4 2 0 3.1-.9 3.4-2.8h1.6c-.2 1.3-.7 2.4-1.5 3.1-.8.8-2 1.1-3.5 1.1-1.8 0-3.2-.6-4.1-1.8zM234.1 352.2c-.9-1.2-1.4-2.7-1.4-4.7s.5-3.5 1.4-4.7c.9-1.2 2.3-1.8 4.2-1.8s3.2.6 4.2 1.8c.9 1.2 1.4 2.8 1.4 4.7 0 1.9-.5 3.5-1.4 4.7-.9 1.2-2.3 1.8-4.2 1.8s-3.3-.6-4.2-1.8zm7.2-1.1c.6-1 .9-2.1.9-3.6s-.3-2.6-.9-3.6c-.6-1-1.6-1.4-3-1.4-.7 0-1.4.1-1.9.4-.5.3-1 .6-1.2 1.1-.3.5-.5 1-.6 1.6-.1.6-.2 1.2-.2 1.9 0 1.4.3 2.6 1 3.6.6 1 1.6 1.4 3 1.4 1.2 0 2.2-.4 2.9-1.4zM248.4 341.2l6.4 10h.1v-10h1.5v12.6h-1.7l-6.4-10h-.1v10h-1.5v-12.6h1.7zM261.8 341.2l6.4 10h.1v-10h1.5v12.6h-1.7l-6.4-10h-.1v10h-1.5v-12.6h1.7zM281.6 341.2v1.4H275v3.9h6v1.4h-6v4.4h6.5v1.4h-8.1v-12.6l8.2.1zM285.2 352.2c-1-1.2-1.5-2.7-1.5-4.7s.5-3.6 1.5-4.7c1-1.2 2.3-1.7 4.1-1.7 1.5 0 2.7.4 3.5 1.2.9.8 1.4 1.9 1.5 3.2h-1.6c-.1-.9-.5-1.6-1-2.1-.6-.5-1.4-.8-2.4-.8-.7 0-1.3.1-1.8.4-.5.3-.9.6-1.2 1.1-.3.5-.5 1-.6 1.6-.1.6-.2 1.2-.2 1.9s.1 1.3.2 1.9c.1.6.3 1.1.6 1.6s.7.9 1.2 1.1c.5.3 1.1.4 1.8.4 2 0 3.1-.9 3.4-2.8h1.6c-.2 1.3-.7 2.4-1.5 3.1-.8.8-2 1.1-3.5 1.1-1.8 0-3.2-.6-4.1-1.8zM295.8 342.7v-1.4h9.4v1.4h-3.9v11.2h-1.6v-11.2h-3.9zM309.2 341.2v12.6h-1.6v-12.6h1.6zM313.4 352.2c-.9-1.2-1.4-2.7-1.4-4.7s.5-3.5 1.4-4.7c.9-1.2 2.3-1.8 4.2-1.8s3.2.6 4.2 1.8c.9 1.2 1.4 2.8 1.4 4.7 0 1.9-.5 3.5-1.4 4.7-.9 1.2-2.3 1.8-4.2 1.8s-3.2-.6-4.2-1.8zm7.3-1.1c.6-1 .9-2.1.9-3.6s-.3-2.6-.9-3.6c-.6-1-1.6-1.4-3-1.4-.7 0-1.4.1-1.9.4-.5.3-1 .6-1.2 1.1-.3.5-.5 1-.6 1.6-.1.6-.2 1.2-.2 1.9 0 1.4.3 2.6 1 3.6.6 1 1.6 1.4 3 1.4 1.2 0 2.2-.4 2.9-1.4zM327.8 341.2l6.4 10h.1v-10h1.5v12.6h-1.7l-6.4-10h-.1v10h-1.5v-12.6h1.7zM343.7 342.7v-1.4h9.4v1.4h-3.9v11.2h-1.6v-11.2h-3.9zM357.1 341.2v12.6h-1.6v-12.6h1.6zM362.6 341.2l4.2 7.7h.1l4.2-7.7h1.8v12.6h-1.5v-10.1h-.1l-4.5 7.9h-.2l-4.5-8h-.1v10.2h-1.5v-12.6h2.1zM384.6 341.2v1.4h-6.5v3.9h6v1.4h-6v4.4h6.5v1.4h-8.1v-12.6l8.1.1zM388.8 345.4v2h-1.9v-2h1.9zm0 6.5v2h-1.9v-2h1.9zM244.7 367.7v-1.4h9.4v1.4h-3.9v11.2h-1.6v-11.2h-3.9zM266.2 378.8h-1.7l-3.3-5h-3.1v5h-1.6v-12.6h5c1.2 0 2.2.4 2.9 1.1.7.7 1.1 1.6 1.1 2.7 0 .9-.2 1.7-.7 2.3-.5.6-1.2 1.1-2 1.3l3.4 5v.2zm-4.8-6.4c.8 0 1.4-.2 1.8-.6s.6-1 .6-1.7-.2-1.3-.6-1.7c-.4-.4-1-.6-1.8-.6h-3.3v4.7l3.3-.1zM278.5 378.8h-1.7l-1.2-3.3h-5.5l-1.2 3.3h-1.6v-.2l4.6-12.4h1.9l4.6 12.4.1.2zM273 368l-2.3 6.2h4.5L273 368zM282.6 366.2l6.4 10h.1v-10h1.5v12.6h-1.7l-6.4-10h-.1v10h-1.5v-12.6h1.7zM294.7 377.9c-.8-.7-1.3-1.7-1.3-2.9h1.6c.1.8.3 1.4.9 1.9.5.5 1.3.7 2.3.7 2.1 0 3.1-.7 3.1-2.2 0-.6-.2-1-.6-1.4-.4-.3-.9-.5-1.7-.7l-1.8-.4c-1.1-.2-1.9-.6-2.5-1.2-.6-.5-.8-1.3-.8-2.2 0-1.1.4-1.9 1.2-2.5.8-.6 1.8-.9 3.2-.9 1.3 0 2.4.3 3.2 1 .8.7 1.2 1.6 1.2 2.7H301c0-.7-.3-1.3-.8-1.7s-1.2-.6-2.1-.6c-1.8 0-2.7.7-2.7 2 0 .9.7 1.6 2.1 1.9l1.7.4c2.4.5 3.6 1.7 3.6 3.6 0 1.1-.4 2-1.3 2.6-.8.6-2 1-3.5 1-1.4 0-2.5-.4-3.3-1.1zM313.5 366.2v1.4h-6.3v4.2h5.7v1.4h-5.7v5.5h-1.6v-12.6l7.9.1zM324.5 366.2v1.4H318v3.9h6v1.4h-6v4.4h6.5v1.4h-8.1v-12.6l8.1.1zM337 378.8h-1.7l-3.3-5h-3v5h-1.6v-12.6h5c1.2 0 2.2.4 2.9 1.1.7.7 1.1 1.6 1.1 2.7 0 .9-.2 1.7-.7 2.3-.5.6-1.2 1.1-2 1.3l3.4 5-.1.2zm-4.7-6.4c.8 0 1.4-.2 1.8-.6s.6-1 .6-1.7-.2-1.3-.6-1.7c-.4-.4-1-.6-1.8-.6H329v4.7l3.3-.1zM343.7 367.7v-1.4h9.4v1.4h-3.9v11.2h-1.6v-11.2h-3.9zM357.1 366.2v12.6h-1.6v-12.6h1.6zM362.6 366.2l4.2 7.7h.1l4.2-7.7h1.8v12.6h-1.5v-10.1h-.1l-4.5 7.9h-.2l-4.5-8h-.1v10.2h-1.5v-12.6h2.1zM384.6 366.2v1.4h-6.5v3.9h6v1.4h-6v4.4h6.5v1.4h-8.1v-12.6l8.1.1zM388.8 370.4v2h-1.9v-2h1.9zm0 6.5v2h-1.9v-2h1.9z"/></g><g><path class="st1" d="M413.7 344l-2.9 2.2h-.2v-2.6l3.1-2.3h2.8v12.6h-2.8V344zM432.8 347.3v2.5h-9v-2.5h9zM442.6 344l-2.9 2.2h-.2v-2.6l3.1-2.3h2.8v12.6h-2.8V344zM448.5 352.2c-.8-1.2-1.2-2.8-1.2-4.7 0-2 .4-3.5 1.2-4.7.8-1.2 2.1-1.8 3.7-1.8 1.7 0 2.9.6 3.7 1.8.8 1.2 1.2 2.8 1.2 4.7 0 2-.4 3.6-1.2 4.7-.8 1.2-2.1 1.8-3.7 1.8s-2.9-.6-3.7-1.8zm5.4-1.6c.3-.6.5-1.7.5-3.1 0-1.4-.2-2.4-.5-3.1s-.9-1-1.6-1c-.8 0-1.3.3-1.6 1s-.5 1.7-.5 3.1c0 1.4.2 2.4.5 3.1.3.6.8 1 1.6 1s1.2-.4 1.6-1zM464.8 352.8c-.9-.8-1.4-1.9-1.5-3.3h2.9c.1.7.3 1.2.7 1.5.4.3 1 .5 1.7.5 1.6 0 2.4-.4 2.4-1.3 0-.3-.1-.6-.3-.8-.2-.2-.6-.4-1.2-.5l-1.8-.4c-1.2-.3-2.2-.7-2.9-1.3-.7-.6-1-1.4-1-2.5s.5-1.9 1.4-2.6c.9-.7 2.1-1 3.6-1s2.6.4 3.6 1.2c.9.8 1.4 1.7 1.4 3h-2.9c0-.5-.2-.8-.6-1.1-.4-.3-.9-.5-1.6-.5-.7 0-1.2.1-1.5.3-.3.2-.5.5-.5.8 0 .3.1.5.3.7.2.2.6.3 1.1.5l1.7.4c1.3.3 2.3.7 3 1.3.7.6 1.1 1.5 1.1 2.6 0 1.2-.4 2.1-1.3 2.8-.8.7-2.2 1-4 1-1.6-.1-2.9-.5-3.8-1.3zM484.6 341.2v2.5h-6.2v2.3h5.6v2.5h-5.6v2.7h6.2v2.5h-9v-12.6l9 .1zM487.4 352.2c-1.1-1.2-1.6-2.8-1.6-4.6 0-1.9.5-3.5 1.6-4.7 1.1-1.2 2.6-1.8 4.5-1.8 1.6 0 2.9.5 3.9 1.4 1 1 1.6 2.1 1.7 3.5h-2.9c-.1-.7-.3-1.2-.8-1.7s-1.1-.7-1.9-.7c-1 0-1.8.3-2.4 1-.6.7-.8 1.6-.8 2.9 0 1.3.3 2.2.8 2.9.6.7 1.4 1 2.4 1 .8 0 1.4-.2 1.9-.6s.7-1 .8-1.6h2.9c-.1 1.4-.7 2.5-1.7 3.4-1 .9-2.3 1.4-3.9 1.4-1.9 0-3.4-.6-4.5-1.8zM500.2 352.2c-1.1-1.2-1.6-2.8-1.6-4.6s.5-3.5 1.6-4.7c1.1-1.2 2.6-1.8 4.5-1.8s3.5.6 4.5 1.8c1.1 1.2 1.6 2.8 1.6 4.7s-.5 3.4-1.6 4.6-2.6 1.8-4.5 1.8-3.5-.6-4.5-1.8zm6.9-1.8c.6-.7.8-1.6.8-2.9s-.3-2.3-.8-2.9-1.4-1-2.4-1c-1.1 0-1.9.3-2.4 1-.6.7-.8 1.6-.8 2.9s.3 2.2.8 2.9c.6.7 1.3 1 2.4 1 1 0 1.9-.3 2.4-1zM515.9 341.2l4.6 8.2h.1v-8.2h2.8v12.6h-3.3l-4.6-8.2h-.1v8.2h-2.8v-12.6h3.3zM530.3 341.2c1.9 0 3.5.6 4.7 1.7 1.2 1.2 1.8 2.7 1.8 4.6 0 1.8-.6 3.3-1.8 4.5s-2.8 1.8-4.7 1.8H526v-12.6h4.3zm-.1 10.1c1.2 0 2.1-.3 2.8-.9.7-.6 1-1.6 1-2.9s-.3-2.2-1-2.8-1.6-.9-2.8-.9h-1.5v7.6l1.5-.1zM539.3 352.8c-.9-.8-1.4-1.9-1.5-3.3h2.9c.1.7.3 1.2.7 1.5.4.3 1 .5 1.7.5 1.6 0 2.4-.4 2.4-1.3 0-.3-.1-.6-.3-.8-.2-.2-.6-.4-1.2-.5l-1.8-.4c-1.2-.3-2.2-.7-2.9-1.3-.7-.6-1-1.4-1-2.5s.5-1.9 1.4-2.6c.9-.7 2.1-1 3.6-1s2.6.4 3.6 1.2c.9.8 1.4 1.7 1.4 3h-2.9c0-.5-.2-.8-.6-1.1-.4-.3-.9-.5-1.6-.5-.7 0-1.2.1-1.5.3-.3.2-.5.5-.5.8 0 .3.1.5.3.7.2.2.6.3 1.1.5l1.7.4c1.3.3 2.3.7 3 1.3.7.6 1.1 1.5 1.1 2.6 0 1.2-.4 2.1-1.3 2.8-.8.7-2.2 1-4 1-1.7-.1-2.9-.5-3.8-1.3zM414.1 366.2v10.1h5.7v2.5h-8.6v-12.6h2.9zM430.3 366.2v2.5h-6.2v2.3h5.6v2.5h-5.6v2.7h6.2v2.5h-9v-12.6l9 .1zM432.8 377.8c-.9-.8-1.4-1.9-1.5-3.3h2.9c.1.7.3 1.2.7 1.5.4.3 1 .5 1.7.5 1.6 0 2.4-.4 2.4-1.3 0-.3-.1-.6-.3-.8-.2-.2-.6-.4-1.2-.5l-1.8-.4c-1.2-.3-2.2-.7-2.9-1.3-.7-.6-1-1.4-1-2.5s.5-1.9 1.3-2.6c.9-.7 2.1-1 3.6-1s2.6.4 3.6 1.2c.9.8 1.4 1.7 1.4 3h-2.9c0-.5-.2-.8-.6-1.1-.4-.3-.9-.5-1.6-.5-.7 0-1.2.1-1.5.3-.3.2-.5.5-.5.8 0 .3.1.5.3.7.2.2.6.3 1.1.5l1.7.4c1.3.3 2.3.7 3 1.3.7.6 1.1 1.5 1.1 2.6 0 1.2-.4 2.1-1.3 2.8-.8.7-2.2 1-4 1-1.5-.1-2.8-.5-3.7-1.3zM444.2 377.8c-.9-.8-1.4-1.9-1.5-3.3h2.9c.1.7.3 1.2.7 1.5.4.3 1 .5 1.7.5 1.6 0 2.4-.4 2.4-1.3 0-.3-.1-.6-.3-.8-.2-.2-.6-.4-1.2-.5l-1.8-.4c-1.2-.3-2.2-.7-2.9-1.3-.7-.6-1-1.4-1-2.5s.5-1.9 1.4-2.6c.9-.7 2.1-1 3.6-1s2.6.4 3.6 1.2c.9.8 1.4 1.7 1.4 3h-2.9c0-.5-.2-.8-.6-1.1-.4-.3-.9-.5-1.6-.5-.7 0-1.2.1-1.5.3-.3.2-.5.5-.5.8 0 .3.1.5.3.7.2.2.6.3 1.1.5l1.7.4c1.3.3 2.3.7 3 1.3.7.6 1.1 1.5 1.1 2.6 0 1.2-.4 2.1-1.3 2.8-.8.7-2.2 1-4 1-1.6-.1-2.9-.5-3.8-1.3zM459 368.8v-2.5h10.1v2.5h-3.6v10.1h-2.8v-10.1H459zM481.4 378.8h-2.8v-5.2h-5.1v5.2h-2.8v-12.6h2.8v4.8h5.1v-4.8h2.8v12.6zM495.1 378.8H492l-.7-2.4h-4.7l-.7 2.4h-3v-.2l4.3-12.4h3.6l4.3 12.4v.2zm-6.2-9.7l-1.6 4.9h3.1l-1.5-4.9zM499.9 366.2l4.6 8.2h.1v-8.2h2.8v12.6h-3.3l-4.6-8.2h-.1v8.2h-2.8v-12.6h3.3zM517.4 369l-2.9 2.2h-.2v-2.6l3.1-2.3h2.8v12.6h-2.8V369zM528.2 377.8c-.9-.8-1.4-1.9-1.5-3.3h2.9c.1.7.3 1.2.7 1.5.4.3 1 .5 1.7.5 1.6 0 2.4-.4 2.4-1.3 0-.3-.1-.6-.3-.8-.2-.2-.6-.4-1.2-.5l-1.8-.4c-1.2-.3-2.2-.7-2.9-1.3-.7-.6-1-1.4-1-2.5s.5-1.9 1.4-2.6c.9-.7 2.1-1 3.6-1s2.6.4 3.6 1.2c.9.8 1.4 1.7 1.4 3h-2.9c0-.5-.2-.8-.6-1.1-.4-.3-.9-.5-1.6-.5-.7 0-1.2.1-1.5.3-.3.2-.5.5-.5.8 0 .3.1.5.3.7s.6.3 1.1.5l1.7.4c1.3.3 2.3.7 3 1.3.7.6 1.1 1.5 1.1 2.6 0 1.2-.4 2.1-1.3 2.8-.8.7-2.2 1-4 1-1.6-.1-2.9-.5-3.8-1.3zM548 366.2v2.5h-6.2v2.3h5.6v2.5h-5.6v2.7h6.2v2.5h-9v-12.6l9 .1zM550.9 377.2c-1.1-1.2-1.6-2.8-1.6-4.6 0-1.9.5-3.5 1.6-4.7 1.1-1.2 2.6-1.8 4.5-1.8 1.6 0 2.9.5 3.9 1.4 1 1 1.6 2.1 1.7 3.5h-2.9c-.1-.7-.3-1.2-.8-1.7s-1.1-.7-1.9-.7c-1 0-1.8.3-2.4 1-.6.7-.8 1.6-.8 2.9 0 1.3.3 2.2.8 2.9.6.7 1.4 1 2.4 1 .8 0 1.4-.2 1.9-.6s.7-1 .8-1.6h2.9c-.1 1.4-.7 2.5-1.7 3.4-1 .9-2.3 1.4-3.9 1.4-2 0-3.5-.6-4.5-1.8zM563.6 377.2c-1.1-1.2-1.6-2.8-1.6-4.6s.5-3.5 1.6-4.7c1.1-1.2 2.6-1.8 4.5-1.8s3.5.6 4.5 1.8c1.1 1.2 1.6 2.8 1.6 4.7s-.5 3.4-1.6 4.6-2.6 1.8-4.5 1.8-3.4-.6-4.5-1.8zm7-1.8c.6-.7.8-1.6.8-2.9s-.3-2.3-.8-2.9-1.4-1-2.4-1c-1.1 0-1.9.3-2.4 1-.6.7-.8 1.6-.8 2.9s.3 2.2.8 2.9c.6.7 1.3 1 2.4 1 1 0 1.8-.3 2.4-1zM579.4 366.2l4.6 8.2h.1v-8.2h2.8v12.6h-3.3l-4.6-8.2h-.1v8.2h-2.8v-12.6h3.3zM593.8 366.2c1.9 0 3.5.6 4.7 1.7 1.2 1.2 1.8 2.7 1.8 4.6 0 1.8-.6 3.3-1.8 4.5s-2.8 1.8-4.7 1.8h-4.4v-12.6h4.4zm-.1 10.1c1.2 0 2.1-.3 2.8-.9.7-.6 1-1.6 1-2.9s-.3-2.2-1-2.8-1.6-.9-2.8-.9h-1.5v7.6l1.5-.1z"/></g><path class="st0" d="M775 296.5l25 25-25 25"/></g></svg>