<?xml version="1.0" encoding="utf-8"?>
<!-- Generator: Adobe Illustrator 22.1.0, SVG Export Plug-In . SVG Version: 6.00 Build 0)  -->
<svg version="1.1" id="Layer_1" xmlns="http://www.w3.org/2000/svg" xmlns:xlink="http://www.w3.org/1999/xlink" x="0px" y="0px"
	 viewBox="0 0 420.5 464" style="enable-background:new 0 0 420.5 464;" xml:space="preserve">
<style type="text/css">
	.st0{fill:none;stroke:#2E343A;stroke-miterlimit:10;}
	.st1{fill:#2E343A;stroke:#2E343A;stroke-linejoin:round;stroke-miterlimit:10;}
	.st2{fill:#2E343A;stroke:#2E343A;stroke-linejoin:bevel;stroke-miterlimit:10;}
	.st3{fill:#2E343A;stroke:#2E343A;stroke-miterlimit:10;}
	.st4{fill:#2E343A;}
</style>
<g id="_x30_1guys">
	<g>
		<g>
			<polyline class="st0" points="165.5,331.3 165.5,204.9 131.8,204.9 131.8,185.2 116.1,185.2 116.1,204.9 74.5,204.9 74.5,283.9 
				84.5,283.9 84.5,463.5 92.4,463.5 115,313.5 			"/>
			<polyline class="st0" points="125,313.5 147.6,463.5 155.5,463.5 155.5,331.3 			"/>
			<rect x="116.1" y="163.5" class="st0" width="19.7" height="21.7"/>
			<polyline class="st0" points="108.2,266.1 108.2,246.4 123.9,246.4 123.9,266.1 			"/>
			<polygon class="st1" points="131.8,193.1 116.1,185.2 131.8,185.2 			"/>
			<polygon class="st2" points="84.5,291.8 84.5,283.9 123.9,283.9 			"/>
			<line class="st0" x1="155.5" y1="331.3" x2="155.5" y2="266.1"/>
			<polyline class="st0" points="84.5,283.9 123.9,283.9 123.9,266.1 84.5,266.1 			"/>
			<circle class="st3" cx="116.1" cy="252.3" r="1"/>
			<line class="st0" x1="240" y1="463.5" x2="0" y2="463.5"/>
		</g>
		<g>
			<path class="st4" d="M80.5,74.7c0-0.7-0.2-1.3-0.6-1.7c-0.4-0.4-1-0.6-1.8-0.6h-3.3v4.7H78c0.8,0,1.4-0.2,1.8-0.6
				C80.3,76,80.5,75.5,80.5,74.7z"/>
			<polygon class="st4" points="121.7,72.6 119.5,78.8 124,78.8 121.8,72.6 			"/>
			<path class="st4" d="M77.3,47.3h-2.4v9.7h2.4c1.4,0,2.4-0.5,3.1-1.4c0.7-0.9,1-2.1,1-3.5c0-1.4-0.3-2.6-1-3.5
				S78.7,47.3,77.3,47.3z"/>
			<path class="st4" d="M26.7,72.2c-0.7,0-1.4,0.1-1.9,0.4c-0.5,0.3-1,0.6-1.2,1.1s-0.5,1-0.6,1.6c-0.1,0.6-0.2,1.2-0.2,1.9
				c0,1.4,0.3,2.6,1,3.6c0.6,1,1.6,1.4,3,1.4s2.4-0.5,3-1.4c0.6-1,0.9-2.1,0.9-3.6c0-1.4-0.3-2.6-0.9-3.6
				C29.1,72.7,28,72.2,26.7,72.2z"/>
			<path class="st4" d="M68,55.8c0.6-1,0.9-2.1,0.9-3.6s-0.3-2.6-0.9-3.6c-0.6-1-1.6-1.4-3-1.4c-0.7,0-1.4,0.1-1.9,0.4
				c-0.5,0.3-1,0.6-1.2,1.1s-0.5,1-0.6,1.6c-0.1,0.6-0.2,1.2-0.2,1.9c0,1.4,0.3,2.6,1,3.6c0.6,1,1.6,1.4,3,1.4S67.3,56.7,68,55.8z"
				/>
			<polygon class="st4" points="49.8,23.7 48.3,28.6 51.4,28.6 49.9,23.7 			"/>
			<path class="st4" d="M39.6,49.9c0-0.8-0.2-1.4-0.7-1.9s-1.2-0.7-2-0.7H34v5.2h2.9c0.9,0,1.5-0.2,2-0.7
				C39.4,51.4,39.6,50.7,39.6,49.9z"/>
			<path class="st4" d="M0,0.5v103h240V0.5H0z M101.4,48.3l3.1-2.4h1.5v12.6h-1.5V47.6h-0.1l-2.9,2.3h-0.2L101.4,48.3L101.4,48.3z
				 M85.8,45.9h8.1v1.4h-6.5v3.9h6v1.4h-6v4.4h6.5v1.4h-8.1V45.9z M68.9,20.9h9v2.5h-6.2v2.3h5.6v2.5h-5.6V31h6.2v2.5h-9
				C68.9,33.5,68.9,20.9,68.9,20.9z M55.3,20.9h3.2l2.9,9.2h0.1l2.9-9.2h3.3v0.2l-4.4,12.4h-3.4l-4.5-12.4
				C55.3,21.1,55.3,20.9,55.3,20.9z M31.8,20.9h2.8v4.8h5.1v-4.8h2.8v12.6h-2.8v-5.2h-5.1v5.2h-2.8L31.8,20.9L31.8,20.9z M21.8,20.9
				h1.6v12.6h-1.6V20.9z M21.8,45.9h8.1v1.4h-6.5v3.9h6v1.4h-6v4.4h6.5v1.4h-8.1C21.8,58.5,21.8,45.9,21.8,45.9z M30.8,81.9
				c-0.9,1.2-2.3,1.8-4.2,1.8s-3.2-0.6-4.2-1.8c-0.9-1.2-1.4-2.7-1.4-4.7s0.5-3.5,1.4-4.7c0.9-1.2,2.3-1.8,4.2-1.8s3.2,0.6,4.2,1.8
				c0.9,1.2,1.4,2.8,1.4,4.7C32.2,79.1,31.8,80.7,30.8,81.9z M34,58.5h-1.6V45.9h4.6c1.3,0,2.3,0.4,3,1.1c0.7,0.7,1.1,1.7,1.1,2.9
				c0,1.2-0.4,2.2-1.1,2.9c-0.8,0.7-1.8,1.1-3,1.1H34V58.5z M42.9,72.3h-6.3v4.2h5.7V78h-5.7v5.5H35V70.9h7.9
				C42.9,70.9,42.9,72.3,42.9,72.3z M45.3,58.5h-1.6V45.9h1.6V58.5z M46.8,33.5h-3v-0.2l4.3-12.4h3.6l4.3,12.4v0.2h-3.1l-0.7-2.4
				h-4.7L46.8,33.5z M47.9,54.7h1.6c0.1,0.8,0.3,1.4,0.9,1.9c0.5,0.4,1.3,0.7,2.3,0.7c2.1,0,3.1-0.7,3.1-2.2c0-0.6-0.2-1-0.6-1.4
				c-0.4-0.3-0.9-0.5-1.7-0.7l-1.8-0.4c-1.1-0.2-1.9-0.6-2.5-1.2c-0.6-0.5-0.8-1.3-0.8-2.2c0-1.1,0.4-1.9,1.2-2.5
				c0.8-0.6,1.8-0.9,3.2-0.9c1.4,0,2.4,0.3,3.2,1c0.8,0.7,1.2,1.6,1.2,2.7h-1.6c0-0.7-0.3-1.3-0.8-1.7c-0.5-0.4-1.2-0.6-2.1-0.6
				c-1.8,0-2.7,0.7-2.7,2c0,0.9,0.7,1.6,2.1,1.9l1.7,0.4c2.4,0.5,3.6,1.7,3.6,3.6c0,1.1-0.4,2-1.3,2.6c-0.8,0.6-2,1-3.5,1
				c-1.5,0-2.7-0.4-3.5-1.1C48.4,56.9,47.9,55.9,47.9,54.7z M58.5,82.7c-0.8,0.6-2,1-3.5,1c-1.5,0-2.7-0.4-3.5-1.1
				c-0.8-0.7-1.3-1.7-1.3-2.9h1.6c0.1,0.8,0.3,1.4,0.9,1.9c0.5,0.4,1.3,0.7,2.3,0.7c2.1,0,3.1-0.7,3.1-2.2c0-0.6-0.2-1-0.6-1.4
				c-0.4-0.3-0.9-0.5-1.7-0.7l-1.8-0.4c-1.1-0.2-1.9-0.6-2.5-1.2c-0.6-0.5-0.8-1.3-0.8-2.2c0-1.1,0.4-1.9,1.2-2.5
				c0.8-0.6,1.8-0.9,3.2-0.9c1.4,0,2.4,0.3,3.2,1c0.8,0.7,1.2,1.6,1.2,2.7H58c0-0.7-0.3-1.3-0.8-1.7c-0.5-0.4-1.2-0.6-2.1-0.6
				c-1.8,0-2.7,0.7-2.7,2c0,0.9,0.7,1.6,2.1,1.9l1.7,0.4c2.4,0.5,3.6,1.7,3.6,3.6C59.8,81.2,59.4,82.1,58.5,82.7z M60.8,56.9
				c-0.9-1.2-1.4-2.7-1.4-4.7c0-1.9,0.5-3.5,1.4-4.7c0.9-1.2,2.3-1.8,4.2-1.8s3.2,0.6,4.2,1.8c0.9,1.2,1.4,2.8,1.4,4.7
				c0,1.9-0.5,3.5-1.4,4.7c-0.9,1.2-2.3,1.8-4.2,1.8S61.7,58.1,60.8,56.9z M70.6,72.3h-6.5v3.9h6v1.4h-6v4.4h6.5v1.4h-8.1V70.9h8.1
				V72.3z M82.8,83.5h-1.7l-3.3-5h-3.1v5h-1.6V70.9h5c1.2,0,2.2,0.4,2.9,1.1c0.7,0.7,1.1,1.6,1.1,2.7c0,0.9-0.2,1.7-0.7,2.3
				s-1.2,1.1-2,1.3l3.4,5C82.8,83.3,82.8,83.5,82.8,83.5z M81.7,56.7c-1,1.2-2.4,1.8-4.2,1.8h-4.2V45.9h4.2c1.8,0,3.2,0.6,4.1,1.7
				s1.5,2.7,1.5,4.6C83.1,54.1,82.6,55.6,81.7,56.7z M86.6,83.5H85V70.9h1.6V83.5z M98.1,72.3h-6.5v3.9h6v1.4h-6v4.4h6.5v1.4H90
				V70.9h8.1V72.3z M108,82.7c-0.8,0.6-2,1-3.5,1c-1.5,0-2.7-0.4-3.5-1.1c-0.8-0.7-1.3-1.7-1.3-2.9h1.6c0.1,0.8,0.3,1.4,0.9,1.9
				c0.5,0.4,1.3,0.7,2.3,0.7c2.1,0,3.1-0.7,3.1-2.2c0-0.6-0.2-1-0.6-1.4c-0.4-0.3-0.9-0.5-1.7-0.7l-1.8-0.4
				c-1.1-0.2-1.9-0.6-2.5-1.2c-0.6-0.5-0.8-1.3-0.8-2.2c0-1.1,0.4-1.9,1.2-2.5c0.8-0.6,1.8-0.9,3.2-0.9c1.4,0,2.4,0.3,3.2,1
				c0.8,0.7,1.2,1.6,1.2,2.7h-1.6c0-0.7-0.3-1.3-0.8-1.7c-0.5-0.4-1.2-0.6-2.1-0.6c-1.8,0-2.7,0.7-2.7,2c0,0.9,0.7,1.6,2.1,1.9
				l1.7,0.4c2.4,0.5,3.6,1.7,3.6,3.6C109.3,81.2,108.9,82.1,108,82.7z M127.4,83.5h-1.7l-1.2-3.3H119l-1.2,3.3h-1.6v-0.2l4.6-12.4
				h1.9l4.6,12.4L127.4,83.5L127.4,83.5z M137.7,82.5c-0.7,0.6-1.7,1-3,1h-5.2V70.9h5.1c1.1,0,2,0.3,2.6,0.9c0.7,0.6,1,1.4,1,2.4
				c0,1.2-0.5,2.1-1.6,2.6v0.1c1.4,0.6,2.1,1.6,2.1,3C138.8,81,138.4,81.9,137.7,82.5z M142.6,79.1c0.1,0.6,0.3,1.1,0.6,1.6
				s0.7,0.9,1.2,1.1c0.5,0.3,1.1,0.4,1.8,0.4c2,0,3.1-0.9,3.4-2.8h1.6c-0.2,1.3-0.7,2.4-1.5,3.1c-0.8,0.8-2,1.1-3.5,1.1
				c-1.8,0-3.1-0.6-4.1-1.7c-1-1.2-1.5-2.7-1.5-4.7c0-2,0.5-3.6,1.5-4.7c1-1.2,2.3-1.7,4.1-1.7c1.5,0,2.7,0.4,3.5,1.2
				c0.9,0.8,1.4,1.9,1.5,3.2h-1.6c-0.1-0.9-0.4-1.6-1-2.1c-0.6-0.5-1.4-0.8-2.4-0.8c-0.7,0-1.3,0.1-1.8,0.4
				c-0.5,0.3-0.9,0.6-1.2,1.1c-0.3,0.5-0.5,1-0.6,1.6c-0.1,0.6-0.2,1.2-0.2,1.9C142.4,77.9,142.5,78.5,142.6,79.1z"/>
			<path class="st4" d="M136.1,75.8c0.4-0.3,0.6-0.9,0.6-1.6c0-0.6-0.2-1.1-0.6-1.4c-0.4-0.3-1-0.5-1.7-0.5h-3.3v4h3.1
				C135,76.3,135.6,76.1,136.1,75.8z"/>
			<path class="st4" d="M134.6,77.7h-3.5v4.4h3.5c0.8,0,1.4-0.2,1.9-0.6c0.5-0.4,0.7-0.9,0.7-1.6c0-0.7-0.2-1.3-0.7-1.6
				S135.4,77.7,134.6,77.7z"/>
			<rect x="20" y="123.6" class="st4" width="19.7" height="19.7"/>
			<rect x="49.7" y="153.4" class="st4" width="9.9" height="9.9"/>
		</g>
	</g>
</g>
<g id="_x30_2phones">
	<g>
		<g>
			<rect x="280" y="190.8" class="st0" width="140" height="245.5"/>
			<polyline class="st0" points="420,449.9 420,463.5 280,463.5 280,449.9 			"/>
			<polyline class="st0" points="280,177.1 280,163.5 420,163.5 420,177.1 			"/>
			<circle class="st0" cx="350" cy="449.9" r="6.8"/>
			<g>
				<circle class="st0" cx="333" cy="177.1" r="3.4"/>
				<line class="st0" x1="343.2" y1="177.1" x2="370.5" y2="177.1"/>
			</g>
		</g>
		<g>
			<polygon class="st0" points="399.8,247.1 399.8,379.9 300.2,379.9 300.2,277.1 330.2,247.1 			"/>
			<polygon class="st3" points="365,313.5 339,298.5 339,328.5 			"/>
			<polyline class="st0" points="330.2,257.1 330.2,277.1 310.2,277.1 			"/>
		</g>
	</g>
</g>
<g id="_x30_3ssids">
	<g>
		<rect x="280" y="0.5" class="st0" width="140" height="103"/>
		<g>
			<path class="st0" d="M342.9,145c3.9-3.9,10.2-3.9,14.1,0"/>
			<path class="st0" d="M335.9,137.9c7.8-7.8,20.5-7.8,28.3,0"/>
			<path class="st0" d="M328.8,130.8c11.7-11.7,30.7-11.7,42.4,0"/>
		</g>
		<g>
			<path class="st4" d="M302.2,32.6c-0.8-0.7-1.3-1.7-1.3-2.9h1.6c0.1,0.8,0.3,1.4,0.9,1.9c0.5,0.5,1.3,0.7,2.3,0.7
				c2.1,0,3.1-0.7,3.1-2.2c0-0.6-0.2-1-0.6-1.4c-0.4-0.3-0.9-0.5-1.7-0.7l-1.8-0.4c-1.1-0.2-1.9-0.6-2.5-1.2
				c-0.6-0.5-0.8-1.3-0.8-2.2c0-1.1,0.4-1.9,1.2-2.5c0.8-0.6,1.8-0.9,3.2-0.9c1.4,0,2.4,0.3,3.2,1c0.8,0.7,1.2,1.6,1.2,2.7h-1.6
				c0-0.7-0.3-1.3-0.8-1.7c-0.5-0.4-1.2-0.6-2.1-0.6c-1.8,0-2.7,0.7-2.7,2c0,0.9,0.7,1.6,2.1,1.9l1.7,0.4c2.4,0.5,3.6,1.7,3.6,3.6
				c0,1.1-0.4,2-1.3,2.6c-0.8,0.6-2,1-3.5,1C304.2,33.7,303,33.3,302.2,32.6z"/>
			<path class="st4" d="M313.7,32.6c-0.8-0.7-1.3-1.7-1.3-2.9h1.6c0.1,0.8,0.3,1.4,0.9,1.9c0.5,0.5,1.3,0.7,2.3,0.7
				c2.1,0,3.1-0.7,3.1-2.2c0-0.6-0.2-1-0.6-1.4c-0.4-0.3-0.9-0.5-1.7-0.7l-1.8-0.4c-1.1-0.2-1.9-0.6-2.5-1.2
				c-0.6-0.5-0.8-1.3-0.8-2.2c0-1.1,0.4-1.9,1.2-2.5c0.8-0.6,1.8-0.9,3.2-0.9c1.4,0,2.4,0.3,3.2,1c0.8,0.7,1.2,1.6,1.2,2.7H320
				c0-0.7-0.3-1.3-0.8-1.7c-0.5-0.4-1.2-0.6-2.1-0.6c-1.8,0-2.7,0.7-2.7,2c0,0.9,0.7,1.6,2.1,1.9l1.7,0.4c2.4,0.5,3.6,1.7,3.6,3.6
				c0,1.1-0.4,2-1.3,2.6c-0.8,0.6-2,1-3.5,1C315.6,33.7,314.5,33.3,313.7,32.6z"/>
			<path class="st4" d="M326.2,20.9v12.6h-1.6V20.9H326.2z"/>
			<path class="st4" d="M333.7,20.9c1.8,0,3.2,0.6,4.1,1.7s1.5,2.7,1.5,4.6c0,1.9-0.5,3.4-1.4,4.5c-1,1.2-2.4,1.8-4.2,1.8h-4.2V20.9
				H333.7z M333.6,32.1c1.4,0,2.4-0.5,3.1-1.4c0.7-0.9,1-2.1,1-3.5c0-1.4-0.3-2.6-1-3.5s-1.7-1.4-3.1-1.4h-2.4v9.7L333.6,32.1
				L333.6,32.1z"/>
			<path class="st4" d="M309.5,53.2h1.4v2.4h-1.8l-0.5,2.9H306l0.5-2.9h-1.6l-0.5,2.9h-2.6l0.5-2.9h-1.5v-2.4h1.9l0.3-1.9h-1.3v-2.4
				h1.7l0.5-3h2.6l-0.5,3h1.6l0.5-3h2.6l-0.5,3h1.6v2.4h-2L309.5,53.2z M305.7,51.3l-0.3,1.9h1.6l0.3-1.9H305.7z"/>
			<path class="st4" d="M324.2,58.5h-3.1l-0.7-2.4h-4.7l-0.7,2.4h-3v-0.2l4.3-12.4h3.6l4.3,12.4L324.2,58.5L324.2,58.5z M318.1,48.7
				L318.1,48.7l-1.6,4.9h3.1L318.1,48.7z"/>
			<path class="st4" d="M331.5,45.9c1.1,0,2.1,0.3,2.8,0.9c0.7,0.6,1,1.4,1,2.4c0,1.1-0.4,2-1.2,2.6v0.1c1.1,0.5,1.7,1.5,1.7,3
				c0,1.1-0.4,2-1.1,2.7c-0.7,0.6-1.7,1-3,1h-6.3V45.9H331.5z M331.1,50.8c0.9,0,1.3-0.4,1.3-1.2s-0.5-1.2-1.3-1.2h-2.8v2.4
				L331.1,50.8L331.1,50.8z M331.3,56c1.1,0,1.6-0.5,1.6-1.4c0-0.4-0.1-0.7-0.4-1s-0.7-0.4-1.2-0.4h-3V56L331.3,56L331.3,56z"/>
			<path class="st4" d="M338.3,56.8c-1.1-1.2-1.6-2.8-1.6-4.6c0-1.9,0.5-3.5,1.6-4.7c1.1-1.2,2.6-1.8,4.5-1.8c1.6,0,2.9,0.5,3.9,1.4
				c1,1,1.6,2.1,1.7,3.5h-2.9c-0.1-0.7-0.3-1.2-0.8-1.7s-1.1-0.7-1.9-0.7c-1,0-1.8,0.3-2.4,1c-0.6,0.7-0.8,1.6-0.8,2.9
				c0,1.3,0.3,2.2,0.8,2.9c0.6,0.7,1.4,1,2.4,1c0.8,0,1.4-0.2,1.9-0.6s0.7-1,0.8-1.6h2.9c-0.1,1.4-0.7,2.5-1.7,3.4
				c-1,0.9-2.3,1.4-3.9,1.4C340.9,58.7,339.4,58.1,338.3,56.8z"/>
			<path class="st4" d="M355.8,52v2.5h-5.5V52H355.8z"/>
			<path class="st4" d="M367.2,45.9v2.5h-6.2v2.3h5.6v2.5h-5.6V56h6.2v2.5h-9V45.9H367.2z"/>
			<path class="st4" d="M369.8,56.9c-0.8-1.2-1.2-2.8-1.2-4.7c0-2,0.4-3.5,1.2-4.7c0.8-1.2,2.1-1.8,3.7-1.8c1.7,0,2.9,0.6,3.7,1.8
				c0.8,1.2,1.2,2.8,1.2,4.7c0,2-0.4,3.6-1.2,4.7c-0.8,1.2-2.1,1.8-3.7,1.8C371.9,58.7,370.6,58.1,369.8,56.9z M375.2,55.2
				c0.3-0.6,0.5-1.7,0.5-3.1c0-1.4-0.2-2.4-0.5-3.1s-0.9-1-1.6-1c-0.8,0-1.3,0.3-1.6,1s-0.5,1.7-0.5,3.1c0,1.4,0.2,2.4,0.5,3.1
				c0.3,0.6,0.8,1,1.6,1C374.3,56.2,374.8,55.9,375.2,55.2z"/>
			<path class="st4" d="M382.7,48.7l-2.9,2.2h-0.2v-2.6l3.1-2.3h2.8v12.6h-2.8L382.7,48.7L382.7,48.7z"/>
		</g>
	</g>
</g>
</svg>
