<svg id="Layer_1" xmlns="http://www.w3.org/2000/svg" viewBox="0 0 302 890"><style>.st0{fill:#2e343a}.st1,.st2,.st3,.st4{fill:none;stroke:#2e343a;stroke-miterlimit:10}.st2,.st3,.st4{fill:#2e343a}.st3,.st4{stroke-linejoin:round}.st4{stroke-linejoin:bevel}</style><path class="st0" d="M7.102 868.219c-.756-.911-1.135-2.129-1.135-3.656 0-1.541.378-2.773 1.135-3.684.756-.91 1.821-1.358 3.194-1.358 1.163 0 2.073.308 2.759.91.672.603 1.064 1.443 1.163 2.494h-1.261c-.084-.701-.35-1.247-.784-1.653-.448-.406-1.079-.602-1.877-.602-.546 0-1.022.112-1.429.322a2.45 2.45 0 0 0-.967.882 3.941 3.941 0 0 0-.504 1.233 6.023 6.023 0 0 0-.168 1.457c0 .519.056 1.009.168 1.443.098.448.266.854.504 1.232s.561.672.967.883c.406.21.882.322 1.429.322 1.527 0 2.423-.728 2.675-2.171h1.247c-.14 1.037-.546 1.849-1.205 2.423-.658.588-1.569.882-2.717.882-1.387-.001-2.452-.449-3.194-1.359zM16.985 868.177c-.729-.924-1.093-2.129-1.093-3.628s.364-2.703 1.093-3.642c.714-.925 1.807-1.387 3.25-1.387s2.521.462 3.25 1.387c.729.938 1.093 2.143 1.093 3.642 0 1.485-.364 2.689-1.093 3.628-.729.939-1.807 1.401-3.25 1.401-1.442-.001-2.521-.463-3.25-1.401zm5.603-.854c.49-.743.729-1.667.729-2.774 0-1.106-.238-2.031-.729-2.773-.49-.742-1.275-1.106-2.354-1.106-.56 0-1.05.112-1.457.322-.42.21-.743.504-.967.882a4.201 4.201 0 0 0-.49 1.219 6.023 6.023 0 0 0-.168 1.457c0 1.107.252 2.031.743 2.774.49.742 1.26 1.106 2.339 1.106s1.864-.365 2.354-1.107zM28.144 859.646l5.015 7.802h.056v-7.802h1.205v9.805h-1.345l-5.015-7.76h-.056v7.76h-1.19v-9.805h1.33zM38.546 859.646l5.015 7.802h.056v-7.802h1.205v9.805h-1.345l-5.015-7.76h-.056v7.76h-1.19v-9.805h1.33zM53.921 859.646v1.121h-5.084v3.067h4.65v1.121h-4.65v3.39h5.084v1.106h-6.303v-9.805h6.303zM56.731 868.219c-.756-.911-1.135-2.129-1.135-3.656 0-1.541.378-2.773 1.135-3.684.756-.91 1.821-1.358 3.194-1.358 1.163 0 2.073.308 2.759.91.672.603 1.064 1.443 1.163 2.494h-1.261c-.084-.701-.35-1.247-.784-1.653-.448-.406-1.079-.602-1.877-.602-.546 0-1.023.112-1.429.322a2.45 2.45 0 0 0-.967.882 3.941 3.941 0 0 0-.504 1.233 6.023 6.023 0 0 0-.168 1.457c0 .519.056 1.009.168 1.443.098.448.266.854.504 1.232s.561.672.967.883c.406.21.882.322 1.429.322 1.527 0 2.423-.728 2.675-2.171h1.247c-.14 1.037-.546 1.849-1.205 2.423-.658.588-1.569.882-2.717.882-1.387-.001-2.452-.449-3.194-1.359zM64.963 860.767v-1.121h7.312v1.121h-3.04v8.685h-1.233v-8.685h-3.039zM75.393 859.646v9.805h-1.232v-9.805h1.232zM78.725 868.177c-.729-.924-1.093-2.129-1.093-3.628s.364-2.703 1.093-3.642c.714-.925 1.807-1.387 3.25-1.387s2.521.462 3.25 1.387c.729.938 1.092 2.143 1.092 3.642 0 1.485-.364 2.689-1.092 3.628-.729.939-1.807 1.401-3.25 1.401-1.443-.001-2.521-.463-3.25-1.401zm5.603-.854c.49-.743.729-1.667.729-2.774 0-1.106-.238-2.031-.729-2.773-.49-.742-1.275-1.106-2.354-1.106-.56 0-1.05.112-1.457.322-.42.21-.743.504-.967.882a4.201 4.201 0 0 0-.49 1.219 6.023 6.023 0 0 0-.168 1.457c0 1.107.252 2.031.743 2.774.49.742 1.26 1.106 2.339 1.106s1.864-.365 2.354-1.107zM89.883 859.646l5.015 7.802h.056v-7.802h1.205v9.805h-1.345l-5.015-7.76h-.056v7.76h-1.19v-9.805h1.33zM102.244 860.767v-1.121h7.312v1.121h-3.04v8.685h-1.233v-8.685h-3.039zM112.675 859.646v9.805h-1.232v-9.805h1.232zM116.917 859.646l3.306 5.981h.056l3.306-5.981H125v9.805h-1.163v-7.858h-.056l-3.474 6.178h-.14l-3.474-6.22h-.056v7.9h-1.163v-9.805h1.443zM134.097 859.646v1.121h-5.084v3.067h4.65v1.121h-4.65v3.39h5.084v1.106h-6.303v-9.805h6.303zM137.357 862.924v1.541h-1.513v-1.541h1.513zm0 4.986v1.541h-1.513v-1.541h1.513zM25.273 878.767v-1.121h7.312v1.121h-3.04v8.685h-1.233v-8.685h-3.039zM41.98 887.451h-1.331l-2.578-3.88H35.69v3.88h-1.219v-9.805h3.88c.967 0 1.737.28 2.283.826s.827 1.261.827 2.115c0 .714-.182 1.317-.561 1.807-.378.49-.896.84-1.555 1.022l2.633 3.894v.141zm-3.698-5c.616 0 1.092-.168 1.415-.491.322-.322.49-.77.49-1.358 0-.574-.168-1.037-.49-1.359-.336-.322-.812-.476-1.415-.476h-2.591v3.684h2.591zM51.584 887.451h-1.303l-.924-2.563H45.07l-.925 2.563h-1.274v-.14l3.6-9.665h1.499l3.614 9.665v.14zm-4.343-8.446h-.056l-1.723 4.791h3.502l-1.723-4.791zM54.73 877.646l5.015 7.802h.056v-7.802h1.205v9.805h-1.345l-5.015-7.76h-.056v7.76H53.4v-9.805h1.33zM64.109 886.751c-.645-.546-.98-1.303-1.009-2.241h1.247c.042.616.266 1.092.7 1.442.42.351 1.008.519 1.765.519 1.597 0 2.395-.574 2.395-1.709 0-.448-.154-.798-.448-1.051-.294-.238-.729-.42-1.303-.546l-1.429-.309c-.869-.182-1.513-.49-1.947-.924-.435-.42-.659-.995-.659-1.723 0-.827.294-1.485.896-1.975.603-.477 1.429-.714 2.507-.714 1.051 0 1.891.266 2.521.798.63.546.953 1.247.966 2.115h-1.247c-.028-.546-.224-.995-.602-1.317-.378-.322-.938-.476-1.667-.476-1.401 0-2.101.518-2.101 1.569 0 .728.56 1.218 1.667 1.457l1.331.28c1.863.378 2.788 1.316 2.788 2.815 0 .882-.322 1.569-.98 2.059-.659.504-1.555.756-2.689.756-1.161.001-2.071-.279-2.702-.825zM78.799 877.646v1.121h-4.931v3.292h4.454v1.121h-4.454v4.272H72.65v-9.805h6.149zM87.338 877.646v1.121h-5.084v3.067h4.65v1.121h-4.65v3.39h5.084v1.106h-6.303v-9.805h6.303zM97.083 887.451h-1.331l-2.578-3.88h-2.381v3.88h-1.219v-9.805h3.88c.967 0 1.737.28 2.283.826s.827 1.261.827 2.115c0 .714-.182 1.317-.561 1.807-.378.49-.896.84-1.555 1.022l2.633 3.894v.141zm-3.698-5c.616 0 1.092-.168 1.415-.491.322-.322.49-.77.49-1.358 0-.574-.168-1.037-.49-1.359-.336-.322-.812-.476-1.415-.476h-2.591v3.684h2.591zM102.244 878.767v-1.121h7.312v1.121h-3.04v8.685h-1.233v-8.685h-3.039zM112.675 877.646v9.805h-1.232v-9.805h1.232zM116.918 877.646l3.306 5.981h.056l3.306-5.981H125v9.805h-1.163v-7.858h-.056l-3.474 6.178h-.14l-3.474-6.22h-.056v7.9h-1.163v-9.805h1.444zM134.098 877.646v1.121h-5.084v3.067h4.65v1.121h-4.65v3.39h5.084v1.106h-6.303v-9.805h6.303zM137.357 880.924v1.541h-1.513v-1.541h1.513zm0 4.986v1.541h-1.513v-1.541h1.513z"/><g><path class="st0" d="M151.235 861.579l-2.255 1.709h-.14v-1.821l2.438-1.821h1.905v9.805h-1.891v-7.872h-.057zM166.091 864.507v1.681h-7.032v-1.681h7.032zM173.9 861.579l-2.255 1.709h-.14v-1.821l2.438-1.821h1.905v9.805h-1.891v-7.872h-.057zM178.477 868.205c-.602-.911-.91-2.129-.91-3.684 0-1.541.308-2.773.91-3.684.603-.911 1.541-1.359 2.802-1.359s2.199.448 2.801 1.359c.603.911.911 2.143.911 3.684 0 1.555-.308 2.773-.911 3.684-.602.911-1.541 1.373-2.801 1.373s-2.199-.463-2.802-1.373zm4.189-1.149c.266-.56.406-1.4.406-2.535 0-1.121-.14-1.961-.406-2.535-.266-.561-.729-.841-1.387-.841s-1.121.28-1.387.841c-.266.574-.406 1.415-.406 2.535 0 1.135.14 1.975.406 2.535.266.575.729.854 1.387.854s1.121-.279 1.387-.854zM191.189 868.667c-.686-.603-1.064-1.415-1.106-2.452h1.947c.042.546.238.953.602 1.233.35.28.84.42 1.457.42 1.331 0 1.989-.406 1.989-1.205 0-.322-.112-.588-.322-.771-.21-.182-.56-.336-1.022-.434l-1.429-.308c-.938-.196-1.653-.518-2.143-.953-.504-.434-.756-1.079-.756-1.905 0-.827.336-1.499 1.008-2.017.659-.504 1.555-.756 2.689-.756 1.107 0 2.003.294 2.718.868.7.574 1.05 1.331 1.064 2.241h-1.947a1.411 1.411 0 0 0-.504-1.008c-.309-.252-.757-.378-1.359-.378-.561 0-.98.098-1.261.28-.294.196-.434.448-.434.771 0 .266.098.476.294.658.182.182.504.322.967.42l1.331.28c.98.21 1.737.533 2.283.995.532.462.798 1.121.798 1.975 0 .911-.322 1.639-.98 2.157-.658.532-1.653.798-2.983.798-1.248.001-2.214-.307-2.901-.909zM206.425 859.646v1.723h-4.875v2.171h4.44v1.709h-4.44v2.493h4.875v1.709h-6.794v-9.805h6.794zM208.815 868.177c-.798-.924-1.205-2.129-1.205-3.614 0-1.499.406-2.704 1.205-3.642s1.947-1.4 3.418-1.4c1.205 0 2.185.35 2.956 1.05.77.7 1.191 1.583 1.26 2.647h-1.961c-.056-.574-.266-1.037-.644-1.401-.378-.364-.925-.546-1.611-.546-.883 0-1.541.294-1.989.883s-.672 1.387-.672 2.409.224 1.821.672 2.396c.448.588 1.106.882 1.989.882.658 0 1.176-.168 1.555-.518.378-.336.616-.785.714-1.345h1.947c-.111 1.05-.546 1.905-1.289 2.577-.756.687-1.737 1.022-2.927 1.022-1.471 0-2.62-.462-3.418-1.4zM218.727 868.163c-.799-.938-1.191-2.143-1.191-3.614s.393-2.689 1.191-3.628c.798-.938 1.946-1.4 3.445-1.4s2.647.462 3.446 1.4c.798.938 1.19 2.157 1.19 3.628s-.393 2.676-1.19 3.614c-.799.938-1.947 1.415-3.446 1.415s-2.647-.477-3.445-1.415zm5.448-1.219c.448-.574.673-1.373.673-2.396 0-1.022-.225-1.821-.673-2.409-.448-.574-1.12-.869-2.003-.869-.882 0-1.555.294-2.003.869-.448.588-.672 1.387-.672 2.409 0 1.023.224 1.821.672 2.396.448.588 1.121.882 2.003.882.883 0 1.555-.294 2.003-.882zM230.684 859.646l4.006 6.808h.056v-6.808h1.905v9.805h-2.241l-4.006-6.766h-.056v6.766h-1.892v-9.805h2.228zM242.206 859.646c1.443 0 2.62.448 3.517 1.345.896.91 1.345 2.087 1.345 3.558 0 1.401-.435 2.563-1.317 3.502-.882.938-2.073 1.401-3.544 1.401h-3.348v-9.805h3.347zm-.126 8.096c.967 0 1.723-.28 2.241-.826.519-.546.784-1.345.784-2.368 0-1.022-.266-1.807-.784-2.353s-1.274-.827-2.241-.827h-1.414v6.374h1.414zM249.121 868.667c-.687-.603-1.064-1.415-1.106-2.452h1.947c.042.546.238.953.603 1.233.35.28.84.42 1.456.42 1.331 0 1.989-.406 1.989-1.205 0-.322-.112-.588-.322-.771s-.561-.336-1.022-.434l-1.429-.308c-.938-.196-1.653-.518-2.144-.953-.504-.434-.756-1.079-.756-1.905 0-.827.336-1.499 1.009-2.017.658-.504 1.555-.756 2.689-.756 1.106 0 2.003.294 2.717.868.701.574 1.051 1.331 1.064 2.241h-1.946a1.408 1.408 0 0 0-.505-1.008c-.308-.252-.756-.378-1.358-.378-.561 0-.98.098-1.261.28-.294.196-.435.448-.435.771 0 .266.099.476.295.658.182.182.504.322.966.42l1.331.28c.98.21 1.737.533 2.283.995.532.462.799 1.121.799 1.975 0 .911-.322 1.639-.981 2.157-.658.532-1.652.798-2.983.798-1.247.001-2.214-.307-2.9-.909zM151.291 877.646v8.082h4.525v1.723h-6.444v-9.805h1.919zM163.921 877.646v1.723h-4.875v2.171h4.44v1.709h-4.44v2.493h4.875v1.709h-6.794v-9.805h6.794zM166.073 886.667c-.686-.603-1.064-1.415-1.106-2.452h1.947c.042.546.238.953.603 1.233.35.28.84.42 1.457.42 1.331 0 1.989-.406 1.989-1.205 0-.322-.112-.588-.322-.771-.21-.182-.56-.336-1.022-.434l-1.429-.308c-.938-.196-1.653-.518-2.143-.953-.504-.434-.756-1.079-.756-1.905 0-.827.336-1.499 1.008-2.017.659-.504 1.555-.756 2.689-.756 1.107 0 2.003.294 2.718.868.7.574 1.05 1.331 1.064 2.241h-1.947a1.411 1.411 0 0 0-.504-1.008c-.309-.252-.757-.378-1.359-.378-.561 0-.98.098-1.261.28-.294.196-.434.448-.434.771 0 .266.098.476.294.658.182.182.504.322.967.42l1.331.28c.98.21 1.737.533 2.283.995.532.462.798 1.121.798 1.975 0 .911-.322 1.639-.98 2.157-.658.532-1.653.798-2.983.798-1.249.001-2.215-.307-2.902-.909zM174.921 886.667c-.686-.603-1.064-1.415-1.106-2.452h1.947c.042.546.238.953.602 1.233.35.28.84.42 1.457.42 1.331 0 1.989-.406 1.989-1.205 0-.322-.112-.588-.322-.771-.21-.182-.56-.336-1.022-.434l-1.429-.308c-.938-.196-1.653-.518-2.143-.953-.504-.434-.756-1.079-.756-1.905 0-.827.336-1.499 1.008-2.017.659-.504 1.555-.756 2.689-.756 1.107 0 2.003.294 2.718.868.7.574 1.05 1.331 1.064 2.241h-1.947a1.411 1.411 0 0 0-.504-1.008c-.309-.252-.757-.378-1.359-.378-.561 0-.98.098-1.261.28-.294.196-.434.448-.434.771 0 .266.098.476.294.658.182.182.504.322.967.42l1.331.28c.98.21 1.737.533 2.283.995.532.462.798 1.121.798 1.975 0 .911-.322 1.639-.98 2.157-.658.532-1.653.798-2.983.798-1.248.001-2.214-.307-2.901-.909zM186.554 879.383v-1.737h7.705v1.737h-2.886v8.068h-1.933v-8.068h-2.886zM203.737 887.451h-1.919v-4.202h-4.245v4.202h-1.919v-9.805h1.919v3.88h4.245v-3.88h1.919v9.805zM214.377 887.451h-2.115l-.672-2.059h-3.838l-.672 2.059h-2.017v-.14l3.432-9.665h2.438l3.446 9.665v.14zm-4.678-7.844h-.056l-1.331 4.09h2.717l-1.33-4.09zM217.916 877.646l4.007 6.808h.056v-6.808h1.905v9.805h-2.241l-4.007-6.766h-.056v6.766h-1.891v-9.805h2.227zM231.958 879.579l-2.255 1.709h-.141v-1.821l2.438-1.821h1.905v9.805h-1.892v-7.872h-.055zM240.455 886.667c-.687-.603-1.064-1.415-1.106-2.452h1.947c.042.546.238.953.603 1.233.35.28.84.42 1.456.42 1.331 0 1.989-.406 1.989-1.205 0-.322-.112-.588-.322-.771s-.561-.336-1.022-.434l-1.429-.308c-.938-.196-1.653-.518-2.144-.953-.504-.434-.756-1.079-.756-1.905 0-.827.336-1.499 1.009-2.017.658-.504 1.555-.756 2.689-.756 1.106 0 2.003.294 2.717.868.701.574 1.051 1.331 1.064 2.241h-1.946a1.408 1.408 0 0 0-.505-1.008c-.308-.252-.756-.378-1.358-.378-.561 0-.98.098-1.261.28-.294.196-.435.448-.435.771 0 .266.099.476.295.658.182.182.504.322.966.42l1.331.28c.98.21 1.737.533 2.283.995.532.462.799 1.121.799 1.975 0 .911-.322 1.639-.981 2.157-.658.532-1.652.798-2.983.798-1.247.001-2.214-.307-2.9-.909zM255.69 877.646v1.723h-4.875v2.171h4.44v1.709h-4.44v2.493h4.875v1.709h-6.794v-9.805h6.794zM258.081 886.177c-.799-.924-1.205-2.129-1.205-3.614 0-1.499.406-2.704 1.205-3.642s1.947-1.4 3.418-1.4c1.204 0 2.185.35 2.955 1.05s1.191 1.583 1.261 2.647h-1.961c-.056-.574-.266-1.037-.645-1.401-.378-.364-.924-.546-1.61-.546-.883 0-1.541.294-1.989.883s-.672 1.387-.672 2.409.224 1.821.672 2.396c.448.588 1.106.882 1.989.882.658 0 1.177-.168 1.555-.518.378-.336.616-.785.715-1.345h1.946c-.111 1.05-.546 1.905-1.288 2.577-.757.687-1.737 1.022-2.928 1.022-1.471 0-2.619-.462-3.418-1.4zM267.993 886.163c-.799-.938-1.191-2.143-1.191-3.614s.393-2.689 1.191-3.628c.798-.938 1.946-1.4 3.445-1.4s2.647.462 3.446 1.4c.798.938 1.19 2.157 1.19 3.628s-.393 2.676-1.19 3.614c-.799.938-1.947 1.415-3.446 1.415s-2.647-.477-3.445-1.415zm5.448-1.219c.448-.574.673-1.373.673-2.396 0-1.022-.225-1.821-.673-2.409-.448-.574-1.12-.869-2.003-.869-.882 0-1.555.294-2.003.869-.448.588-.672 1.387-.672 2.409 0 1.023.224 1.821.672 2.396.448.588 1.121.882 2.003.882.883 0 1.555-.294 2.003-.882zM279.949 877.646l4.006 6.808h.057v-6.808h1.904v9.805h-2.241l-4.006-6.766h-.056v6.766h-1.892v-9.805h2.228zM291.471 877.646c1.443 0 2.62.448 3.517 1.345.896.91 1.345 2.087 1.345 3.558 0 1.401-.435 2.563-1.317 3.502-.882.938-2.073 1.401-3.544 1.401h-3.348v-9.805h3.347zm-.126 8.096c.967 0 1.723-.28 2.241-.826.519-.546.784-1.345.784-2.368 0-1.022-.266-1.807-.784-2.353s-1.274-.827-2.241-.827h-1.414v6.374h1.414z"/></g><path class="st1" d="M86 431.806l-15 15-15-15M246 431.806l-15 15-15-15"/><g><path class="st1" d="M66.066 530.806a6.978 6.978 0 0 1 9.868 0M61.132 525.872c5.45-5.45 14.287-5.45 19.737 0M56.197 520.938c8.175-8.175 21.43-8.175 29.605 0"/></g><path class="st1" d="M1 456.806h140v48H1z"/><g><path class="st0" d="M12.709 475.503c-.645-.546-.98-1.303-1.009-2.241h1.247c.042.616.266 1.092.7 1.442.42.351 1.009.519 1.765.519 1.597 0 2.396-.574 2.396-1.709 0-.448-.154-.798-.448-1.051-.294-.238-.729-.42-1.303-.546l-1.429-.309c-.868-.182-1.513-.49-1.947-.924-.434-.42-.658-.995-.658-1.723 0-.827.294-1.485.896-1.975.603-.477 1.429-.714 2.508-.714 1.05 0 1.891.266 2.521.798.63.546.952 1.247.966 2.115h-1.246c-.028-.546-.225-.995-.603-1.317s-.938-.476-1.667-.476c-1.4 0-2.102.518-2.102 1.569 0 .728.561 1.218 1.667 1.457l1.331.28c1.863.378 2.787 1.316 2.787 2.815 0 .882-.322 1.569-.98 2.059-.658.504-1.555.756-2.689.756-1.162.001-2.073-.279-2.703-.825zM21.652 475.503c-.645-.546-.98-1.303-1.009-2.241h1.247c.042.616.266 1.092.7 1.442.42.351 1.009.519 1.765.519 1.597 0 2.396-.574 2.396-1.709 0-.448-.154-.798-.448-1.051-.294-.238-.729-.42-1.303-.546l-1.429-.309c-.868-.182-1.513-.49-1.947-.924-.434-.42-.658-.995-.658-1.723 0-.827.294-1.485.896-1.975.603-.477 1.429-.714 2.508-.714 1.05 0 1.891.266 2.521.798.63.546.952 1.247.966 2.115h-1.246c-.028-.546-.225-.995-.603-1.317s-.938-.476-1.667-.476c-1.4 0-2.102.518-2.102 1.569 0 .728.561 1.218 1.667 1.457l1.331.28c1.863.378 2.787 1.316 2.787 2.815 0 .882-.322 1.569-.98 2.059-.658.504-1.555.756-2.689.756-1.162.001-2.073-.279-2.703-.825zM31.399 466.398v9.805h-1.233v-9.805h1.233zM37.291 466.398c1.373 0 2.451.448 3.222 1.331s1.148 2.073 1.148 3.572c0 1.443-.378 2.62-1.12 3.53-.757.91-1.835 1.373-3.25 1.373h-3.25v-9.805h3.25zm-.126 8.699c1.064 0 1.877-.364 2.424-1.079.546-.714.812-1.611.812-2.718 0-1.092-.266-2.003-.812-2.717-.547-.714-1.359-1.064-2.424-1.064H35.26v7.578h1.905zM18.158 490.183h1.232v1.625h-1.513l-.406 2.396h-1.709l.406-2.396h-1.471l-.406 2.396h-1.709l.406-2.396H11.7v-1.625h1.569l.28-1.695H12.4v-1.625h1.429l.421-2.465h1.709l-.421 2.465h1.471l.421-2.465h1.709l-.421 2.465h1.373v1.625h-1.652l-.281 1.695zm-2.899-1.695l-.28 1.695h1.471l.28-1.695h-1.471zM29.677 494.203h-2.115l-.672-2.059h-3.838l-.673 2.059h-2.017v-.14l3.432-9.665h2.438l3.445 9.665v.14zm-4.679-7.844h-.056l-1.331 4.09h2.718l-1.331-4.09zM35.335 484.398c.882 0 1.583.224 2.115.672.532.462.798 1.079.798 1.877 0 .924-.336 1.597-1.022 2.003v.056c.925.434 1.387 1.219 1.387 2.367 0 .882-.28 1.583-.826 2.073-.561.504-1.331.756-2.297.756h-4.623v-9.805h4.468zm-.309 3.908c.421 0 .742-.098.953-.309.21-.196.322-.476.322-.826 0-.714-.406-1.079-1.233-1.079h-2.297v2.213h2.255zm.168 4.188c.49 0 .854-.112 1.093-.35.238-.224.364-.532.364-.924 0-.364-.126-.672-.364-.911s-.603-.35-1.093-.35h-2.423v2.535h2.423zM40.822 492.928c-.799-.924-1.205-2.129-1.205-3.614 0-1.499.406-2.704 1.205-3.642s1.947-1.4 3.418-1.4c1.204 0 2.185.35 2.955 1.05s1.191 1.583 1.261 2.647h-1.961c-.056-.574-.266-1.037-.645-1.401-.378-.364-.924-.546-1.61-.546-.883 0-1.541.294-1.989.883s-.672 1.387-.672 2.409.224 1.821.672 2.396c.448.588 1.106.882 1.989.882.658 0 1.177-.168 1.555-.518.378-.336.616-.785.715-1.345h1.946c-.111 1.05-.546 1.905-1.288 2.577-.757.687-1.737 1.022-2.928 1.022-1.47.001-2.619-.461-3.418-1.4zM54.234 489.258v1.681h-4.286v-1.681h4.286zM63.082 484.398v1.723h-4.875v2.171h4.44v1.709h-4.44v2.493h4.875v1.709h-6.794v-9.805h6.794zM65.183 492.956c-.603-.911-.91-2.129-.91-3.684 0-1.541.308-2.773.91-3.684s1.541-1.359 2.802-1.359 2.199.448 2.802 1.359c.602.911.91 2.143.91 3.684 0 1.555-.309 2.773-.91 3.684-.603.911-1.541 1.373-2.802 1.373s-2.2-.462-2.802-1.373zm4.188-1.148c.267-.56.406-1.4.406-2.535 0-1.121-.14-1.961-.406-2.535-.267-.561-.729-.841-1.387-.841s-1.121.28-1.387.841c-.267.574-.406 1.415-.406 2.535 0 1.135.14 1.975.406 2.535.266.575.729.854 1.387.854s1.121-.28 1.387-.854zM75.226 486.331l-2.255 1.709h-.141v-1.821l2.438-1.821h1.905v9.805h-1.892v-7.872h-.055z"/></g><g><path class="st1" d="M37.244 553.958h67.513v118.367H37.244zM104.756 678.9v6.576H37.244V678.9M37.244 547.382v-6.576h67.512v6.576"/><circle class="st1" cx="71" cy="678.9" r="3.288"/><circle class="st1" cx="62.78" cy="547.382" r="1.644"/><path class="st1" d="M67.712 547.382h13.152"/><g><path class="st1" d="M95 581.141v64H47v-49.533l14.467-14.467z"/><path class="st2" d="M78.229 613.141L65.7 605.908v14.467z"/><path class="st1" d="M61.467 585.963v9.645h-9.645"/></g></g><g><path class="st1" d="M197.244 553.958h67.513v118.367h-67.513zM264.756 678.9v6.576h-67.512V678.9M197.244 547.382v-6.576h67.512v6.576"/><circle class="st1" cx="231" cy="678.9" r="3.288"/><circle class="st1" cx="222.78" cy="547.382" r="1.644"/><path class="st1" d="M227.712 547.382h13.152"/></g><g><path class="st1" d="M226.066 530.806a6.978 6.978 0 0 1 9.868 0M221.132 525.872c5.45-5.45 14.287-5.45 19.737 0M216.197 520.938c8.175-8.175 21.43-8.175 29.605 0"/></g><path class="st1" d="M161 456.806h140v48H161z"/><g><path class="st0" d="M172.709 475.503c-.645-.546-.98-1.303-1.009-2.241h1.247c.042.616.266 1.092.7 1.442.42.351 1.009.519 1.765.519 1.597 0 2.396-.574 2.396-1.709 0-.448-.154-.798-.448-1.051-.294-.238-.729-.42-1.303-.546l-1.429-.309c-.868-.182-1.513-.49-1.947-.924-.434-.42-.658-.995-.658-1.723 0-.827.294-1.485.896-1.975.603-.477 1.429-.714 2.508-.714 1.05 0 1.891.266 2.521.798.63.546.952 1.247.966 2.115h-1.246c-.028-.546-.225-.995-.603-1.317s-.938-.476-1.667-.476c-1.4 0-2.102.518-2.102 1.569 0 .728.561 1.218 1.667 1.457l1.331.28c1.863.378 2.787 1.316 2.787 2.815 0 .882-.322 1.569-.98 2.059-.658.504-1.555.756-2.689.756-1.162.001-2.073-.279-2.703-.825zM181.652 475.503c-.645-.546-.98-1.303-1.009-2.241h1.247c.042.616.266 1.092.7 1.442.42.351 1.009.519 1.765.519 1.597 0 2.396-.574 2.396-1.709 0-.448-.154-.798-.448-1.051-.294-.238-.729-.42-1.303-.546l-1.429-.309c-.868-.182-1.513-.49-1.947-.924-.434-.42-.658-.995-.658-1.723 0-.827.294-1.485.896-1.975.603-.477 1.429-.714 2.508-.714 1.05 0 1.891.266 2.521.798.63.546.952 1.247.966 2.115h-1.246c-.028-.546-.225-.995-.603-1.317s-.938-.476-1.667-.476c-1.4 0-2.102.518-2.102 1.569 0 .728.561 1.218 1.667 1.457l1.331.28c1.863.378 2.787 1.316 2.787 2.815 0 .882-.322 1.569-.98 2.059-.658.504-1.555.756-2.689.756-1.162.001-2.073-.279-2.703-.825zM191.399 466.398v9.805h-1.233v-9.805h1.233zM197.291 466.398c1.373 0 2.451.448 3.222 1.331s1.148 2.073 1.148 3.572c0 1.443-.378 2.62-1.12 3.53-.757.91-1.835 1.373-3.25 1.373h-3.25v-9.805h3.25zm-.126 8.699c1.064 0 1.877-.364 2.424-1.079.546-.714.812-1.611.812-2.718 0-1.092-.266-2.003-.812-2.717-.547-.714-1.359-1.064-2.424-1.064h-1.905v7.578h1.905zM173.69 490.883c0-.546.098-.98.294-1.303s.519-.658.967-1.008l.448-.351c.266-.21.448-.392.561-.56a1.12 1.12 0 0 0 .168-.63c0-.308-.099-.574-.309-.784-.21-.21-.546-.322-.98-.322-.925 0-1.387.462-1.387 1.373h-1.905c0-.882.28-1.611.854-2.185.561-.561 1.373-.84 2.438-.84.98 0 1.765.252 2.354.742.574.504.868 1.148.868 1.919 0 .869-.35 1.583-1.064 2.129l-.588.462c-.351.266-.574.49-.701.659-.126.182-.195.406-.195.7v.224h-1.821v-.225zm1.96 1.317v2.003h-2.073V492.2h2.073zM187.275 494.203h-2.115l-.672-2.059h-3.838l-.673 2.059h-2.017v-.14l3.432-9.665h2.438l3.445 9.665v.14zm-4.679-7.844h-.056l-1.331 4.09h2.718l-1.331-4.09zM192.933 484.398c.882 0 1.583.224 2.115.672.532.462.798 1.079.798 1.877 0 .924-.336 1.597-1.022 2.003v.056c.925.434 1.387 1.219 1.387 2.367 0 .882-.28 1.583-.826 2.073-.561.504-1.331.756-2.297.756h-4.623v-9.805h4.468zm-.309 3.908c.421 0 .742-.098.953-.309.21-.196.322-.476.322-.826 0-.714-.406-1.079-1.233-1.079h-2.297v2.213h2.255zm.168 4.188c.49 0 .854-.112 1.093-.35.238-.224.364-.532.364-.924 0-.364-.126-.672-.364-.911s-.603-.35-1.093-.35h-2.423v2.535h2.423zM198.42 492.928c-.799-.924-1.205-2.129-1.205-3.614 0-1.499.406-2.704 1.205-3.642s1.947-1.4 3.418-1.4c1.204 0 2.185.35 2.955 1.05s1.191 1.583 1.261 2.647h-1.961c-.056-.574-.266-1.037-.645-1.401-.378-.364-.924-.546-1.61-.546-.883 0-1.541.294-1.989.883s-.672 1.387-.672 2.409.224 1.821.672 2.396c.448.588 1.106.882 1.989.882.658 0 1.177-.168 1.555-.518.378-.336.616-.785.715-1.345h1.946c-.111 1.05-.546 1.905-1.288 2.577-.757.687-1.737 1.022-2.928 1.022-1.471.001-2.619-.461-3.418-1.4zM211.833 489.258v1.681h-4.287v-1.681h4.287zM220.681 484.398v1.723h-4.875v2.171h4.44v1.709h-4.44v2.493h4.875v1.709h-6.794v-9.805h6.794zM222.78 492.956c-.603-.911-.91-2.129-.91-3.684 0-1.541.308-2.773.91-3.684s1.541-1.359 2.802-1.359 2.199.448 2.802 1.359c.602.911.91 2.143.91 3.684 0 1.555-.309 2.773-.91 3.684-.603.911-1.541 1.373-2.802 1.373s-2.199-.462-2.802-1.373zm4.189-1.148c.267-.56.406-1.4.406-2.535 0-1.121-.14-1.961-.406-2.535-.267-.561-.729-.841-1.387-.841s-1.121.28-1.387.841c-.267.574-.406 1.415-.406 2.535 0 1.135.14 1.975.406 2.535.266.575.729.854 1.387.854s1.12-.28 1.387-.854zM232.823 486.331l-2.255 1.709h-.141v-1.821l2.438-1.821h1.905v9.805h-1.892v-7.872h-.055z"/></g><g><path class="st0" d="M104.047 317.834v9.805h-1.933v-9.805h1.933zM110.337 317.834c.98 0 1.765.294 2.354.896.588.602.882 1.358.882 2.297 0 .952-.294 1.737-.882 2.339-.603.603-1.387.911-2.354.911h-2.283v3.362h-1.919v-9.805h4.202zm-.351 4.72c1.079 0 1.625-.504 1.625-1.526 0-.477-.14-.841-.42-1.107-.294-.252-.687-.378-1.205-.378h-1.933v3.011h1.933zM119.077 322.694v1.681h-4.286v-1.681h4.286zM125.333 317.834c.98 0 1.765.294 2.354.896.588.602.882 1.358.882 2.297 0 .952-.294 1.737-.882 2.339-.603.603-1.387.911-2.354.911h-2.283v3.362h-1.919v-9.805h4.202zm-.351 4.72c1.079 0 1.625-.504 1.625-1.526 0-.477-.14-.841-.42-1.107-.294-.252-.687-.378-1.205-.378h-1.933v3.011h1.933zM137.967 327.639h-2.214l-2.255-3.586h-1.653v3.586h-1.919v-9.805h4.301c.994 0 1.793.294 2.396.882.588.588.882 1.317.882 2.185 0 .714-.182 1.317-.532 1.821-.35.518-.84.882-1.442 1.106l2.438 3.67v.141zm-3.837-5.295c.462 0 .812-.14 1.05-.406s.351-.602.351-1.022c0-.392-.112-.714-.351-.98-.238-.252-.588-.378-1.05-.378h-2.284v2.788h2.284zM139.801 326.35c-.799-.938-1.19-2.143-1.19-3.614s.392-2.689 1.19-3.628c.798-.938 1.947-1.4 3.445-1.4 1.499 0 2.647.462 3.446 1.4s1.19 2.157 1.19 3.628-.392 2.676-1.19 3.614-1.947 1.415-3.446 1.415c-1.497 0-2.647-.476-3.445-1.415zm5.45-1.218c.448-.574.672-1.373.672-2.396 0-1.022-.224-1.821-.672-2.409-.448-.574-1.121-.869-2.004-.869-.882 0-1.555.294-2.003.869-.448.588-.672 1.387-.672 2.409 0 1.023.224 1.821.672 2.396.448.588 1.121.882 2.003.882.883 0 1.555-.294 2.004-.882zM148.457 319.571v-1.737h7.704v1.737h-2.886v8.068h-1.933v-8.068h-2.885zM164.186 317.834v1.723h-4.875v2.171h4.44v1.709h-4.44v2.493h4.875v1.709h-6.794v-9.805h6.794zM166.434 326.364c-.799-.924-1.205-2.129-1.205-3.614 0-1.499.406-2.704 1.205-3.642s1.947-1.4 3.418-1.4c1.204 0 2.185.35 2.955 1.05s1.191 1.583 1.261 2.647h-1.961c-.056-.574-.266-1.037-.645-1.401-.378-.364-.924-.546-1.61-.546-.883 0-1.541.294-1.989.883s-.672 1.387-.672 2.409.224 1.821.672 2.396c.448.588 1.106.882 1.989.882.658 0 1.177-.168 1.555-.518.378-.336.616-.785.715-1.345h1.946c-.111 1.05-.546 1.905-1.288 2.577-.757.687-1.737 1.022-2.928 1.022-1.471.001-2.619-.461-3.418-1.4zM174.774 319.571v-1.737h7.704v1.737h-2.886v8.068h-1.933v-8.068h-2.885zM190.505 317.834v1.723h-4.875v2.171h4.44v1.709h-4.44v2.493h4.875v1.709h-6.794v-9.805h6.794zM195.589 317.834c1.443 0 2.62.448 3.517 1.345.896.91 1.345 2.087 1.345 3.558 0 1.401-.435 2.563-1.317 3.502-.882.938-2.073 1.401-3.544 1.401h-3.348v-9.805h3.347zm-.126 8.096c.967 0 1.723-.28 2.241-.826.519-.546.784-1.345.784-2.368 0-1.022-.266-1.807-.784-2.353s-1.274-.827-2.241-.827h-1.414v6.374h1.414zM117.755 344.855c-.687-.603-1.064-1.415-1.106-2.452h1.946c.043.546.238.953.603 1.233.351.28.841.42 1.457.42 1.331 0 1.989-.406 1.989-1.205 0-.322-.112-.588-.322-.771s-.561-.336-1.022-.434l-1.429-.308c-.938-.196-1.653-.518-2.144-.953-.504-.434-.756-1.079-.756-1.905 0-.827.336-1.499 1.008-2.017.659-.504 1.556-.756 2.689-.756 1.107 0 2.004.294 2.718.868.7.574 1.051 1.331 1.064 2.241h-1.947a1.404 1.404 0 0 0-.504-1.008c-.309-.252-.757-.378-1.358-.378-.561 0-.98.098-1.261.28-.294.196-.435.448-.435.771 0 .266.098.476.294.658.183.182.505.322.967.42l1.331.28c.98.21 1.736.533 2.283.995.532.462.798 1.121.798 1.975 0 .911-.322 1.639-.98 2.157-.658.532-1.652.798-2.983.798-1.247.001-2.213-.307-2.9-.909zM126.815 344.35c-.799-.938-1.19-2.143-1.19-3.614s.392-2.689 1.19-3.628c.798-.938 1.947-1.4 3.445-1.4 1.499 0 2.647.462 3.446 1.4s1.19 2.157 1.19 3.628-.392 2.676-1.19 3.614-1.947 1.415-3.446 1.415c-1.498 0-2.647-.476-3.445-1.415zm5.449-1.218c.448-.574.672-1.373.672-2.396 0-1.022-.224-1.821-.672-2.409-.448-.574-1.121-.869-2.004-.869-.882 0-1.555.294-2.003.869-.448.588-.672 1.387-.672 2.409 0 1.023.224 1.821.672 2.396.448.588 1.121.882 2.003.882.883 0 1.556-.294 2.004-.882zM138.421 335.834v8.082h4.524v1.723h-6.443v-9.805h1.919zM145.005 344.743c-.742-.672-1.12-1.625-1.12-2.857v-6.051h1.919v6.023c0 1.457.7 2.186 2.102 2.186 1.414 0 2.115-.729 2.115-2.186v-6.023h1.933v6.051c0 1.247-.364 2.199-1.106 2.872s-1.723 1.008-2.941 1.008c-1.194-.001-2.159-.337-2.902-1.023zM153.114 337.571v-1.737h7.704v1.737h-2.886v8.068H156v-8.068h-2.886zM163.984 335.834v9.805h-1.934v-9.805h1.934zM166.772 344.35c-.799-.938-1.191-2.143-1.191-3.614s.393-2.689 1.191-3.628c.798-.938 1.946-1.4 3.445-1.4s2.647.462 3.446 1.4c.798.938 1.19 2.157 1.19 3.628s-.393 2.676-1.19 3.614c-.799.938-1.947 1.415-3.446 1.415s-2.647-.476-3.445-1.415zm5.448-1.218c.448-.574.673-1.373.673-2.396 0-1.022-.225-1.821-.673-2.409-.448-.574-1.12-.869-2.003-.869-.882 0-1.555.294-2.003.869-.448.588-.672 1.387-.672 2.409 0 1.023.224 1.821.672 2.396.448.588 1.121.882 2.003.882.883 0 1.555-.294 2.003-.882zM178.689 335.834l4.006 6.808h.056v-6.808h1.905v9.805h-2.241l-4.006-6.766h-.056v6.766h-1.892v-9.805h2.228z"/></g><g><path class="st0" d="M54.776 829.646h2.031l1.457 7.088h.056l1.737-7.088h2.101l1.766 7.088h.056l1.457-7.088h2.017v.14l-2.297 9.665h-2.381l-1.625-6.864h-.057l-1.652 6.864H57.06l-2.283-9.665v-.14zM70.594 829.646v9.805h-1.933v-9.805h1.933zM79.429 829.646v1.723h-4.833v2.423h4.385v1.723h-4.385v3.936h-1.919v-9.805h6.752zM82.79 829.646v9.805h-1.933v-9.805h1.933zM92.339 829.646c1.442 0 2.619.448 3.516 1.345.896.91 1.345 2.087 1.345 3.558 0 1.401-.435 2.563-1.316 3.502-.883.938-2.073 1.401-3.544 1.401h-3.349v-9.805h3.348zm-.126 8.096c.967 0 1.724-.28 2.241-.826.519-.546.785-1.345.785-2.368 0-1.022-.267-1.807-.785-2.353-.518-.546-1.274-.827-2.241-.827h-1.414v6.374h1.414zM100.705 829.646v9.805h-1.934v-9.805h1.934zM110.831 839.451h-2.213l-2.255-3.586h-1.653v3.586h-1.919v-9.805h4.3c.995 0 1.793.294 2.396.882.589.588.883 1.317.883 2.185 0 .714-.183 1.317-.532 1.821-.351.518-.841.882-1.443 1.106l2.438 3.67v.141zm-3.838-5.295c.462 0 .812-.14 1.051-.406s.35-.602.35-1.022c0-.392-.111-.714-.35-.98-.238-.252-.589-.378-1.051-.378h-2.283v2.788h2.283zM118.865 829.646v1.723h-4.875v2.171h4.44v1.709h-4.44v2.493h4.875v1.709h-6.794v-9.805h6.794zM121.113 838.177c-.799-.924-1.205-2.129-1.205-3.614 0-1.499.406-2.704 1.205-3.642.798-.938 1.946-1.4 3.418-1.4 1.204 0 2.185.35 2.955 1.05s1.19 1.583 1.261 2.647h-1.961c-.056-.574-.267-1.037-.645-1.401s-.925-.546-1.61-.546c-.883 0-1.541.294-1.989.883s-.673 1.387-.673 2.409.225 1.821.673 2.396c.448.588 1.106.882 1.989.882.658 0 1.176-.168 1.555-.518.378-.336.616-.785.714-1.345h1.947c-.112 1.05-.546 1.905-1.289 2.577-.756.687-1.736 1.022-2.927 1.022-1.472 0-2.62-.462-3.418-1.4zM129.453 831.383v-1.737h7.705v1.737h-2.886v8.068h-1.934v-8.068h-2.885zM143.188 838.163c-.799-.938-1.19-2.143-1.19-3.614s.392-2.689 1.19-3.628c.798-.938 1.947-1.4 3.445-1.4 1.499 0 2.647.462 3.446 1.4.798.938 1.19 2.157 1.19 3.628s-.393 2.676-1.19 3.614c-.799.938-1.947 1.415-3.446 1.415-1.498-.001-2.647-.477-3.445-1.415zm5.449-1.219c.448-.574.672-1.373.672-2.396 0-1.022-.224-1.821-.672-2.409-.448-.574-1.121-.869-2.004-.869-.882 0-1.555.294-2.003.869-.448.588-.672 1.387-.672 2.409 0 1.023.224 1.821.672 2.396.448.588 1.121.882 2.003.882.883 0 1.556-.294 2.004-.882zM160.915 839.451h-2.213l-2.255-3.586h-1.653v3.586h-1.919v-9.805h4.301c.994 0 1.793.294 2.395.882.589.588.883 1.317.883 2.185 0 .714-.182 1.317-.532 1.821-.351.518-.841.882-1.442 1.106l2.437 3.67v.141zm-3.838-5.295c.463 0 .812-.14 1.051-.406s.351-.602.351-1.022c0-.392-.112-.714-.351-.98-.238-.252-.588-.378-1.051-.378h-2.283v2.788h2.283zM170.727 829.646c.882 0 1.583.224 2.115.672.532.462.798 1.079.798 1.877 0 .924-.336 1.597-1.022 2.003v.056c.925.434 1.387 1.219 1.387 2.367 0 .882-.28 1.583-.826 2.073-.561.504-1.331.756-2.297.756h-4.623v-9.805h4.468zm-.308 3.908c.421 0 .742-.098.953-.309.21-.196.322-.476.322-.826 0-.714-.406-1.079-1.233-1.079h-2.297v2.213h2.255zm.168 4.188c.49 0 .854-.112 1.093-.35.238-.224.364-.532.364-.924 0-.364-.126-.672-.364-.911s-.603-.35-1.093-.35h-2.423v2.535h2.423zM177.518 829.646v8.082h4.524v1.723h-6.443v-9.805h1.919zM184.102 838.555c-.742-.672-1.12-1.625-1.12-2.857v-6.051h1.919v6.023c0 1.457.7 2.186 2.101 2.186 1.415 0 2.115-.729 2.115-2.186v-6.023h1.934v6.051c0 1.247-.364 2.199-1.106 2.872-.743.672-1.724 1.008-2.942 1.008-1.192-.001-2.159-.337-2.901-1.023zM199.859 829.646v1.723h-4.875v2.171h4.44v1.709h-4.44v2.493h4.875v1.709h-6.794v-9.805h6.794zM200.853 831.383v-1.737h7.704v1.737h-2.886v8.068h-1.933v-8.068h-2.885zM210.323 838.163c-.799-.938-1.191-2.143-1.191-3.614s.393-2.689 1.191-3.628c.798-.938 1.946-1.4 3.445-1.4s2.647.462 3.446 1.4c.798.938 1.19 2.157 1.19 3.628s-.393 2.676-1.19 3.614c-.799.938-1.947 1.415-3.446 1.415s-2.647-.477-3.445-1.415zm5.448-1.219c.448-.574.673-1.373.673-2.396 0-1.022-.225-1.821-.673-2.409-.448-.574-1.12-.869-2.003-.869-.882 0-1.555.294-2.003.869-.448.588-.672 1.387-.672 2.409 0 1.023.224 1.821.672 2.396.448.588 1.121.882 2.003.882.883 0 1.555-.294 2.003-.882zM220.672 838.163c-.799-.938-1.191-2.143-1.191-3.614s.393-2.689 1.191-3.628c.798-.938 1.946-1.4 3.445-1.4s2.647.462 3.446 1.4c.798.938 1.19 2.157 1.19 3.628s-.393 2.676-1.19 3.614c-.799.938-1.947 1.415-3.446 1.415s-2.647-.477-3.445-1.415zm5.449-1.219c.448-.574.673-1.373.673-2.396 0-1.022-.225-1.821-.673-2.409-.448-.574-1.12-.869-2.003-.869-.882 0-1.555.294-2.003.869-.448.588-.672 1.387-.672 2.409 0 1.023.224 1.821.672 2.396.448.588 1.121.882 2.003.882.883 0 1.554-.294 2.003-.882zM229.327 831.383v-1.737h7.704v1.737h-2.886v8.068h-1.933v-8.068h-2.885zM246.346 839.451h-1.919v-4.202h-4.244v4.202h-1.919v-9.805h1.919v3.88h4.244v-3.88h1.919v9.805z"/></g><g><path class="st1" d="M97.557 198.387v-73.684H77.908V113.19h-9.211v11.513H44.443v46.053h5.833v104.77h4.606l13.201-87.5"/><path class="st1" d="M73.917 188.026l13.201 87.5h4.606v-77.139M68.697 100.526H80.21v12.664H68.697zM64.092 160.394v-11.513h9.211v11.513"/><path class="st3" d="M77.908 117.795l-9.211-4.605h9.211z"/><path class="st4" d="M50.276 175.361v-4.605h23.027z"/><path class="st1" d="M91.724 198.387v-37.993M50.276 170.756h23.027v-10.362H50.276"/><circle class="st2" cx="68.697" cy="152.335" r=".576"/><path class="st1" d="M141 275.526H1"/><g><path class="st0" d="M48.406 37.69c.49-.743.729-1.667.729-2.774 0-1.106-.238-2.031-.729-2.773-.49-.742-1.274-1.106-2.354-1.106-.561 0-1.051.112-1.457.322-.42.21-.742.504-.966.882a4.146 4.146 0 0 0-.49 1.219 6.023 6.023 0 0 0-.168 1.457c0 1.107.252 2.031.742 2.774.49.742 1.261 1.106 2.339 1.106 1.08 0 1.864-.364 2.354-1.107zM58.119 50.97c0-.574-.169-1.037-.49-1.359-.337-.322-.812-.476-1.415-.476h-2.592v3.684h2.592c.616 0 1.093-.168 1.415-.491.321-.322.49-.77.49-1.358zM55.699 31.135h-1.905v7.578h1.905c1.064 0 1.877-.364 2.423-1.079.547-.714.812-1.611.812-2.718 0-1.092-.266-2.003-.812-2.717s-1.358-1.064-2.423-1.064zM16.183 49.037c-.561 0-1.051.112-1.457.322-.42.21-.742.504-.966.882a4.146 4.146 0 0 0-.49 1.219 6.023 6.023 0 0 0-.168 1.457c0 1.107.252 2.032.742 2.774s1.261 1.106 2.339 1.106c1.079 0 1.863-.364 2.354-1.106s.729-1.667.729-2.774c0-1.106-.238-2.031-.729-2.773-.491-.743-1.275-1.107-2.354-1.107zM34.199 14.213l-1.191 3.81h2.437l-1.19-3.81zM26.299 33.11c0-.63-.183-1.121-.561-1.471-.378-.35-.911-.518-1.569-.518h-2.241v4.02h2.241c.687 0 1.205-.182 1.583-.532.364-.351.547-.841.547-1.499zM101.447 51.796c.336-.266.505-.686.505-1.232 0-.462-.154-.827-.449-1.079-.308-.252-.742-.378-1.302-.378h-2.592v3.11h2.438c.588-.001 1.051-.141 1.4-.421zM90.272 49.372l-1.723 4.791h3.502l-1.723-4.791z"/><path class="st0" d="M1 2.423v65h140v-65H1zm73.461 29.482l2.438-1.891h1.204v9.805h-1.19v-8.475h-.056l-2.256 1.765h-.14v-1.204zm-12.109-1.891h6.304v1.121H63.57v3.067h4.65v1.121h-4.65v3.39h5.085v1.106h-6.304v-9.805zm-13.29-18h7.004v1.961h-4.805v1.807h4.37v1.961h-4.37v2.129h4.805v1.947h-7.004v-9.805zm-10.57 0H41l2.27 7.186h.056l2.228-7.186h2.549v.14l-3.46 9.665h-2.647l-3.502-9.665v-.14zm-18.28 0h2.199v3.754h3.937v-3.754h2.199v9.805h-2.199v-4.076h-3.937v4.076h-2.199v-9.805zm-7.812 0h1.233v9.805H12.4v-9.805zm0 18h6.304v1.121h-5.085v3.067h4.65v1.121h-4.65v3.39h5.085v1.106H12.4v-9.805zm7.033 26.531c-.729.938-1.807 1.4-3.25 1.4-1.442 0-2.521-.462-3.25-1.4-.728-.925-1.092-2.13-1.092-3.628s.364-2.703 1.092-3.642c.715-.925 1.808-1.387 3.25-1.387 1.443 0 2.521.462 3.25 1.387.729.938 1.093 2.143 1.093 3.642-.001 1.484-.365 2.689-1.093 3.628zm2.495-16.726h-1.219v-9.805h3.614c.994 0 1.779.28 2.367.854.574.574.868 1.316.868 2.241 0 .938-.294 1.709-.882 2.283-.589.574-1.373.868-2.354.868h-2.396v3.559zm6.928 9.316h-4.931v3.292h4.455v1.121h-4.455v4.272h-1.219v-9.805h6.149v1.12zm1.881-9.316h-1.233v-9.805h1.233v9.805zm1.094-18h-2.325v-.14l3.362-9.665h2.815l3.376 9.665v.14h-2.438l-.574-1.863h-3.642l-.574 1.863zm.941 15.059h1.247c.042.616.266 1.092.7 1.442.42.351 1.009.519 1.765.519 1.597 0 2.396-.574 2.396-1.709 0-.448-.154-.798-.448-1.051-.294-.238-.729-.42-1.303-.546l-1.429-.309c-.868-.182-1.513-.49-1.947-.924-.434-.42-.658-.995-.658-1.723 0-.827.294-1.485.896-1.975.603-.477 1.429-.714 2.508-.714 1.05 0 1.891.266 2.521.798.631.546.953 1.247.967 2.115h-1.246c-.028-.546-.225-.995-.603-1.317s-.938-.476-1.667-.476c-1.4 0-2.102.518-2.102 1.569 0 .728.561 1.218 1.667 1.457l1.331.28c1.863.378 2.787 1.316 2.787 2.815 0 .882-.322 1.569-.98 2.059-.658.504-1.555.756-2.689.756-1.162 0-2.073-.28-2.703-.826-.646-.545-.982-1.302-1.01-2.24zm8.22 20.311c-.658.504-1.555.756-2.689.756-1.162 0-2.073-.28-2.703-.826-.645-.547-.98-1.303-1.009-2.241h1.247c.042.616.266 1.093.7 1.442.42.351 1.009.519 1.765.519 1.597 0 2.396-.574 2.396-1.709 0-.448-.154-.799-.448-1.051-.294-.238-.729-.42-1.303-.546l-1.429-.309c-.868-.182-1.513-.49-1.947-.924-.434-.42-.658-.995-.658-1.723 0-.827.294-1.485.896-1.975.603-.477 1.429-.714 2.508-.714 1.05 0 1.891.266 2.521.798.63.546.952 1.247.966 2.115h-1.246c-.028-.546-.225-.995-.603-1.317s-.938-.476-1.667-.476c-1.4 0-2.102.518-2.102 1.569 0 .728.561 1.218 1.667 1.457l1.331.28c1.863.378 2.787 1.316 2.787 2.815.001.884-.322 1.569-.98 2.06zm1.811-18.645c-.728-.924-1.092-2.129-1.092-3.628s.364-2.703 1.092-3.642c.715-.925 1.808-1.387 3.25-1.387 1.443 0 2.521.462 3.25 1.387.729.938 1.093 2.143 1.093 3.642 0 1.485-.364 2.689-1.093 3.628-.729.939-1.807 1.401-3.25 1.401s-2.522-.462-3.25-1.401zm7.596 10.591h-5.085v3.067h4.65v1.121h-4.65v3.39h5.085v1.106h-6.304v-9.805h6.304v1.121zm9.513 8.684h-1.331l-2.577-3.88h-2.382v3.88h-1.219v-9.805h3.881c.966 0 1.736.28 2.283.826.546.546.826 1.261.826 2.115 0 .714-.183 1.317-.561 1.807s-.896.84-1.555 1.022l2.634 3.895v.14zm-.837-19.372c-.757.91-1.835 1.373-3.25 1.373h-3.25v-9.805h3.25c1.373 0 2.451.448 3.222 1.331.771.882 1.148 2.073 1.148 3.572 0 1.441-.378 2.618-1.12 3.529zm3.832 19.372h-1.233v-9.805h1.233v9.805zm8.948-8.684H66.77v3.067h4.65v1.121h-4.65v3.39h5.085v1.106h-6.304v-9.805h6.304v1.121zm7.737 8.054c-.658.504-1.555.756-2.689.756-1.162 0-2.073-.28-2.703-.826-.645-.547-.98-1.303-1.009-2.241h1.247c.042.616.266 1.093.7 1.442.42.351 1.009.519 1.765.519 1.597 0 2.396-.574 2.396-1.709 0-.448-.154-.799-.448-1.051-.294-.238-.729-.42-1.303-.546l-1.429-.309c-.868-.182-1.513-.49-1.947-.924-.434-.42-.658-.995-.658-1.723 0-.827.294-1.485.896-1.975.603-.477 1.429-.714 2.508-.714 1.05 0 1.891.266 2.521.798.63.546.952 1.247.966 2.115h-1.246c-.028-.546-.225-.995-.603-1.317s-.938-.476-1.667-.476c-1.4 0-2.102.518-2.102 1.569 0 .728.561 1.218 1.667 1.457l1.331.28c1.863.378 2.787 1.316 2.787 2.815 0 .884-.322 1.569-.98 2.06zm15.078.63h-1.303l-.925-2.563h-4.286l-.924 2.563h-1.275v-.14l3.601-9.666h1.498l3.614 9.666v.14zm8.066-.757c-.561.505-1.331.757-2.298.757h-4.034v-9.805h3.937c.841 0 1.526.224 2.059.672.533.462.799 1.079.799 1.877 0 .966-.406 1.639-1.232 2.003v.056c1.064.434 1.597 1.218 1.597 2.368-.001.882-.282 1.582-.828 2.072zm3.817-2.689c.098.448.266.854.504 1.233.238.378.561.672.967.882s.882.322 1.429.322c1.526 0 2.423-.729 2.676-2.171h1.246c-.14 1.036-.546 1.849-1.204 2.423-.659.589-1.569.883-2.718.883-1.387 0-2.451-.448-3.194-1.358-.756-.911-1.134-2.129-1.134-3.656 0-1.541.378-2.773 1.134-3.684.757-.91 1.821-1.358 3.194-1.358 1.162 0 2.073.308 2.76.91.672.603 1.064 1.443 1.162 2.494h-1.261c-.084-.701-.35-1.247-.784-1.653-.448-.406-1.079-.602-1.877-.602-.547 0-1.022.112-1.429.322a2.45 2.45 0 0 0-.967.882 3.941 3.941 0 0 0-.504 1.233 6.023 6.023 0 0 0-.168 1.457c0 .517.056 1.007.168 1.441z"/><path class="st0" d="M100.299 53.281H97.61v3.432h2.689c.603 0 1.078-.154 1.457-.462.364-.295.546-.715.546-1.261 0-.561-.168-.981-.519-1.275-.349-.294-.854-.434-1.484-.434z"/></g><path class="st3" d="M10.594 77.423h11.513v11.513H10.594zM27.941 94.769h5.757v5.757h-5.757z"/></g><path class="st3" d="M171 77.423h11.513v11.513H171z"/><g><path class="st1" d="M257.557 198.387v-73.684h-19.649V113.19h-9.211v11.513h-24.254v46.053h5.833v104.77h4.606l13.201-87.5"/><path class="st1" d="M233.917 188.026l13.201 87.5h4.606v-77.139M226.395 100.526h11.513v12.664h-11.513zM224.092 160.394v-11.513h9.211v11.513"/><path class="st3" d="M228.697 117.795l9.211-4.605h-9.211z"/><path class="st4" d="M210.276 175.361v-4.605h23.027z"/><path class="st1" d="M251.724 198.387v-37.993M210.276 170.756h23.027v-10.362h-23.027"/><circle class="st2" cx="228.697" cy="152.335" r=".576"/><path class="st1" d="M301 275.526H161"/><g><path class="st0" d="M260.01 51.796c.336-.266.505-.686.505-1.232 0-.462-.154-.826-.449-1.078-.308-.252-.742-.379-1.302-.379h-2.592v3.11h2.438c.588 0 1.051-.141 1.4-.421zM258.862 53.281h-2.689v3.432h2.689c.603 0 1.078-.154 1.457-.462.364-.295.546-.715.546-1.261 0-.561-.168-.981-.519-1.274-.349-.295-.854-.435-1.484-.435zM174.746 49.037c-.561 0-1.051.111-1.457.322-.42.21-.742.504-.966.882a4.157 4.157 0 0 0-.49 1.219 6.023 6.023 0 0 0-.168 1.457c0 1.106.252 2.031.742 2.773s1.261 1.106 2.339 1.106c1.079 0 1.863-.364 2.354-1.106s.729-1.667.729-2.773-.238-2.031-.729-2.773-1.275-1.107-2.354-1.107zM216.682 50.97c0-.574-.169-1.036-.49-1.358-.337-.322-.812-.477-1.415-.477h-2.592v3.685h2.592c.616 0 1.093-.169 1.415-.491.321-.322.49-.77.49-1.359zM216.495 13.877c-.826 0-1.442.253-1.877.771-.435.519-.645 1.275-.645 2.27s.225 1.737.658 2.255c.435.519 1.051.785 1.863.785s1.443-.267 1.877-.785c.435-.518.645-1.261.645-2.255s-.21-1.751-.645-2.27c-.433-.518-1.064-.771-1.876-.771zM214.262 31.135h-1.905v7.578h1.905c1.064 0 1.877-.364 2.423-1.078.547-.715.812-1.611.812-2.718 0-1.093-.266-2.003-.812-2.718-.546-.714-1.358-1.064-2.423-1.064zM248.835 49.373l-1.723 4.79h3.502l-1.723-4.79zM206.141 13.877c-.826 0-1.442.253-1.877.771-.435.519-.645 1.275-.645 2.27s.225 1.737.658 2.255c.435.519 1.051.785 1.863.785s1.443-.267 1.877-.785c.435-.518.645-1.261.645-2.255s-.21-1.751-.645-2.27c-.432-.518-1.063-.771-1.876-.771zM283.227 13.976h-2.171v2.423h2.171c.406 0 .715-.126.911-.364.195-.238.294-.532.294-.882 0-.322-.099-.603-.294-.841-.211-.225-.505-.336-.911-.336z"/><path class="st0" d="M161 2.423v65h140v-65H161zm74.42 28.922l-2.256 1.766h-.14v-1.205l2.438-1.891h1.204v9.805h-1.19v-8.475h-.056zm-3.489-19.33h2.213v9.805h-2.213v-9.805zm-37.578 0h2.199v7.844h4.454v1.961h-6.653v-9.805zm-19.981 3.179l.435-3.18h1.387v.14l-.868 3.18h-.953v-.14zm-3.409-3.179h1.233v9.805h-1.233v-9.805zm0 18h6.304v1.12h-5.085v3.067h4.65v1.121h-4.65v3.39h5.085v1.106h-6.304v-9.804zm7.033 26.53c-.729.938-1.807 1.4-3.25 1.4-1.442 0-2.521-.462-3.25-1.4-.728-.925-1.092-2.13-1.092-3.628 0-1.499.364-2.703 1.092-3.642.715-.925 1.808-1.387 3.25-1.387 1.443 0 2.521.462 3.25 1.387.729.938 1.093 2.143 1.093 3.642-.001 1.484-.365 2.689-1.093 3.628zm2.495-16.726h-1.219v-9.805h3.614c.994 0 1.779.279 2.367.854.574.574.868 1.316.868 2.241 0 .938-.294 1.709-.882 2.283-.589.574-1.373.868-2.354.868h-2.396v3.559zm6.928 9.316h-4.931v3.292h4.455v1.12h-4.455v4.272h-1.219v-9.805h6.149v1.121zm.36-27.316h-1.162v-7.858h-.057l-3.474 6.178h-.14l-3.475-6.22h-.056v7.9h-1.163v-9.805h1.443l3.306 5.98h.056l3.306-5.98h1.415v9.805zm1.521 18h-1.233v-9.805h1.233v9.805zm2.035-2.941h1.247c.042.616.266 1.093.7 1.442.42.351 1.009.519 1.765.519 1.597 0 2.396-.574 2.396-1.709 0-.448-.154-.798-.448-1.051-.294-.237-.729-.42-1.303-.546l-1.429-.309c-.868-.182-1.513-.49-1.947-.924-.434-.421-.658-.995-.658-1.723 0-.827.294-1.485.896-1.976.603-.477 1.429-.714 2.508-.714 1.05 0 1.891.266 2.521.798.631.547.953 1.247.967 2.115h-1.246c-.028-.546-.225-.994-.603-1.316s-.938-.477-1.667-.477c-1.4 0-2.102.519-2.102 1.569 0 .728.561 1.218 1.667 1.456l1.331.28c1.863.378 2.787 1.316 2.787 2.815 0 .883-.322 1.569-.98 2.06-.658.504-1.555.756-2.689.756-1.162 0-2.073-.28-2.703-.826-.646-.544-.982-1.301-1.01-2.239zm8.22 20.311c-.658.504-1.555.756-2.689.756-1.162 0-2.073-.28-2.703-.826-.645-.547-.98-1.303-1.009-2.241h1.247c.042.616.266 1.093.7 1.442.42.351 1.009.519 1.765.519 1.597 0 2.396-.574 2.396-1.709 0-.448-.154-.799-.448-1.051-.294-.238-.729-.42-1.303-.546l-1.429-.309c-.868-.182-1.513-.49-1.947-.924-.434-.421-.658-.995-.658-1.723 0-.827.294-1.485.896-1.976.603-.477 1.429-.714 2.508-.714 1.05 0 1.891.266 2.521.798.63.547.952 1.247.966 2.115h-1.246c-.028-.546-.225-.994-.603-1.316s-.938-.477-1.667-.477c-1.4 0-2.102.519-2.102 1.569 0 .728.561 1.218 1.667 1.456l1.331.28c1.863.378 2.787 1.316 2.787 2.815.001.886-.322 1.571-.98 2.062zm1.811-18.644c-.728-.925-1.092-2.129-1.092-3.628s.364-2.703 1.092-3.642c.715-.925 1.808-1.387 3.25-1.387 1.443 0 2.521.462 3.25 1.387.729.938 1.093 2.143 1.093 3.642 0 1.484-.364 2.689-1.093 3.628s-1.807 1.4-3.25 1.4-2.522-.462-3.25-1.4zm7.596 10.59h-5.085v3.067h4.65v1.121h-4.65v3.39h5.085v1.106h-6.304v-9.805h6.304v1.121zm.709-28.604c-.826.938-2.003 1.414-3.53 1.414-1.526 0-2.689-.476-3.516-1.414s-1.247-2.144-1.247-3.614.421-2.689 1.247-3.628 1.989-1.4 3.516-1.4 2.704.462 3.53 1.4 1.232 2.157 1.232 3.628-.405 2.676-1.232 3.614zm8.804 37.288h-1.331l-2.577-3.88h-2.382v3.88h-1.219v-9.805h3.881c.966 0 1.736.279 2.283.826.546.546.826 1.261.826 2.115 0 .714-.183 1.316-.561 1.807s-.896.841-1.555 1.022l2.634 3.895v.14zm-.837-19.372c-.757.91-1.835 1.372-3.25 1.372h-3.25v-9.805h3.25c1.373 0 2.451.448 3.222 1.33.771.883 1.148 2.073 1.148 3.572 0 1.443-.378 2.62-1.12 3.531zm-1.143-16.502c-1.526 0-2.689-.476-3.516-1.414s-1.247-2.144-1.247-3.614.421-2.689 1.247-3.628 1.989-1.4 3.516-1.4 2.704.462 3.53 1.4 1.232 2.157 1.232 3.628-.406 2.676-1.232 3.614-2.003 1.414-3.53 1.414zm10.289 12.257v1.121h-4.65v3.39h5.085v1.106h-6.304v-9.805h6.304v1.12h-5.085v3.067h4.65zm-5.314 23.617h-1.233v-9.805h1.233v9.805zm8.948-8.684h-5.085v3.067h4.65v1.121h-4.65v3.39h5.085v1.106h-6.304v-9.805h6.304v1.121zm.553-27.316h-2.605l-3.544-4.062v4.062h-2.199v-9.805h2.199v3.712l3.404-3.712h2.577v.14l-4.217 4.566 4.385 4.959v.14zm7.184 35.37c-.658.504-1.555.756-2.689.756-1.162 0-2.073-.28-2.703-.826-.645-.547-.98-1.303-1.009-2.241h1.247c.042.616.266 1.093.7 1.442.42.351 1.009.519 1.765.519 1.597 0 2.396-.574 2.396-1.709 0-.448-.154-.799-.448-1.051-.294-.238-.729-.42-1.303-.546l-1.429-.309c-.868-.182-1.513-.49-1.947-.924-.434-.421-.658-.995-.658-1.723 0-.827.294-1.485.896-1.976.603-.477 1.429-.714 2.508-.714 1.05 0 1.891.266 2.521.798.63.547.952 1.247.966 2.115h-1.246c-.028-.546-.225-.994-.603-1.316s-.938-.477-1.667-.477c-1.4 0-2.102.519-2.102 1.569 0 .728.561 1.218 1.667 1.456l1.331.28c1.863.378 2.787 1.316 2.787 2.815 0 .886-.322 1.571-.98 2.062zm6.308-35.37h-2.605l-3.613-6.359h-.057v6.359h-2.171v-9.805h2.592l3.613 6.401h.057v-6.401h2.185v9.805zm8.77 36h-1.303l-.925-2.563h-4.286l-.924 2.563h-1.275v-.14l3.601-9.665h1.498l3.614 9.665v.14zm-2.663-35.874c-1.513 0-2.676-.476-3.502-1.414s-1.247-2.144-1.247-3.601c0-1.471.406-2.689 1.233-3.628.826-.938 1.988-1.414 3.516-1.414 1.219 0 2.213.336 2.997 1.008.785.687 1.233 1.527 1.345 2.535h-2.241a1.92 1.92 0 0 0-.63-1.12c-.351-.294-.841-.435-1.471-.435-.812 0-1.429.267-1.863.785-.435.518-.645 1.274-.645 2.269 0 .995.21 1.737.645 2.256.435.518 1.051.784 1.863.784 1.162 0 1.863-.505 2.115-1.499h-1.835v-1.947h4.132v1.106c0 1.303-.406 2.34-1.232 3.124-.827.8-1.877 1.191-3.18 1.191zm10.729 35.117c-.561.505-1.331.757-2.298.757h-4.034v-9.805h3.937c.841 0 1.526.224 2.059.672.533.462.799 1.079.799 1.877 0 .967-.406 1.639-1.232 2.003v.057c1.064.434 1.597 1.218 1.597 2.367-.001.882-.282 1.582-.828 2.072zm1.198-35.243h-2.199v-9.805h7.004v1.961h-4.805v2.087h4.37v1.961h-4.37v3.796zm2.619 32.554c.098.448.266.854.504 1.233.238.378.561.672.967.882s.882.322 1.429.322c1.526 0 2.423-.729 2.676-2.171h1.246c-.14 1.036-.546 1.849-1.204 2.423-.659.589-1.569.883-2.718.883-1.387 0-2.451-.448-3.194-1.358-.756-.911-1.134-2.129-1.134-3.656 0-1.541.378-2.773 1.134-3.684.757-.91 1.821-1.358 3.194-1.358 1.162 0 2.073.308 2.76.91.672.603 1.064 1.442 1.162 2.493h-1.261c-.084-.7-.35-1.247-.784-1.653-.448-.405-1.079-.602-1.877-.602-.547 0-1.022.111-1.429.322a2.45 2.45 0 0 0-.967.882 3.96 3.96 0 0 0-.504 1.233 6.02 6.02 0 0 0-.168 1.456c0 .519.056 1.009.168 1.443zm11.143-33.842c-.826.938-2.003 1.414-3.53 1.414-1.526 0-2.689-.476-3.516-1.414s-1.247-2.144-1.247-3.614.421-2.689 1.247-3.628 1.989-1.4 3.516-1.4 2.704.462 3.53 1.4 1.232 2.157 1.232 3.628-.405 2.676-1.232 3.614zm10.863 1.288h-2.577l-2.115-3.46h-1.373v3.46h-2.199v-9.805h4.482c1.009 0 1.821.308 2.438.91.603.603.91 1.345.91 2.213 0 .7-.168 1.303-.504 1.821a3.023 3.023 0 0 1-1.429 1.135l2.367 3.586v.14z"/><path class="st0" d="M184.862 33.11c0-.631-.183-1.121-.561-1.472-.378-.35-.911-.518-1.569-.518h-2.241v4.02h2.241c.687 0 1.205-.182 1.583-.532.364-.349.547-.84.547-1.498zM206.969 37.69c.49-.742.729-1.667.729-2.773s-.238-2.031-.729-2.773c-.49-.742-1.274-1.106-2.354-1.106-.561 0-1.051.111-1.457.322-.42.21-.742.504-.966.882a4.157 4.157 0 0 0-.49 1.219 6.023 6.023 0 0 0-.168 1.457c0 1.106.252 2.031.742 2.773s1.261 1.106 2.339 1.106c1.08 0 1.864-.364 2.354-1.107zM272.729 13.877c-.826 0-1.442.253-1.877.771-.435.519-.645 1.275-.645 2.27s.225 1.737.658 2.255c.435.519 1.051.785 1.863.785s1.443-.267 1.877-.785c.435-.518.645-1.261.645-2.255s-.21-1.751-.645-2.27c-.433-.518-1.063-.771-1.876-.771z"/></g><path class="st3" d="M188.346 94.769h5.757v5.757h-5.757z"/></g><path class="st1" d="M71 446.806c0-44.183 35.817-80 80-80s80 35.817 80 80M216 710.476l15-15 15 15M127 771.814c-32.457-10.194-56-40.516-56-76.337M231 695.476c0 35.821-23.543 66.143-56 76.337"/><g><path class="st1" d="M175 743.476v64h-48v-49.533l14.467-14.467z"/><path class="st2" d="M158.229 775.476l-12.529-7.233v14.467z"/><path class="st1" d="M141.467 748.298v9.645h-9.645"/></g></svg>