<?xml version="1.0" encoding="utf-8"?>
<!-- Generator: Adobe Illustrator 22.1.0, SVG Export Plug-In . SVG Version: 6.00 Build 0)  -->
<svg version="1.1" id="Layer_1" xmlns="http://www.w3.org/2000/svg" xmlns:xlink="http://www.w3.org/1999/xlink" x="0px" y="0px"
	 viewBox="0 0 1724 480" style="enable-background:new 0 0 1724 480;" xml:space="preserve">
<style type="text/css">
	.st0{fill:none;stroke:#2E343A;stroke-miterlimit:10;}
	.st1{fill:#2E343A;stroke:#2E343A;stroke-linejoin:round;stroke-miterlimit:10;}
	.st2{fill:#2E343A;stroke:#2E343A;stroke-linejoin:bevel;stroke-miterlimit:10;}
	.st3{fill:#2E343A;stroke:#2E343A;stroke-miterlimit:10;}
	.st4{fill:#2E343A;}
</style>
<g id="_x30_1guys">
	<g>
		<g>
			<polyline class="st0" points="167.526,339.263 167.526,212.947 133.842,212.947 133.842,193.211 118.053,193.211 
				118.053,212.947 76.474,212.947 76.474,291.895 86.474,291.895 86.474,471.5 94.368,471.5 117,321.5 			"/>
			<polyline class="st0" points="127,321.5 149.632,471.5 157.526,471.5 157.526,339.263 			"/>
			<rect x="118.053" y="171.5" class="st0" width="19.737" height="21.711"/>
			<polyline class="st0" points="110.158,274.132 110.158,254.395 125.947,254.395 125.947,274.132 			"/>
			<polygon class="st1" points="133.842,201.105 118.053,193.211 133.842,193.211 			"/>
			<polygon class="st2" points="86.474,299.789 86.474,291.895 125.947,291.895 			"/>
			<line class="st0" x1="157.526" y1="339.263" x2="157.526" y2="274.132"/>
			<polyline class="st0" points="86.474,291.895 125.947,291.895 125.947,274.132 86.474,274.132 			"/>
			<circle class="st3" cx="118.053" cy="260.316" r="0.987"/>
			<line class="st0" x1="242" y1="471.5" x2="2" y2="471.5"/>
		</g>
		<g>
			<path class="st4" d="M82.49,82.695c0-0.738-0.216-1.332-0.63-1.746c-0.433-0.414-1.044-0.612-1.818-0.612h-3.331v4.735h3.331
				c0.792,0,1.404-0.216,1.818-0.631C82.274,84.027,82.49,83.451,82.49,82.695z"/>
			<polygon class="st4" points="123.741,80.643 121.526,86.801 126.027,86.801 123.813,80.643 			"/>
			<path class="st4" d="M79.32,55.337h-2.448v9.741h2.448c1.369,0,2.413-0.468,3.115-1.386c0.702-0.918,1.044-2.071,1.044-3.493
				c0-1.404-0.342-2.575-1.044-3.493S80.689,55.337,79.32,55.337z"/>
			<path class="st4" d="M28.662,80.211c-0.721,0-1.351,0.144-1.873,0.414c-0.54,0.27-0.954,0.648-1.242,1.134
				c-0.288,0.486-0.504,1.009-0.63,1.566c-0.145,0.576-0.216,1.207-0.216,1.873c0,1.422,0.323,2.61,0.954,3.565
				c0.63,0.954,1.62,1.422,3.007,1.422s2.395-0.468,3.024-1.422c0.631-0.955,0.937-2.144,0.937-3.565
				c0-1.423-0.306-2.611-0.937-3.565C31.057,80.679,30.049,80.211,28.662,80.211z"/>
			<path class="st4" d="M69.972,63.763c0.631-0.954,0.937-2.143,0.937-3.565s-0.306-2.611-0.937-3.565
				c-0.63-0.954-1.638-1.422-3.024-1.422c-0.721,0-1.351,0.144-1.873,0.415c-0.54,0.27-0.954,0.648-1.242,1.134
				c-0.288,0.486-0.504,1.008-0.63,1.566c-0.145,0.576-0.216,1.206-0.216,1.873c0,1.422,0.323,2.611,0.954,3.565
				c0.63,0.954,1.62,1.422,3.007,1.422S69.342,64.717,69.972,63.763z"/>
			<polygon class="st4" points="51.804,31.723 50.273,36.621 53.406,36.621 51.876,31.723 			"/>
			<path class="st4" d="M41.637,57.875c0-0.81-0.233-1.44-0.72-1.891s-1.171-0.666-2.017-0.666H36.02v5.167H38.9
				c0.882,0,1.548-0.234,2.034-0.685C41.403,59.352,41.637,58.722,41.637,57.875z"/>
			<path class="st4" d="M2,8.5v103h240V8.5H2z M103.415,56.327l3.133-2.431h1.549V66.5h-1.53V55.607h-0.072l-2.899,2.269h-0.18
				V56.327z M87.847,53.896h8.103v1.44h-6.536v3.943h5.978v1.44h-5.978v4.357h6.536V66.5h-8.103V53.896z M70.866,28.896h9.002v2.521
				h-6.176v2.323h5.618v2.521h-5.618v2.737h6.176V41.5h-9.002V28.896z M57.299,28.896h3.224l2.917,9.236h0.071l2.863-9.236h3.277
				v0.18L65.203,41.5h-3.402l-4.502-12.424V28.896z M33.845,28.896h2.826v4.825h5.06v-4.825h2.827V41.5H41.73v-5.24h-5.06v5.24
				h-2.826V28.896z M23.801,28.896h1.584V41.5h-1.584V28.896z M23.801,53.896h8.103v1.44h-6.536v3.943h5.978v1.44h-5.978v4.357
				h6.536V66.5h-8.103V53.896z M32.839,89.861c-0.936,1.207-2.322,1.801-4.177,1.801s-3.241-0.594-4.178-1.801
				c-0.936-1.188-1.404-2.736-1.404-4.663s0.469-3.476,1.404-4.682c0.919-1.188,2.323-1.782,4.178-1.782s3.241,0.594,4.177,1.782
				c0.937,1.206,1.404,2.755,1.404,4.682C34.243,87.106,33.775,88.655,32.839,89.861z M36.02,66.5h-1.566V53.896h4.646
				c1.278,0,2.286,0.36,3.043,1.098c0.738,0.738,1.116,1.692,1.116,2.881c0,1.207-0.378,2.197-1.135,2.935
				c-0.756,0.738-1.765,1.116-3.024,1.116H36.02V66.5z M44.926,80.337h-6.338v4.231h5.726v1.44h-5.726V91.5h-1.566V78.896h7.904
				V80.337z M47.313,66.5h-1.584V53.896h1.584V66.5z M48.761,41.5h-2.989v-0.18l4.321-12.423h3.619l4.34,12.423v0.18h-3.133
				l-0.738-2.395h-4.682L48.761,41.5z M49.901,62.719h1.603c0.054,0.792,0.342,1.404,0.9,1.854c0.54,0.45,1.296,0.667,2.269,0.667
				c2.053,0,3.079-0.738,3.079-2.197c0-0.576-0.198-1.026-0.576-1.351c-0.379-0.306-0.937-0.54-1.675-0.702l-1.837-0.396
				c-1.116-0.234-1.944-0.63-2.503-1.188c-0.558-0.54-0.846-1.278-0.846-2.214c0-1.062,0.378-1.909,1.152-2.539
				c0.774-0.612,1.837-0.918,3.223-0.918c1.351,0,2.431,0.342,3.241,1.026c0.811,0.702,1.225,1.602,1.242,2.719h-1.603
				c-0.036-0.702-0.288-1.278-0.774-1.693c-0.485-0.414-1.206-0.612-2.143-0.612c-1.8,0-2.7,0.666-2.7,2.017
				c0,0.936,0.72,1.566,2.143,1.873l1.71,0.36c2.396,0.486,3.583,1.692,3.583,3.619c0,1.134-0.414,2.017-1.26,2.647
				c-0.847,0.648-1.999,0.972-3.457,0.972c-1.494,0-2.665-0.36-3.476-1.062C50.369,64.897,49.938,63.925,49.901,62.719z
				 M60.531,90.689c-0.847,0.648-1.999,0.973-3.457,0.973c-1.495,0-2.665-0.36-3.476-1.062c-0.828-0.702-1.26-1.675-1.296-2.881
				h1.603c0.054,0.792,0.342,1.404,0.9,1.854c0.54,0.45,1.296,0.666,2.269,0.666c2.053,0,3.079-0.738,3.079-2.196
				c0-0.576-0.198-1.026-0.576-1.351c-0.379-0.306-0.937-0.54-1.675-0.702l-1.837-0.396c-1.116-0.233-1.944-0.63-2.502-1.188
				c-0.559-0.541-0.847-1.278-0.847-2.215c0-1.062,0.378-1.909,1.152-2.539c0.774-0.612,1.837-0.918,3.223-0.918
				c1.351,0,2.431,0.342,3.241,1.026c0.811,0.702,1.225,1.603,1.242,2.719h-1.603c-0.036-0.702-0.288-1.278-0.774-1.692
				c-0.485-0.414-1.206-0.612-2.143-0.612c-1.8,0-2.7,0.666-2.7,2.017c0,0.937,0.72,1.566,2.143,1.872l1.71,0.36
				c2.396,0.486,3.583,1.692,3.583,3.619C61.791,89.178,61.377,90.06,60.531,90.689z M62.77,64.861
				c-0.936-1.188-1.404-2.737-1.404-4.663c0-1.927,0.469-3.475,1.404-4.682c0.919-1.188,2.323-1.782,4.178-1.782
				s3.241,0.594,4.177,1.782c0.937,1.207,1.404,2.755,1.404,4.682c0,1.908-0.468,3.457-1.404,4.663
				c-0.936,1.207-2.322,1.801-4.177,1.801S63.706,66.068,62.77,64.861z M72.595,80.337h-6.536v3.943h5.978v1.44h-5.978v4.356h6.536
				V91.5h-8.103V78.896h8.103V80.337z M84.795,91.5h-1.71l-3.313-4.987h-3.061V91.5h-1.566V78.896h4.987
				c1.242,0,2.232,0.359,2.935,1.062c0.702,0.702,1.062,1.62,1.062,2.719c0,0.918-0.234,1.692-0.72,2.322
				c-0.486,0.63-1.152,1.08-1.999,1.314l3.385,5.006V91.5z M83.66,64.735c-0.973,1.17-2.359,1.765-4.178,1.765h-4.177V53.896h4.177
				c1.765,0,3.151,0.576,4.142,1.71s1.477,2.665,1.477,4.591C85.101,62.053,84.614,63.565,83.66,64.735z M88.618,91.5h-1.584V78.896
				h1.584V91.5z M100.092,80.337h-6.536v3.943h5.978v1.44h-5.978v4.356h6.536V91.5h-8.103V78.896h8.103V80.337z M110.009,90.689
				c-0.847,0.648-1.999,0.973-3.457,0.973c-1.494,0-2.665-0.36-3.476-1.062c-0.828-0.702-1.26-1.675-1.296-2.881h1.603
				c0.054,0.792,0.342,1.404,0.9,1.854c0.54,0.45,1.296,0.666,2.269,0.666c2.053,0,3.079-0.738,3.079-2.196
				c0-0.576-0.198-1.026-0.576-1.351c-0.379-0.306-0.937-0.54-1.675-0.702l-1.837-0.396c-1.116-0.233-1.944-0.63-2.503-1.188
				c-0.558-0.541-0.846-1.278-0.846-2.215c0-1.062,0.378-1.909,1.152-2.539c0.774-0.612,1.837-0.918,3.223-0.918
				c1.351,0,2.431,0.342,3.241,1.026c0.811,0.702,1.225,1.603,1.242,2.719h-1.603c-0.036-0.702-0.288-1.278-0.774-1.692
				c-0.485-0.414-1.206-0.612-2.143-0.612c-1.8,0-2.7,0.666-2.7,2.017c0,0.937,0.72,1.566,2.143,1.872l1.71,0.36
				c2.396,0.486,3.583,1.692,3.583,3.619C111.269,89.178,110.854,90.06,110.009,90.689z M129.395,91.5h-1.674l-1.188-3.295h-5.51
				l-1.188,3.295h-1.639v-0.18l4.628-12.424h1.926l4.646,12.424V91.5z M139.737,90.527c-0.721,0.648-1.711,0.973-2.953,0.973h-5.186
				V78.896h5.06c1.08,0,1.962,0.288,2.646,0.864c0.685,0.594,1.026,1.386,1.026,2.412c0,1.243-0.522,2.107-1.585,2.575v0.072
				c1.369,0.558,2.053,1.566,2.053,3.043C140.799,88.997,140.439,89.897,139.737,90.527z M144.614,87.07
				c0.126,0.576,0.342,1.099,0.648,1.585c0.306,0.486,0.72,0.864,1.242,1.134c0.521,0.271,1.134,0.414,1.836,0.414
				c1.963,0,3.115-0.936,3.439-2.79h1.603c-0.18,1.332-0.702,2.376-1.549,3.114c-0.846,0.757-2.017,1.135-3.493,1.135
				c-1.782,0-3.15-0.576-4.104-1.746c-0.973-1.171-1.459-2.737-1.459-4.7c0-1.98,0.486-3.564,1.459-4.735
				c0.972-1.17,2.341-1.746,4.104-1.746c1.495,0,2.665,0.396,3.548,1.17c0.864,0.774,1.368,1.854,1.494,3.205h-1.62
				c-0.108-0.9-0.45-1.603-1.009-2.125c-0.576-0.521-1.387-0.773-2.413-0.773c-0.702,0-1.314,0.144-1.836,0.414
				c-0.522,0.27-0.937,0.648-1.242,1.134c-0.307,0.486-0.522,1.026-0.648,1.585c-0.145,0.576-0.216,1.206-0.216,1.872
				C144.398,85.883,144.47,86.513,144.614,87.07z"/>
			<path class="st4" d="M138.08,83.758c0.433-0.342,0.648-0.883,0.648-1.585c0-0.594-0.198-1.062-0.576-1.386
				c-0.396-0.324-0.954-0.486-1.675-0.486h-3.331v3.997h3.134C137.036,84.298,137.63,84.118,138.08,83.758z"/>
			<path class="st4" d="M136.604,85.666h-3.457v4.411h3.457c0.774,0,1.387-0.197,1.873-0.594c0.468-0.378,0.702-0.918,0.702-1.62
				c0-0.721-0.216-1.261-0.666-1.639S137.414,85.666,136.604,85.666z"/>
			<rect x="22" y="131.632" class="st4" width="19.737" height="19.737"/>
			<rect x="51.737" y="161.368" class="st4" width="9.868" height="9.868"/>
		</g>
	</g>
	<g>
		<g>
			<polyline class="st0" points="1647.526,339.263 1647.526,212.947 1613.842,212.947 1613.842,193.211 1598.053,193.211 
				1598.053,212.947 1556.474,212.947 1556.474,291.895 1566.474,291.895 1566.474,471.5 1574.368,471.5 1597,321.5 			"/>
			<polyline class="st0" points="1607,321.5 1629.632,471.5 1637.526,471.5 1637.526,339.263 			"/>
			<rect x="1594.105" y="171.5" class="st0" width="19.737" height="21.711"/>
			<polyline class="st0" points="1590.158,274.132 1590.158,254.395 1605.947,254.395 1605.947,274.132 			"/>
			<polygon class="st1" points="1598.053,201.105 1613.842,193.211 1598.053,193.211 			"/>
			<polygon class="st2" points="1566.474,299.789 1566.474,291.895 1605.947,291.895 			"/>
			<line class="st0" x1="1637.526" y1="339.263" x2="1637.526" y2="274.132"/>
			<polyline class="st0" points="1566.474,291.895 1605.947,291.895 1605.947,274.132 1566.474,274.132 			"/>
			<circle class="st3" cx="1598.053" cy="260.316" r="0.987"/>
			<line class="st0" x1="1722" y1="471.5" x2="1482" y2="471.5"/>
		</g>
		<g>
			<polygon class="st4" points="1603.741,80.643 1601.526,86.801 1606.027,86.801 1603.813,80.643 			"/>
			<path class="st4" d="M1618.08,83.758c0.433-0.342,0.648-0.883,0.648-1.585c0-0.594-0.198-1.062-0.576-1.386
				c-0.396-0.324-0.954-0.486-1.675-0.486h-3.331v3.997h3.134C1617.036,84.298,1617.63,84.118,1618.08,83.758z"/>
			<path class="st4" d="M1549.972,63.763c0.631-0.954,0.937-2.143,0.937-3.565s-0.306-2.611-0.937-3.565
				c-0.63-0.954-1.638-1.422-3.024-1.422c-0.721,0-1.351,0.144-1.873,0.415c-0.54,0.27-0.954,0.648-1.242,1.134
				c-0.288,0.486-0.504,1.008-0.63,1.566c-0.145,0.576-0.216,1.206-0.216,1.873c0,1.422,0.323,2.611,0.954,3.565
				c0.63,0.954,1.62,1.422,3.007,1.422S1549.342,64.717,1549.972,63.763z"/>
			<path class="st4" d="M1562.242,31.291c-1.062,0-1.854,0.324-2.413,0.99c-0.558,0.666-0.828,1.639-0.828,2.917
				s0.288,2.232,0.847,2.899c0.558,0.666,1.351,1.008,2.395,1.008s1.854-0.342,2.413-1.008c0.558-0.667,0.828-1.621,0.828-2.899
				s-0.271-2.251-0.828-2.917C1564.097,31.615,1563.286,31.291,1562.242,31.291z"/>
			<path class="st4" d="M1616.604,85.666h-3.457v4.411h3.457c0.774,0,1.387-0.197,1.873-0.594c0.468-0.378,0.702-0.918,0.702-1.62
				c0-0.721-0.216-1.261-0.666-1.639S1617.414,85.666,1616.604,85.666z"/>
			<path class="st4" d="M1562.49,82.695c0-0.738-0.216-1.332-0.63-1.746c-0.433-0.414-1.044-0.612-1.818-0.612h-3.331v4.735h3.331
				c0.792,0,1.404-0.216,1.818-0.631C1562.274,84.027,1562.49,83.451,1562.49,82.695z"/>
			<path class="st4" d="M1559.32,55.337h-2.448v9.741h2.448c1.369,0,2.413-0.468,3.115-1.386c0.702-0.918,1.044-2.071,1.044-3.493
				c0-1.404-0.342-2.575-1.044-3.493S1560.689,55.337,1559.32,55.337z"/>
			<path class="st4" d="M1548.952,31.291c-1.062,0-1.854,0.324-2.413,0.99c-0.558,0.666-0.828,1.639-0.828,2.917
				s0.288,2.232,0.847,2.899c0.558,0.666,1.35,1.008,2.395,1.008c1.044,0,1.854-0.342,2.412-1.008
				c0.559-0.667,0.829-1.621,0.829-2.899s-0.271-2.251-0.829-2.917C1550.807,31.615,1549.996,31.291,1548.952,31.291z"/>
			<path class="st4" d="M1647.913,31.417h-2.791v3.115h2.791c0.522,0,0.918-0.162,1.171-0.468c0.252-0.306,0.378-0.685,0.378-1.134
				c0-0.415-0.126-0.774-0.378-1.081C1648.813,31.561,1648.436,31.417,1647.913,31.417z"/>
			<path class="st4" d="M1521.637,57.875c0-0.81-0.233-1.44-0.72-1.891s-1.171-0.666-2.017-0.666h-2.881v5.167h2.881
				c0.882,0,1.548-0.234,2.034-0.685C1521.403,59.352,1521.637,58.722,1521.637,57.875z"/>
			<path class="st4" d="M1634.437,31.291c-1.062,0-1.854,0.324-2.413,0.99c-0.558,0.666-0.828,1.639-0.828,2.917
				s0.288,2.232,0.847,2.899c0.558,0.666,1.35,1.008,2.395,1.008c1.044,0,1.854-0.342,2.412-1.008
				c0.559-0.667,0.829-1.621,0.829-2.899s-0.271-2.251-0.829-2.917C1636.291,31.615,1635.48,31.291,1634.437,31.291z"/>
			<path class="st4" d="M1482,8.5v103h240V8.5H1482z M1586.494,55.607l-2.899,2.269h-0.18v-1.548l3.133-2.431h1.549V66.5h-1.53
				V55.607H1586.494z M1582.049,28.896h2.845V41.5h-2.845V28.896z M1533.818,28.896h2.826v10.083h5.726V41.5h-8.552V28.896z
				 M1508.155,32.983l0.559-4.087h1.782v0.18l-1.116,4.087h-1.225V32.983z M1503.801,28.896h1.584V41.5h-1.584V28.896z
				 M1503.801,53.896h8.103v1.44h-6.536v3.943h5.978v1.44h-5.978v4.357h6.536V66.5h-8.103V53.896z M1512.839,89.861
				c-0.936,1.207-2.322,1.801-4.177,1.801s-3.241-0.594-4.178-1.801c-0.936-1.188-1.404-2.736-1.404-4.663s0.469-3.476,1.404-4.682
				c0.919-1.188,2.323-1.782,4.178-1.782s3.241,0.594,4.177,1.782c0.937,1.206,1.404,2.755,1.404,4.682
				C1514.243,87.106,1513.775,88.655,1512.839,89.861z M1516.02,66.5h-1.566V53.896h4.646c1.278,0,2.286,0.36,3.043,1.098
				c0.738,0.738,1.116,1.692,1.116,2.881c0,1.207-0.378,2.197-1.135,2.935c-0.756,0.738-1.765,1.116-3.024,1.116h-3.079V66.5z
				 M1524.926,80.337h-6.338v4.231h5.726v1.44h-5.726V91.5h-1.566V78.896h7.904V80.337z M1525.361,41.5h-1.494V31.399h-0.072
				l-4.465,7.94h-0.181l-4.465-7.995h-0.072V41.5h-1.494V28.896h1.854l4.249,7.688h0.072l4.249-7.688h1.818V41.5z M1527.313,66.5
				h-1.584V53.896h1.584V66.5z M1529.901,62.719h1.603c0.054,0.792,0.342,1.404,0.9,1.854c0.54,0.45,1.296,0.667,2.269,0.667
				c2.053,0,3.079-0.738,3.079-2.197c0-0.576-0.198-1.026-0.576-1.351c-0.379-0.306-0.937-0.54-1.675-0.702l-1.837-0.396
				c-1.116-0.234-1.944-0.63-2.503-1.188c-0.558-0.54-0.846-1.278-0.846-2.214c0-1.062,0.378-1.909,1.152-2.539
				c0.774-0.612,1.837-0.918,3.223-0.918c1.351,0,2.431,0.342,3.241,1.026c0.811,0.702,1.225,1.602,1.242,2.719h-1.603
				c-0.036-0.702-0.288-1.278-0.774-1.693c-0.485-0.414-1.206-0.612-2.143-0.612c-1.8,0-2.7,0.666-2.7,2.017
				c0,0.936,0.72,1.566,2.143,1.873l1.71,0.36c2.396,0.486,3.583,1.692,3.583,3.619c0,1.134-0.414,2.017-1.26,2.647
				c-0.847,0.648-1.999,0.972-3.457,0.972c-1.494,0-2.665-0.36-3.476-1.062C1530.369,64.897,1529.938,63.925,1529.901,62.719z
				 M1540.531,90.689c-0.847,0.648-1.999,0.973-3.457,0.973c-1.495,0-2.665-0.36-3.476-1.062c-0.828-0.702-1.26-1.675-1.296-2.881
				h1.603c0.054,0.792,0.342,1.404,0.9,1.854c0.54,0.45,1.296,0.666,2.269,0.666c2.053,0,3.079-0.738,3.079-2.196
				c0-0.576-0.198-1.026-0.576-1.351c-0.379-0.306-0.937-0.54-1.675-0.702l-1.837-0.396c-1.116-0.233-1.944-0.63-2.502-1.188
				c-0.559-0.541-0.847-1.278-0.847-2.215c0-1.062,0.378-1.909,1.152-2.539c0.774-0.612,1.837-0.918,3.223-0.918
				c1.351,0,2.431,0.342,3.241,1.026c0.811,0.702,1.225,1.603,1.242,2.719h-1.603c-0.036-0.702-0.288-1.278-0.774-1.692
				c-0.485-0.414-1.206-0.612-2.143-0.612c-1.8,0-2.7,0.666-2.7,2.017c0,0.937,0.72,1.566,2.143,1.872l1.71,0.36
				c2.396,0.486,3.583,1.692,3.583,3.619C1541.791,89.178,1541.377,90.06,1540.531,90.689z M1542.77,64.861
				c-0.936-1.188-1.404-2.737-1.404-4.663c0-1.927,0.469-3.475,1.404-4.682c0.919-1.188,2.323-1.782,4.178-1.782
				s3.241,0.594,4.177,1.782c0.937,1.207,1.404,2.755,1.404,4.682c0,1.908-0.468,3.457-1.404,4.663
				c-0.936,1.207-2.322,1.801-4.177,1.801S1543.706,66.068,1542.77,64.861z M1552.595,80.337h-6.536v3.943h5.978v1.44h-5.978v4.356
				h6.536V91.5h-8.103V78.896h8.103V80.337z M1553.489,39.844c-1.062,1.206-2.574,1.818-4.537,1.818s-3.457-0.612-4.52-1.818
				c-1.062-1.207-1.603-2.755-1.603-4.646s0.54-3.457,1.603-4.664s2.557-1.8,4.52-1.8s3.475,0.594,4.537,1.8
				s1.585,2.773,1.585,4.664S1554.552,38.637,1553.489,39.844z M1564.795,91.5h-1.71l-3.313-4.987h-3.061V91.5h-1.566V78.896h4.987
				c1.242,0,2.232,0.359,2.935,1.062c0.702,0.702,1.062,1.62,1.062,2.719c0,0.918-0.234,1.692-0.72,2.322
				c-0.486,0.63-1.152,1.08-1.999,1.314l3.385,5.006V91.5z M1563.66,64.735c-0.973,1.17-2.359,1.765-4.178,1.765h-4.177V53.896
				h4.177c1.765,0,3.151,0.576,4.142,1.71s1.477,2.665,1.477,4.591C1565.101,62.053,1564.614,63.565,1563.66,64.735z
				 M1562.242,41.662c-1.963,0-3.457-0.612-4.52-1.818c-1.062-1.207-1.603-2.755-1.603-4.646s0.54-3.457,1.603-4.664
				s2.557-1.8,4.52-1.8s3.475,0.594,4.537,1.8s1.585,2.773,1.585,4.664s-0.522,3.439-1.585,4.646
				C1565.717,41.05,1564.205,41.662,1562.242,41.662z M1575.391,59.28v1.44h-5.978v4.357h6.536V66.5h-8.103V53.896h8.103v1.44
				h-6.536v3.943H1575.391z M1568.618,91.5h-1.584V78.896h1.584V91.5z M1580.092,80.337h-6.536v3.943h5.978v1.44h-5.978v4.356h6.536
				V91.5h-8.103V78.896h8.103V80.337z M1580.832,41.5h-3.349l-4.556-5.222V41.5h-2.826V28.896h2.826v4.771l4.376-4.771h3.312v0.18
				l-5.42,5.87l5.636,6.374V41.5z M1590.009,90.689c-0.847,0.648-1.999,0.973-3.457,0.973c-1.494,0-2.665-0.36-3.476-1.062
				c-0.828-0.702-1.26-1.675-1.296-2.881h1.603c0.054,0.792,0.342,1.404,0.9,1.854c0.54,0.45,1.296,0.666,2.269,0.666
				c2.053,0,3.079-0.738,3.079-2.196c0-0.576-0.198-1.026-0.576-1.351c-0.379-0.306-0.937-0.54-1.675-0.702l-1.837-0.396
				c-1.116-0.233-1.944-0.63-2.503-1.188c-0.558-0.541-0.846-1.278-0.846-2.215c0-1.062,0.378-1.909,1.152-2.539
				c0.774-0.612,1.837-0.918,3.223-0.918c1.351,0,2.431,0.342,3.241,1.026c0.811,0.702,1.225,1.603,1.242,2.719h-1.603
				c-0.036-0.702-0.288-1.278-0.774-1.692c-0.485-0.414-1.206-0.612-2.143-0.612c-1.8,0-2.7,0.666-2.7,2.017
				c0,0.937,0.72,1.566,2.143,1.872l1.71,0.36c2.396,0.486,3.583,1.692,3.583,3.619C1591.269,89.178,1590.854,90.06,1590.009,90.689
				z M1598.138,41.5h-3.349l-4.646-8.174h-0.072V41.5h-2.79V28.896h3.331l4.645,8.228h0.072v-8.228h2.809V41.5z M1609.395,91.5
				h-1.674l-1.188-3.295h-5.51l-1.188,3.295h-1.639v-0.18l4.628-12.424h1.926l4.646,12.424V91.5z M1605.97,41.662
				c-1.944,0-3.438-0.612-4.501-1.818c-1.062-1.207-1.603-2.755-1.603-4.627c0-1.891,0.522-3.457,1.585-4.664
				c1.062-1.207,2.557-1.818,4.519-1.818c1.566,0,2.846,0.432,3.854,1.296c1.009,0.882,1.585,1.962,1.729,3.259h-2.881
				c-0.108-0.576-0.378-1.062-0.811-1.44c-0.45-0.378-1.08-0.558-1.891-0.558c-1.044,0-1.836,0.342-2.395,1.008
				c-0.558,0.666-0.828,1.638-0.828,2.917c0,1.278,0.271,2.232,0.828,2.899c0.559,0.666,1.351,1.008,2.395,1.008
				c1.495,0,2.396-0.648,2.719-1.926h-2.358v-2.503h5.312v1.422c0,1.675-0.521,3.007-1.584,4.016
				C1608.995,41.158,1607.645,41.662,1605.97,41.662z M1619.737,90.527c-0.721,0.648-1.711,0.973-2.953,0.973h-5.186V78.896h5.06
				c1.08,0,1.962,0.288,2.646,0.864c0.685,0.594,1.026,1.386,1.026,2.412c0,1.243-0.522,2.107-1.585,2.575v0.072
				c1.369,0.558,2.053,1.566,2.053,3.043C1620.799,88.997,1620.439,89.897,1619.737,90.527z M1621.305,41.5h-2.826V28.896h9.002
				v2.521h-6.176V34.1h5.618v2.521h-5.618V41.5z M1624.614,87.07c0.126,0.576,0.342,1.099,0.648,1.585
				c0.306,0.486,0.72,0.864,1.242,1.134c0.521,0.271,1.134,0.414,1.836,0.414c1.963,0,3.115-0.936,3.439-2.79h1.603
				c-0.18,1.332-0.702,2.376-1.549,3.114c-0.846,0.757-2.017,1.135-3.493,1.135c-1.782,0-3.15-0.576-4.104-1.746
				c-0.973-1.171-1.459-2.737-1.459-4.7c0-1.98,0.486-3.564,1.459-4.735c0.972-1.17,2.341-1.746,4.104-1.746
				c1.495,0,2.665,0.396,3.548,1.17c0.864,0.774,1.368,1.854,1.494,3.205h-1.62c-0.108-0.9-0.45-1.603-1.009-2.125
				c-0.576-0.521-1.387-0.773-2.413-0.773c-0.702,0-1.314,0.144-1.836,0.414c-0.522,0.27-0.937,0.648-1.242,1.134
				c-0.307,0.486-0.522,1.026-0.648,1.585c-0.145,0.576-0.216,1.206-0.216,1.872C1624.398,85.883,1624.47,86.513,1624.614,87.07z
				 M1638.974,39.844c-1.062,1.206-2.574,1.818-4.537,1.818s-3.457-0.612-4.52-1.818c-1.062-1.207-1.603-2.755-1.603-4.646
				s0.54-3.457,1.603-4.664s2.557-1.8,4.52-1.8s3.475,0.594,4.537,1.8s1.585,2.773,1.585,4.664S1640.036,38.637,1638.974,39.844z
				 M1652.919,41.5h-3.313l-2.719-4.447h-1.765V41.5h-2.826V28.896h5.762c1.296,0,2.34,0.396,3.133,1.17
				c0.774,0.774,1.17,1.729,1.17,2.845c0,0.9-0.216,1.674-0.648,2.34c-0.449,0.667-1.062,1.152-1.836,1.458l3.043,4.609V41.5z"/>
			<path class="st4" d="M1508.662,80.211c-0.721,0-1.351,0.144-1.873,0.414c-0.54,0.27-0.954,0.648-1.242,1.134
				c-0.288,0.486-0.504,1.009-0.63,1.566c-0.145,0.576-0.216,1.207-0.216,1.873c0,1.422,0.323,2.61,0.954,3.565
				c0.63,0.954,1.62,1.422,3.007,1.422s2.395-0.468,3.024-1.422c0.631-0.955,0.937-2.144,0.937-3.565
				c0-1.423-0.306-2.611-0.937-3.565C1511.057,80.679,1510.049,80.211,1508.662,80.211z"/>
			<rect x="1502" y="131.632" class="st4" width="19.737" height="19.737"/>
			<rect x="1531.737" y="161.368" class="st4" width="9.868" height="9.868"/>
		</g>
	</g>
</g>
<g id="_x30_2phones">
	<g>
		<rect x="1302" y="198.773" class="st0" width="140" height="245.455"/>
		<polyline class="st0" points="1442,457.864 1442,471.5 1302,471.5 1302,457.864 		"/>
		<polyline class="st0" points="1302,185.136 1302,171.5 1442,171.5 1442,185.136 		"/>
		<circle class="st0" cx="1372" cy="457.864" r="6.818"/>
		<g>
			<circle class="st0" cx="1354.955" cy="185.136" r="3.409"/>
			<line class="st0" x1="1365.182" y1="185.136" x2="1392.455" y2="185.136"/>
		</g>
	</g>
	<g>
		<g>
			<rect x="282" y="198.773" class="st0" width="140" height="245.455"/>
			<polyline class="st0" points="422,457.864 422,471.5 282,471.5 282,457.864 			"/>
			<polyline class="st0" points="282,185.136 282,171.5 422,171.5 422,185.136 			"/>
			<circle class="st0" cx="352" cy="457.864" r="6.818"/>
			<g>
				<circle class="st0" cx="334.955" cy="185.136" r="3.409"/>
				<line class="st0" x1="345.182" y1="185.136" x2="372.455" y2="185.136"/>
			</g>
		</g>
		<g>
			<polygon class="st0" points="401.769,255.142 401.769,387.858 302.231,387.858 302.231,285.142 332.231,255.142 			"/>
			<polygon class="st3" points="366.99,321.5 341.01,306.5 341.01,336.5 			"/>
			<polyline class="st0" points="332.231,265.142 332.231,285.142 312.231,285.142 			"/>
		</g>
	</g>
</g>
<g id="_x30_3ssids">
	<g>
		<rect x="282" y="8.5" class="st0" width="140" height="103"/>
		<g>
			<path class="st0" d="M344.929,152.964c3.905-3.905,10.237-3.905,14.142,0"/>
			<path class="st0" d="M337.858,145.893c7.81-7.81,20.474-7.81,28.284,0"/>
			<path class="st0" d="M330.787,138.822c11.716-11.716,30.711-11.716,42.426,0"/>
		</g>
		<g>
			<path class="st4" d="M304.196,40.6c-0.828-0.702-1.26-1.674-1.296-2.881h1.603c0.054,0.792,0.342,1.404,0.9,1.854
				c0.54,0.45,1.296,0.667,2.269,0.667c2.053,0,3.079-0.738,3.079-2.197c0-0.576-0.198-1.026-0.576-1.351
				c-0.379-0.306-0.937-0.54-1.675-0.702l-1.837-0.396c-1.116-0.234-1.944-0.63-2.502-1.188c-0.559-0.54-0.847-1.278-0.847-2.214
				c0-1.062,0.378-1.909,1.152-2.539c0.774-0.612,1.837-0.918,3.223-0.918c1.351,0,2.431,0.342,3.241,1.026
				c0.811,0.702,1.225,1.602,1.242,2.719h-1.603c-0.036-0.702-0.288-1.278-0.774-1.693c-0.485-0.414-1.206-0.612-2.143-0.612
				c-1.8,0-2.7,0.666-2.7,2.017c0,0.936,0.72,1.566,2.143,1.873l1.71,0.36c2.396,0.486,3.583,1.692,3.583,3.619
				c0,1.134-0.414,2.017-1.26,2.647c-0.847,0.648-1.999,0.972-3.457,0.972C306.177,41.662,305.007,41.302,304.196,40.6z"/>
			<path class="st4" d="M315.668,40.6c-0.828-0.702-1.26-1.674-1.296-2.881h1.603c0.054,0.792,0.342,1.404,0.9,1.854
				c0.54,0.45,1.296,0.667,2.269,0.667c2.053,0,3.079-0.738,3.079-2.197c0-0.576-0.198-1.026-0.576-1.351
				c-0.379-0.306-0.937-0.54-1.675-0.702l-1.837-0.396c-1.116-0.234-1.944-0.63-2.503-1.188c-0.558-0.54-0.846-1.278-0.846-2.214
				c0-1.062,0.378-1.909,1.152-2.539c0.774-0.612,1.837-0.918,3.223-0.918c1.351,0,2.431,0.342,3.241,1.026
				c0.811,0.702,1.225,1.602,1.242,2.719h-1.603c-0.036-0.702-0.288-1.278-0.774-1.693c-0.485-0.414-1.206-0.612-2.143-0.612
				c-1.8,0-2.7,0.666-2.7,2.017c0,0.936,0.72,1.566,2.143,1.873l1.71,0.36c2.396,0.486,3.583,1.692,3.583,3.619
				c0,1.134-0.414,2.017-1.26,2.647c-0.847,0.648-1.999,0.972-3.457,0.972C317.649,41.662,316.479,41.302,315.668,40.6z"/>
			<path class="st4" d="M328.169,28.896V41.5h-1.584V28.896H328.169z"/>
			<path class="st4" d="M335.717,28.896c1.765,0,3.151,0.576,4.142,1.71s1.477,2.665,1.477,4.591c0,1.854-0.486,3.367-1.44,4.537
				c-0.973,1.17-2.359,1.765-4.178,1.765h-4.177V28.896H335.717z M335.555,40.078c1.369,0,2.413-0.468,3.115-1.386
				c0.702-0.918,1.044-2.071,1.044-3.493c0-1.404-0.342-2.575-1.044-3.493s-1.746-1.368-3.115-1.368h-2.448v9.741H335.555z"/>
			<path class="st4" d="M311.471,61.17h1.423v2.413h-1.818L310.57,66.5h-2.557l0.504-2.917h-1.584L306.43,66.5h-2.558l0.505-2.917
				H302.9V61.17h1.872l0.324-1.854h-1.296v-2.413h1.71l0.505-3.007h2.557l-0.505,3.007h1.585l0.504-3.007h2.557l-0.504,3.007h1.585
				v2.413h-1.999L311.471,61.17z M307.653,59.316l-0.324,1.854h1.585l0.324-1.854H307.653z"/>
			<path class="st4" d="M326.244,66.5h-3.133l-0.738-2.395h-4.682l-0.738,2.395h-2.989v-0.18l4.321-12.423h3.619l4.34,12.423V66.5z
				 M320.068,56.723h-0.072l-1.53,4.897h3.133L320.068,56.723z"/>
			<path class="st4" d="M333.49,53.896c1.135,0,2.053,0.288,2.755,0.864c0.685,0.594,1.026,1.386,1.026,2.413
				c0,1.134-0.414,1.98-1.225,2.575v0.072c1.135,0.541,1.692,1.549,1.692,3.043c0,1.134-0.359,2.035-1.062,2.665
				c-0.721,0.648-1.711,0.972-2.953,0.972h-6.266V53.896H333.49z M333.076,58.758c0.883,0,1.333-0.396,1.333-1.188
				s-0.45-1.188-1.333-1.188h-2.809v2.377H333.076z M333.257,63.997c1.062,0,1.602-0.468,1.602-1.404
				c0-0.378-0.126-0.702-0.378-0.972s-0.666-0.414-1.224-0.414h-2.989v2.791H333.257z"/>
			<path class="st4" d="M340.334,64.844c-1.08-1.207-1.603-2.755-1.603-4.627c0-1.891,0.522-3.457,1.585-4.664
				c1.062-1.207,2.557-1.818,4.519-1.818c1.566,0,2.881,0.468,3.907,1.422c1.026,0.954,1.585,2.106,1.675,3.493h-2.881
				c-0.054-0.666-0.324-1.224-0.774-1.674s-1.098-0.684-1.927-0.684c-1.044,0-1.836,0.342-2.395,1.008
				c-0.558,0.666-0.828,1.638-0.828,2.917c0,1.278,0.271,2.232,0.828,2.899c0.559,0.666,1.351,1.008,2.395,1.008
				c0.793,0,1.423-0.216,1.873-0.63s0.72-0.954,0.846-1.621h2.863c-0.126,1.351-0.702,2.485-1.729,3.403
				c-1.026,0.918-2.305,1.387-3.854,1.387C342.891,66.662,341.396,66.05,340.334,64.844z"/>
			<path class="st4" d="M357.768,59.982v2.485h-5.51v-2.485H357.768z"/>
			<path class="st4" d="M369.238,53.896v2.521h-6.176v2.323h5.618v2.521h-5.618v2.737h6.176V66.5h-9.002V53.896H369.238z"/>
			<path class="st4" d="M371.816,64.897c-0.81-1.17-1.224-2.755-1.224-4.735c0-1.962,0.414-3.547,1.224-4.717
				c0.811-1.17,2.053-1.765,3.709-1.765c1.657,0,2.899,0.594,3.71,1.765c0.81,1.17,1.224,2.755,1.224,4.717
				c0,1.98-0.414,3.565-1.224,4.735c-0.811,1.17-2.053,1.765-3.71,1.765C373.869,66.662,372.627,66.068,371.816,64.897z
				 M377.164,63.241c0.307-0.63,0.469-1.657,0.469-3.079c0-1.386-0.162-2.413-0.486-3.061c-0.324-0.648-0.864-0.972-1.621-0.972
				c-0.756,0-1.296,0.324-1.62,0.972c-0.324,0.648-0.486,1.675-0.486,3.061c0,1.422,0.162,2.449,0.486,3.079
				c0.306,0.648,0.847,0.972,1.62,0.972C376.3,64.213,376.84,63.889,377.164,63.241z"/>
			<path class="st4" d="M384.69,56.687l-2.898,2.161h-0.181v-2.646l3.133-2.305h2.81V66.5h-2.791v-9.813H384.69z"/>
		</g>
	</g>
	<g>
		<rect x="1302" y="8.5" class="st0" width="140" height="103"/>
		<g>
			<path class="st0" d="M1364.929,152.964c3.905-3.905,10.237-3.905,14.142,0"/>
			<path class="st0" d="M1357.858,145.893c7.81-7.81,20.474-7.81,28.284,0"/>
			<path class="st0" d="M1350.787,138.822c11.716-11.716,30.711-11.716,42.427,0"/>
		</g>
		<g>
			<path class="st4" d="M1324.196,40.6c-0.828-0.702-1.26-1.674-1.296-2.881h1.603c0.054,0.792,0.342,1.404,0.9,1.854
				c0.54,0.45,1.296,0.667,2.269,0.667c2.053,0,3.079-0.738,3.079-2.197c0-0.576-0.198-1.026-0.576-1.351
				c-0.379-0.306-0.937-0.54-1.675-0.702l-1.837-0.396c-1.116-0.234-1.944-0.63-2.502-1.188c-0.559-0.54-0.847-1.278-0.847-2.214
				c0-1.062,0.378-1.909,1.152-2.539c0.774-0.612,1.837-0.918,3.223-0.918c1.351,0,2.431,0.342,3.241,1.026
				c0.811,0.702,1.225,1.602,1.242,2.719h-1.603c-0.036-0.702-0.288-1.278-0.774-1.693c-0.485-0.414-1.206-0.612-2.143-0.612
				c-1.8,0-2.7,0.666-2.7,2.017c0,0.936,0.72,1.566,2.143,1.873l1.71,0.36c2.396,0.486,3.583,1.692,3.583,3.619
				c0,1.134-0.414,2.017-1.26,2.647c-0.847,0.648-1.999,0.972-3.457,0.972C1326.177,41.662,1325.007,41.302,1324.196,40.6z"/>
			<path class="st4" d="M1335.668,40.6c-0.828-0.702-1.26-1.674-1.296-2.881h1.603c0.054,0.792,0.342,1.404,0.9,1.854
				c0.54,0.45,1.296,0.667,2.269,0.667c2.053,0,3.079-0.738,3.079-2.197c0-0.576-0.198-1.026-0.576-1.351
				c-0.379-0.306-0.937-0.54-1.675-0.702l-1.837-0.396c-1.116-0.234-1.944-0.63-2.503-1.188c-0.558-0.54-0.846-1.278-0.846-2.214
				c0-1.062,0.378-1.909,1.152-2.539c0.774-0.612,1.837-0.918,3.223-0.918c1.351,0,2.431,0.342,3.241,1.026
				c0.811,0.702,1.225,1.602,1.242,2.719h-1.603c-0.036-0.702-0.288-1.278-0.774-1.693c-0.485-0.414-1.206-0.612-2.143-0.612
				c-1.8,0-2.7,0.666-2.7,2.017c0,0.936,0.72,1.566,2.143,1.873l1.71,0.36c2.396,0.486,3.583,1.692,3.583,3.619
				c0,1.134-0.414,2.017-1.26,2.647c-0.847,0.648-1.999,0.972-3.457,0.972C1337.649,41.662,1336.479,41.302,1335.668,40.6z"/>
			<path class="st4" d="M1348.169,28.896V41.5h-1.584V28.896H1348.169z"/>
			<path class="st4" d="M1355.717,28.896c1.765,0,3.151,0.576,4.142,1.71s1.477,2.665,1.477,4.591c0,1.854-0.486,3.367-1.44,4.537
				c-0.973,1.17-2.359,1.765-4.178,1.765h-4.177V28.896H1355.717z M1355.555,40.078c1.369,0,2.413-0.468,3.115-1.386
				c0.702-0.918,1.044-2.071,1.044-3.493c0-1.404-0.342-2.575-1.044-3.493s-1.746-1.368-3.115-1.368h-2.448v9.741H1355.555z"/>
			<path class="st4" d="M1325.259,62.233c0-0.703,0.126-1.279,0.378-1.693c0.253-0.414,0.667-0.846,1.243-1.296l0.576-0.45
				c0.342-0.271,0.594-0.504,0.738-0.685c0.126-0.18,0.197-0.414,0.197-0.72c0-0.324-0.107-0.612-0.342-0.864
				c-0.234-0.234-0.612-0.36-1.116-0.36c-1.062,0-1.585,0.522-1.585,1.566h-2.809c0-1.207,0.378-2.161,1.135-2.899
				c0.738-0.738,1.836-1.098,3.259-1.098c1.314,0,2.358,0.324,3.133,0.99c0.774,0.666,1.17,1.494,1.17,2.502
				c0,1.117-0.45,2.035-1.368,2.737l-0.756,0.594c-0.45,0.342-0.738,0.612-0.9,0.829c-0.162,0.216-0.252,0.504-0.252,0.846v0.288
				h-2.701V62.233z M1328.104,63.691V66.5h-2.952v-2.809H1328.104z"/>
			<path class="st4" d="M1343.188,66.5h-3.133l-0.738-2.395h-4.682l-0.738,2.395h-2.989v-0.18l4.321-12.423h3.619l4.34,12.423V66.5z
				 M1337.013,56.723h-0.072l-1.53,4.897h3.133L1337.013,56.723z"/>
			<path class="st4" d="M1350.435,53.896c1.135,0,2.053,0.288,2.755,0.864c0.685,0.594,1.026,1.386,1.026,2.413
				c0,1.134-0.414,1.98-1.225,2.575v0.072c1.135,0.541,1.692,1.549,1.692,3.043c0,1.134-0.359,2.035-1.062,2.665
				c-0.721,0.648-1.711,0.972-2.953,0.972h-6.266V53.896H1350.435z M1350.021,58.758c0.883,0,1.332-0.396,1.332-1.188
				s-0.449-1.188-1.332-1.188h-2.809v2.377H1350.021z M1350.2,63.997c1.062,0,1.603-0.468,1.603-1.404
				c0-0.378-0.126-0.702-0.378-0.972s-0.666-0.414-1.225-0.414h-2.988v2.791H1350.2z"/>
			<path class="st4" d="M1357.278,64.844c-1.08-1.207-1.603-2.755-1.603-4.627c0-1.891,0.522-3.457,1.585-4.664
				c1.062-1.207,2.557-1.818,4.519-1.818c1.567,0,2.881,0.468,3.907,1.422c1.026,0.954,1.585,2.106,1.675,3.493h-2.881
				c-0.054-0.666-0.324-1.224-0.774-1.674s-1.098-0.684-1.927-0.684c-1.044,0-1.836,0.342-2.395,1.008
				c-0.558,0.666-0.828,1.638-0.828,2.917c0,1.278,0.271,2.232,0.828,2.899c0.559,0.666,1.351,1.008,2.395,1.008
				c0.793,0,1.423-0.216,1.873-0.63s0.72-0.954,0.847-1.621h2.862c-0.126,1.351-0.702,2.485-1.729,3.403
				c-1.026,0.918-2.305,1.387-3.854,1.387C1359.835,66.662,1358.341,66.05,1357.278,64.844z"/>
			<path class="st4" d="M1374.713,59.982v2.485h-5.51v-2.485H1374.713z"/>
			<path class="st4" d="M1386.183,53.896v2.521h-6.176v2.323h5.618v2.521h-5.618v2.737h6.176V66.5h-9.002V53.896H1386.183z"/>
			<path class="st4" d="M1388.761,64.897c-0.81-1.17-1.225-2.755-1.225-4.735c0-1.962,0.415-3.547,1.225-4.717
				c0.811-1.17,2.053-1.765,3.709-1.765c1.657,0,2.899,0.594,3.709,1.765c0.811,1.17,1.225,2.755,1.225,4.717
				c0,1.98-0.414,3.565-1.225,4.735c-0.81,1.17-2.052,1.765-3.709,1.765C1390.813,66.662,1389.571,66.068,1388.761,64.897z
				 M1394.108,63.241c0.307-0.63,0.469-1.657,0.469-3.079c0-1.386-0.162-2.413-0.486-3.061c-0.324-0.648-0.864-0.972-1.621-0.972
				c-0.756,0-1.296,0.324-1.62,0.972c-0.324,0.648-0.486,1.675-0.486,3.061c0,1.422,0.162,2.449,0.486,3.079
				c0.306,0.648,0.847,0.972,1.62,0.972C1393.244,64.213,1393.784,63.889,1394.108,63.241z"/>
			<path class="st4" d="M1401.635,56.687l-2.898,2.161h-0.181v-2.646l3.133-2.305h2.81V66.5h-2.791v-9.813H1401.635z"/>
		</g>
	</g>
</g>
<g id="_x30_4arrow1">
	<line class="st0" x1="462" y1="60" x2="1262" y2="60"/>
	<g>
		<path class="st4" d="M753.399,27.396V40h-2.845V27.396H753.399z"/>
		<path class="st4" d="M761.645,27.396c1.26,0,2.269,0.396,3.024,1.17c0.756,0.792,1.135,1.783,1.135,2.989
			c0,1.224-0.378,2.232-1.135,3.025c-0.774,0.81-1.782,1.206-3.024,1.206h-2.899V40h-2.827V27.396H761.645z M761.086,33.266
			c1.225,0,1.837-0.576,1.837-1.71c0-0.541-0.162-0.955-0.486-1.243c-0.324-0.27-0.774-0.414-1.351-0.414h-2.34v3.367H761.086z"/>
		<path class="st4" d="M772.21,33.482v2.485h-5.51v-2.485H772.21z"/>
		<path class="st4" d="M780.634,27.396c1.26,0,2.269,0.396,3.024,1.17c0.756,0.792,1.135,1.783,1.135,2.989
			c0,1.224-0.378,2.232-1.135,3.025c-0.774,0.81-1.782,1.206-3.024,1.206h-2.899V40h-2.827V27.396H780.634z M780.075,33.266
			c1.225,0,1.837-0.576,1.837-1.71c0-0.541-0.162-0.955-0.486-1.243c-0.324-0.27-0.774-0.414-1.351-0.414h-2.34v3.367H780.075z"/>
		<path class="st4" d="M797.213,40h-3.313l-2.719-4.447h-1.764V40h-2.827V27.396h5.762c1.296,0,2.341,0.396,3.133,1.17
			c0.774,0.774,1.17,1.729,1.17,2.845c0,0.9-0.216,1.674-0.648,2.34c-0.45,0.667-1.062,1.152-1.836,1.458l3.043,4.609V40z
			 M792.207,33.032c0.522,0,0.918-0.162,1.17-0.468s0.378-0.685,0.378-1.134c0-0.415-0.126-0.774-0.378-1.081
			c-0.27-0.288-0.648-0.432-1.17-0.432h-2.791v3.115H792.207z"/>
		<path class="st4" d="M799.532,38.344c-1.062-1.207-1.603-2.755-1.603-4.646s0.541-3.457,1.603-4.664
			c1.062-1.207,2.557-1.8,4.52-1.8c1.962,0,3.475,0.594,4.537,1.8c1.062,1.207,1.584,2.773,1.584,4.664s-0.522,3.439-1.584,4.646
			c-1.062,1.206-2.575,1.818-4.537,1.818C802.088,40.162,800.594,39.55,799.532,38.344z M806.464,36.597
			c0.558-0.667,0.828-1.621,0.828-2.899s-0.27-2.251-0.828-2.917s-1.368-0.99-2.413-0.99c-1.062,0-1.854,0.324-2.413,0.99
			c-0.559,0.666-0.829,1.639-0.829,2.917s0.288,2.232,0.846,2.899c0.559,0.666,1.351,1.008,2.395,1.008
			S805.906,37.263,806.464,36.597z"/>
		<path class="st4" d="M810.979,29.935v-2.539h10.119v2.539h-3.637V40h-2.845V29.935H810.979z"/>
		<path class="st4" d="M831.628,27.396v2.521h-6.176v2.323h5.618v2.521h-5.618v2.737h6.176V40h-9.003V27.396H831.628z"/>
		<path class="st4" d="M834.487,38.344c-1.08-1.207-1.603-2.755-1.603-4.627c0-1.891,0.522-3.457,1.584-4.664
			c1.062-1.207,2.557-1.818,4.52-1.818c1.566,0,2.881,0.468,3.907,1.422c1.026,0.954,1.584,2.106,1.674,3.493h-2.881
			c-0.054-0.666-0.324-1.224-0.774-1.674c-0.45-0.45-1.098-0.684-1.926-0.684c-1.044,0-1.836,0.342-2.395,1.008
			c-0.558,0.666-0.828,1.638-0.828,2.917c0,1.278,0.27,2.232,0.828,2.899c0.559,0.666,1.351,1.008,2.395,1.008
			c0.792,0,1.422-0.216,1.873-0.63s0.72-0.954,0.846-1.621h2.863c-0.126,1.351-0.702,2.485-1.729,3.403
			c-1.026,0.918-2.305,1.387-3.853,1.387C837.044,40.162,835.55,39.55,834.487,38.344z"/>
		<path class="st4" d="M845.377,29.935v-2.539h10.119v2.539h-3.637V40h-2.845V29.935H845.377z"/>
		<path class="st4" d="M866.025,27.396v2.521h-6.175v2.323h5.618v2.521h-5.618v2.737h6.175V40h-9.002V27.396H866.025z"/>
		<path class="st4" d="M872.359,27.396c1.891,0,3.457,0.576,4.682,1.746c1.225,1.17,1.837,2.683,1.837,4.556
			c0,1.782-0.595,3.277-1.801,4.483c-1.206,1.206-2.79,1.818-4.718,1.818h-4.357V27.396H872.359z M872.197,37.497
			c1.207,0,2.143-0.306,2.81-0.936c0.666-0.63,0.99-1.584,0.99-2.863s-0.324-2.215-0.99-2.845c-0.667-0.63-1.603-0.937-2.81-0.937
			h-1.548v7.58H872.197z"/>
		<path class="st4" d="M886.309,38.956c-0.918-0.792-1.404-1.891-1.494-3.277h2.863c0.053,0.666,0.306,1.152,0.737,1.477
			c0.433,0.342,1.009,0.504,1.711,0.504c1.566,0,2.358-0.432,2.358-1.296c0-0.342-0.107-0.63-0.342-0.846
			c-0.234-0.198-0.631-0.36-1.188-0.486l-1.837-0.396c-1.242-0.27-2.196-0.684-2.862-1.26c-0.685-0.558-1.026-1.404-1.026-2.521
			c0-1.062,0.45-1.945,1.35-2.611c0.9-0.667,2.09-1.008,3.565-1.008c1.458,0,2.647,0.378,3.602,1.152
			c0.937,0.774,1.404,1.746,1.423,2.953h-2.863c-0.036-0.45-0.234-0.828-0.594-1.134c-0.379-0.306-0.9-0.45-1.604-0.45
			c-0.684,0-1.188,0.108-1.494,0.324c-0.324,0.216-0.486,0.468-0.486,0.774c0,0.27,0.108,0.504,0.307,0.702
			c0.197,0.198,0.576,0.342,1.116,0.468l1.71,0.36c1.314,0.27,2.323,0.702,3.043,1.296c0.721,0.594,1.08,1.458,1.08,2.611
			c0,1.206-0.432,2.143-1.277,2.827c-0.847,0.702-2.18,1.044-3.979,1.044C888.487,40.162,887.209,39.766,886.309,38.956z"/>
		<path class="st4" d="M897.973,38.344c-1.062-1.207-1.603-2.755-1.603-4.646s0.54-3.457,1.603-4.664s2.557-1.8,4.52-1.8
			s3.475,0.594,4.537,1.8s1.584,2.773,1.584,4.664s-0.521,3.439-1.584,4.646c-1.062,1.206-2.574,1.818-4.537,1.818
			S899.035,39.55,897.973,38.344z M904.904,36.597c0.559-0.667,0.828-1.621,0.828-2.899s-0.27-2.251-0.828-2.917
			c-0.558-0.666-1.368-0.99-2.412-0.99c-1.062,0-1.854,0.324-2.413,0.99c-0.558,0.666-0.828,1.639-0.828,2.917
			s0.288,2.232,0.847,2.899c0.558,0.666,1.35,1.008,2.395,1.008C903.536,37.605,904.347,37.263,904.904,36.597z"/>
		<path class="st4" d="M913.237,27.396v10.083h5.726V40h-8.553V27.396H913.237z"/>
		<path class="st4" d="M921.732,38.83c-1.008-0.882-1.513-2.161-1.513-3.817v-7.616h2.827v7.58c0,1.782,0.828,2.665,2.503,2.665
			s2.521-0.882,2.521-2.665v-7.58h2.845v7.616c0,1.656-0.504,2.935-1.494,3.817c-1.009,0.882-2.305,1.333-3.871,1.333
			C924.001,40.162,922.723,39.712,921.732,38.83z"/>
		<path class="st4" d="M932.262,29.935v-2.539h10.118v2.539h-3.637V40h-2.845V29.935H932.262z"/>
		<path class="st4" d="M946.753,27.396V40h-2.845V27.396H946.753z"/>
		<path class="st4" d="M950.154,38.344c-1.062-1.207-1.603-2.755-1.603-4.646s0.54-3.457,1.603-4.664s2.557-1.8,4.52-1.8
			s3.475,0.594,4.537,1.8s1.585,2.773,1.585,4.664s-0.522,3.439-1.585,4.646c-1.062,1.206-2.574,1.818-4.537,1.818
			S951.217,39.55,950.154,38.344z M957.086,36.597c0.559-0.667,0.829-1.621,0.829-2.899s-0.271-2.251-0.829-2.917
			c-0.558-0.666-1.368-0.99-2.412-0.99c-1.062,0-1.854,0.324-2.413,0.99c-0.558,0.666-0.828,1.639-0.828,2.917
			s0.288,2.232,0.847,2.899c0.558,0.666,1.35,1.008,2.395,1.008C955.718,37.605,956.528,37.263,957.086,36.597z"/>
		<path class="st4" d="M965.924,27.396l4.645,8.228h0.072v-8.228h2.809V40h-3.349l-4.646-8.174h-0.072V40h-2.79V27.396H965.924z"/>
	</g>
	<polyline class="st0" points="487,85 462,60 487,35 	"/>
	<polyline class="st0" points="1237,35 1262,60 1237,85 	"/>
</g>
<g id="_x30_5arrow2">
	<line class="st0" x1="1262" y1="321.5" x2="462" y2="321.5"/>
	<g>
		<path class="st4" d="M736.794,288.896h3.043l1.674,8.696h0.072l2.017-8.696h3.133l2.052,8.696h0.072l1.656-8.696h3.007v0.18
			L750.64,301.5h-3.655l-1.765-8.336h-0.072l-1.819,8.336h-3.655l-2.881-12.424V288.896z"/>
		<path class="st4" d="M757.801,288.896V301.5h-2.845v-12.604H757.801z"/>
		<path class="st4" d="M769.323,288.896v2.521h-6.176v2.683h5.618v2.521h-5.618v4.879h-2.827v-12.604H769.323z"/>
		<path class="st4" d="M774.145,288.896V301.5h-2.845v-12.604H774.145z"/>
		<path class="st4" d="M786.061,288.896c1.891,0,3.457,0.576,4.682,1.746c1.224,1.17,1.836,2.684,1.836,4.556
			c0,1.782-0.594,3.276-1.801,4.483c-1.206,1.206-2.791,1.818-4.717,1.818h-4.357v-12.604H786.061z M785.898,298.997
			c1.207,0,2.143-0.306,2.809-0.937c0.666-0.63,0.99-1.584,0.99-2.862s-0.324-2.215-0.99-2.845
			c-0.667-0.631-1.603-0.937-2.809-0.937h-1.548v7.58H785.898z"/>
		<path class="st4" d="M797.22,288.896V301.5h-2.845v-12.604H797.22z"/>
		<path class="st4" d="M810.362,301.5h-3.313l-2.719-4.447h-1.764v4.447h-2.827v-12.604h5.762c1.296,0,2.341,0.396,3.133,1.17
			c0.774,0.774,1.17,1.729,1.17,2.846c0,0.899-0.216,1.674-0.648,2.34c-0.45,0.666-1.062,1.152-1.836,1.459l3.043,4.609V301.5z
			 M805.356,294.531c0.522,0,0.918-0.161,1.17-0.467c0.252-0.307,0.378-0.686,0.378-1.135c0-0.414-0.126-0.774-0.378-1.08
			c-0.27-0.289-0.648-0.433-1.17-0.433h-2.791v3.114H805.356z"/>
		<path class="st4" d="M820.802,288.896v2.521h-6.176v2.323h5.618v2.52h-5.618v2.737h6.176v2.503h-9.003v-12.604H820.802z"/>
		<path class="st4" d="M823.661,299.844c-1.08-1.207-1.603-2.755-1.603-4.627c0-1.891,0.522-3.457,1.584-4.664
			c1.062-1.207,2.557-1.818,4.52-1.818c1.566,0,2.881,0.468,3.907,1.422c1.026,0.955,1.584,2.107,1.674,3.493h-2.881
			c-0.054-0.666-0.324-1.224-0.774-1.675c-0.45-0.449-1.098-0.684-1.926-0.684c-1.044,0-1.836,0.342-2.395,1.008
			c-0.558,0.666-0.828,1.639-0.828,2.918c0,1.277,0.27,2.232,0.828,2.898c0.559,0.666,1.351,1.008,2.395,1.008
			c0.792,0,1.422-0.216,1.873-0.63s0.72-0.954,0.846-1.62h2.863c-0.126,1.35-0.702,2.484-1.729,3.402s-2.305,1.387-3.853,1.387
			C826.218,301.662,824.724,301.05,823.661,299.844z"/>
		<path class="st4" d="M834.551,291.436v-2.539h10.119v2.539h-3.637V301.5h-2.845v-10.064H834.551z"/>
		<path class="st4" d="M852.119,299.844c-1.062-1.207-1.603-2.755-1.603-4.646s0.54-3.457,1.603-4.663
			c1.062-1.207,2.557-1.801,4.52-1.801c1.962,0,3.475,0.594,4.537,1.801c1.062,1.206,1.584,2.772,1.584,4.663
			s-0.522,3.438-1.584,4.646c-1.062,1.206-2.575,1.818-4.537,1.818C854.676,301.662,853.182,301.05,852.119,299.844z
			 M859.051,298.098c0.558-0.667,0.828-1.621,0.828-2.899s-0.27-2.251-0.828-2.917s-1.369-0.99-2.413-0.99
			c-1.062,0-1.854,0.324-2.413,0.99c-0.558,0.666-0.828,1.639-0.828,2.917s0.288,2.232,0.846,2.899
			c0.558,0.666,1.351,1.008,2.395,1.008C857.683,299.105,858.493,298.764,859.051,298.098z"/>
		<path class="st4" d="M875.18,301.5h-3.312l-2.719-4.447h-1.765v4.447h-2.827v-12.604h5.762c1.297,0,2.341,0.396,3.133,1.17
			c0.774,0.774,1.17,1.729,1.17,2.846c0,0.899-0.215,1.674-0.647,2.34c-0.45,0.666-1.062,1.152-1.837,1.459l3.043,4.609V301.5z
			 M870.174,294.531c0.523,0,0.919-0.161,1.171-0.467c0.252-0.307,0.378-0.686,0.378-1.135c0-0.414-0.126-0.774-0.378-1.08
			c-0.271-0.289-0.647-0.433-1.171-0.433h-2.79v3.114H870.174z"/>
		<path class="st4" d="M887.688,288.896c1.135,0,2.053,0.288,2.755,0.864c0.685,0.594,1.026,1.386,1.026,2.413
			c0,1.134-0.414,1.98-1.224,2.574v0.072c1.134,0.54,1.691,1.549,1.691,3.043c0,1.134-0.359,2.034-1.062,2.664
			c-0.72,0.648-1.71,0.973-2.952,0.973h-6.267v-12.604H887.688z M887.274,293.758c0.882,0,1.333-0.396,1.333-1.188
			s-0.451-1.188-1.333-1.188h-2.809v2.377H887.274z M887.455,298.997c1.062,0,1.602-0.468,1.602-1.404
			c0-0.378-0.125-0.702-0.378-0.972c-0.252-0.271-0.666-0.414-1.224-0.414h-2.989v2.79H887.455z"/>
		<path class="st4" d="M896.472,288.896v10.083h5.726v2.521h-8.553v-12.604H896.472z"/>
		<path class="st4" d="M904.967,300.33c-1.008-0.883-1.513-2.161-1.513-3.817v-7.616h2.827v7.58c0,1.782,0.828,2.664,2.503,2.664
			s2.521-0.882,2.521-2.664v-7.58h2.845v7.616c0,1.656-0.504,2.935-1.494,3.817c-1.009,0.882-2.305,1.332-3.871,1.332
			C907.235,301.662,905.957,301.212,904.967,300.33z"/>
		<path class="st4" d="M925.488,288.896v2.521h-6.176v2.323h5.618v2.52h-5.618v2.737h6.176v2.503h-9.002v-12.604H925.488z"/>
		<path class="st4" d="M926.475,291.436v-2.539h10.119v2.539h-3.637V301.5h-2.845v-10.064H926.475z"/>
		<path class="st4" d="M939.004,299.844c-1.062-1.207-1.603-2.755-1.603-4.646s0.54-3.457,1.603-4.663
			c1.062-1.207,2.557-1.801,4.52-1.801s3.475,0.594,4.537,1.801c1.062,1.206,1.585,2.772,1.585,4.663s-0.522,3.438-1.585,4.646
			c-1.062,1.206-2.574,1.818-4.537,1.818S940.066,301.05,939.004,299.844z M945.936,298.098c0.559-0.667,0.829-1.621,0.829-2.899
			s-0.271-2.251-0.829-2.917c-0.558-0.666-1.368-0.99-2.412-0.99c-1.062,0-1.854,0.324-2.413,0.99
			c-0.558,0.666-0.828,1.639-0.828,2.917s0.288,2.232,0.847,2.899c0.558,0.666,1.35,1.008,2.395,1.008
			C944.567,299.105,945.378,298.764,945.936,298.098z"/>
		<path class="st4" d="M952.324,299.844c-1.062-1.207-1.603-2.755-1.603-4.646s0.54-3.457,1.603-4.663
			c1.062-1.207,2.557-1.801,4.52-1.801s3.475,0.594,4.537,1.801c1.062,1.206,1.585,2.772,1.585,4.663s-0.522,3.438-1.585,4.646
			c-1.062,1.206-2.574,1.818-4.537,1.818S953.387,301.05,952.324,299.844z M959.256,298.098c0.559-0.667,0.829-1.621,0.829-2.899
			s-0.271-2.251-0.829-2.917c-0.558-0.666-1.368-0.99-2.412-0.99c-1.062,0-1.854,0.324-2.413,0.99
			c-0.558,0.666-0.828,1.639-0.828,2.917s0.288,2.232,0.847,2.899c0.558,0.666,1.35,1.008,2.395,1.008
			C957.888,299.105,958.698,298.764,959.256,298.098z"/>
		<path class="st4" d="M963.772,291.436v-2.539h10.118v2.539h-3.637V301.5h-2.845v-10.064H963.772z"/>
		<path class="st4" d="M986.132,301.5h-2.827v-5.24h-5.06v5.24h-2.826v-12.604h2.826v4.825h5.06v-4.825h2.827V301.5z"/>
	</g>
	<g>
		<path class="st4" d="M683.361,352.249c-0.972-1.171-1.458-2.737-1.458-4.699c0-1.981,0.486-3.565,1.458-4.736
			c0.973-1.17,2.341-1.746,4.105-1.746c1.495,0,2.665,0.396,3.547,1.17c0.864,0.774,1.369,1.855,1.495,3.205h-1.621
			c-0.108-0.9-0.45-1.603-1.008-2.124c-0.576-0.522-1.386-0.774-2.413-0.774c-0.702,0-1.314,0.144-1.836,0.414
			c-0.522,0.271-0.937,0.648-1.243,1.135c-0.306,0.485-0.522,1.025-0.648,1.584c-0.144,0.576-0.216,1.206-0.216,1.873
			c0,0.666,0.072,1.296,0.216,1.854c0.126,0.576,0.342,1.098,0.648,1.584s0.72,0.864,1.243,1.135
			c0.522,0.27,1.134,0.414,1.836,0.414c1.962,0,3.115-0.937,3.439-2.791h1.603c-0.18,1.332-0.702,2.377-1.548,3.115
			c-0.846,0.756-2.017,1.134-3.493,1.134C685.684,353.995,684.315,353.419,683.361,352.249z"/>
		<path class="st4" d="M696.069,352.194c-0.937-1.188-1.404-2.736-1.404-4.663s0.468-3.475,1.404-4.682
			c0.918-1.188,2.323-1.782,4.177-1.782s3.241,0.594,4.177,1.782c0.936,1.207,1.404,2.755,1.404,4.682
			c0,1.908-0.468,3.457-1.404,4.663c-0.937,1.207-2.323,1.801-4.177,1.801S697.005,353.401,696.069,352.194z M703.271,351.097
			c0.63-0.954,0.936-2.143,0.936-3.565c0-1.422-0.306-2.61-0.936-3.565c-0.63-0.954-1.639-1.422-3.025-1.422
			c-0.72,0-1.351,0.144-1.873,0.414c-0.54,0.271-0.955,0.648-1.243,1.135c-0.288,0.485-0.504,1.008-0.63,1.566
			c-0.144,0.576-0.216,1.206-0.216,1.872c0,1.423,0.324,2.611,0.955,3.565c0.63,0.954,1.62,1.422,3.007,1.422
			C701.633,352.519,702.641,352.051,703.271,351.097z"/>
		<path class="st4" d="M710.416,341.229l6.446,10.029h0.072v-10.029h1.549v12.604h-1.729l-6.446-9.975h-0.072v9.975h-1.53v-12.604
			H710.416z"/>
		<path class="st4" d="M723.79,341.229l6.446,10.029h0.072v-10.029h1.549v12.604h-1.729l-6.446-9.975h-0.072v9.975h-1.53v-12.604
			H723.79z"/>
		<path class="st4" d="M743.555,341.229v1.44h-6.536v3.943h5.978v1.44h-5.978v4.357h6.536v1.422h-8.102v-12.604H743.555z"/>
		<path class="st4" d="M747.17,352.249c-0.972-1.171-1.458-2.737-1.458-4.699c0-1.981,0.486-3.565,1.458-4.736
			c0.973-1.17,2.341-1.746,4.105-1.746c1.495,0,2.665,0.396,3.547,1.17c0.864,0.774,1.369,1.855,1.495,3.205h-1.621
			c-0.108-0.9-0.45-1.603-1.008-2.124c-0.576-0.522-1.386-0.774-2.413-0.774c-0.702,0-1.314,0.144-1.836,0.414
			c-0.522,0.271-0.937,0.648-1.243,1.135c-0.306,0.485-0.522,1.025-0.648,1.584c-0.144,0.576-0.216,1.206-0.216,1.873
			c0,0.666,0.072,1.296,0.216,1.854c0.126,0.576,0.342,1.098,0.648,1.584s0.72,0.864,1.243,1.135
			c0.522,0.27,1.134,0.414,1.836,0.414c1.962,0,3.115-0.937,3.439-2.791h1.603c-0.18,1.332-0.702,2.377-1.548,3.115
			c-0.846,0.756-2.017,1.134-3.493,1.134C749.493,353.995,748.125,353.419,747.17,352.249z"/>
		<path class="st4" d="M757.754,342.67v-1.44h9.398v1.44h-3.907v11.163h-1.585V342.67H757.754z"/>
		<path class="st4" d="M771.165,341.229v12.604h-1.585v-12.604H771.165z"/>
		<path class="st4" d="M775.449,352.194c-0.937-1.188-1.405-2.736-1.405-4.663s0.468-3.475,1.405-4.682
			c0.918-1.188,2.323-1.782,4.177-1.782s3.241,0.594,4.177,1.782c0.936,1.207,1.404,2.755,1.404,4.682
			c0,1.908-0.468,3.457-1.404,4.663c-0.937,1.207-2.323,1.801-4.177,1.801S776.385,353.401,775.449,352.194z M782.651,351.097
			c0.63-0.954,0.936-2.143,0.936-3.565c0-1.422-0.306-2.61-0.936-3.565c-0.63-0.954-1.639-1.422-3.025-1.422
			c-0.72,0-1.351,0.144-1.873,0.414c-0.541,0.271-0.955,0.648-1.243,1.135c-0.288,0.485-0.504,1.008-0.63,1.566
			c-0.144,0.576-0.216,1.206-0.216,1.872c0,1.423,0.324,2.611,0.955,3.565c0.63,0.954,1.62,1.422,3.007,1.422
			C781.012,352.519,782.021,352.051,782.651,351.097z"/>
		<path class="st4" d="M789.795,341.229l6.446,10.029h0.072v-10.029h1.549v12.604h-1.729l-6.446-9.975h-0.072v9.975h-1.531v-12.604
			H789.795z"/>
		<path class="st4" d="M805.688,342.67v-1.44h9.398v1.44h-3.907v11.163h-1.585V342.67H805.688z"/>
		<path class="st4" d="M819.099,341.229v12.604h-1.585v-12.604H819.099z"/>
		<path class="st4" d="M824.553,341.229l4.249,7.688h0.072l4.249-7.688h1.818v12.604h-1.494v-10.101h-0.072l-4.465,7.94h-0.18
			l-4.465-7.995h-0.072v10.155h-1.494v-12.604H824.553z"/>
		<path class="st4" d="M846.64,341.229v1.44h-6.536v3.943h5.978v1.44h-5.978v4.357h6.536v1.422h-8.102v-12.604H846.64z"/>
		<path class="st4" d="M850.832,345.442v1.98h-1.944v-1.98H850.832z M850.832,351.853v1.98h-1.944v-1.98H850.832z"/>
		<path class="st4" d="M706.724,367.67v-1.44h9.398v1.44h-3.907v11.163h-1.585V367.67H706.724z"/>
		<path class="st4" d="M728.201,378.833h-1.711l-3.313-4.987h-3.061v4.987h-1.567v-12.604h4.988c1.242,0,2.232,0.36,2.935,1.062
			c0.702,0.702,1.062,1.62,1.062,2.719c0,0.918-0.234,1.692-0.72,2.322c-0.486,0.631-1.152,1.081-1.999,1.314l3.385,5.006V378.833z
			 M723.447,372.405c0.792,0,1.405-0.216,1.819-0.63s0.63-0.99,0.63-1.747c0-0.738-0.216-1.332-0.63-1.746
			c-0.432-0.414-1.044-0.612-1.819-0.612h-3.331v4.735H723.447z"/>
		<path class="st4" d="M740.549,378.833h-1.674l-1.188-3.295h-5.509l-1.188,3.295h-1.639v-0.18l4.627-12.424h1.927l4.645,12.424
			V378.833z M734.967,367.976h-0.072l-2.215,6.158h4.501L734.967,367.976z"/>
		<path class="st4" d="M744.597,366.229l6.446,10.029h0.072v-10.029h1.549v12.604h-1.729l-6.446-9.975h-0.072v9.975h-1.531v-12.604
			H744.597z"/>
		<path class="st4" d="M756.656,377.933c-0.828-0.702-1.261-1.674-1.296-2.881h1.603c0.054,0.793,0.342,1.404,0.9,1.854
			c0.541,0.45,1.296,0.667,2.269,0.667c2.052,0,3.079-0.738,3.079-2.197c0-0.576-0.198-1.026-0.576-1.351
			c-0.378-0.306-0.936-0.54-1.674-0.702l-1.836-0.396c-1.117-0.234-1.945-0.631-2.503-1.188c-0.558-0.54-0.846-1.278-0.846-2.215
			c0-1.062,0.378-1.908,1.152-2.539c0.774-0.612,1.836-0.918,3.223-0.918c1.35,0,2.431,0.342,3.241,1.026
			c0.81,0.702,1.224,1.603,1.242,2.719h-1.602c-0.036-0.702-0.288-1.278-0.774-1.692s-1.207-0.612-2.143-0.612
			c-1.801,0-2.701,0.666-2.701,2.017c0,0.937,0.721,1.566,2.143,1.873l1.71,0.359c2.395,0.486,3.583,1.692,3.583,3.619
			c0,1.135-0.414,2.017-1.26,2.647c-0.846,0.647-1.999,0.972-3.457,0.972C758.637,378.995,757.466,378.635,756.656,377.933z"/>
		<path class="st4" d="M775.541,366.229v1.44h-6.338v4.231h5.726v1.44h-5.726v5.491h-1.567v-12.604H775.541z"/>
		<path class="st4" d="M786.52,366.229v1.44h-6.536v3.943h5.978v1.44h-5.978v4.357h6.536v1.422h-8.102v-12.604H786.52z"/>
		<path class="st4" d="M799.048,378.833h-1.71l-3.313-4.987h-3.061v4.987h-1.566v-12.604h4.987c1.242,0,2.232,0.36,2.935,1.062
			c0.703,0.702,1.062,1.62,1.062,2.719c0,0.918-0.234,1.692-0.72,2.322c-0.486,0.631-1.152,1.081-1.999,1.314l3.385,5.006V378.833z
			 M794.295,372.405c0.792,0,1.404-0.216,1.818-0.63s0.63-0.99,0.63-1.747c0-0.738-0.216-1.332-0.63-1.746
			c-0.432-0.414-1.044-0.612-1.818-0.612h-3.331v4.735H794.295z"/>
		<path class="st4" d="M805.687,367.67v-1.44h9.398v1.44h-3.907v11.163h-1.585V367.67H805.687z"/>
		<path class="st4" d="M819.098,366.229v12.604h-1.585v-12.604H819.098z"/>
		<path class="st4" d="M824.552,366.229l4.249,7.688h0.072l4.249-7.688h1.818v12.604h-1.494v-10.101h-0.072l-4.465,7.94h-0.18
			l-4.465-7.995h-0.072v10.155h-1.494v-12.604H824.552z"/>
		<path class="st4" d="M846.639,366.229v1.44h-6.536v3.943h5.978v1.44h-5.978v4.357h6.536v1.422h-8.102v-12.604H846.639z"/>
		<path class="st4" d="M850.831,370.442v1.98h-1.944v-1.98H850.831z M850.831,376.853v1.98h-1.944v-1.98H850.831z"/>
	</g>
	<g>
		<path class="st4" d="M875.709,344.021l-2.898,2.16h-0.18v-2.646l3.133-2.305h2.809v12.604h-2.791v-9.812H875.709z"/>
		<path class="st4" d="M894.809,347.315v2.484h-9.038v-2.484H894.809z"/>
		<path class="st4" d="M904.635,344.021l-2.898,2.16h-0.18v-2.646l3.133-2.305h2.809v12.604h-2.791v-9.812H904.635z"/>
		<path class="st4" d="M910.521,352.23c-0.811-1.17-1.225-2.755-1.225-4.735c0-1.962,0.414-3.547,1.225-4.717
			c0.81-1.171,2.052-1.765,3.709-1.765c1.656,0,2.899,0.594,3.709,1.765c0.81,1.17,1.225,2.755,1.225,4.717
			c0,1.98-0.415,3.565-1.225,4.735c-0.81,1.171-2.053,1.765-3.709,1.765C912.572,353.995,911.33,353.401,910.521,352.23z
			 M915.867,350.574c0.307-0.63,0.469-1.656,0.469-3.079c0-1.386-0.162-2.412-0.486-3.061s-0.864-0.973-1.62-0.973
			c-0.757,0-1.296,0.324-1.62,0.973s-0.486,1.675-0.486,3.061c0,1.423,0.162,2.449,0.486,3.079c0.306,0.648,0.846,0.973,1.62,0.973
			S915.544,351.223,915.867,350.574z"/>
		<path class="st4" d="M926.773,352.789c-0.918-0.792-1.404-1.891-1.494-3.277h2.863c0.054,0.666,0.306,1.152,0.738,1.477
			c0.432,0.342,1.008,0.504,1.711,0.504c1.566,0,2.357-0.432,2.357-1.296c0-0.342-0.107-0.63-0.342-0.847
			c-0.234-0.198-0.63-0.359-1.188-0.486l-1.837-0.396c-1.243-0.271-2.196-0.685-2.863-1.261c-0.685-0.558-1.026-1.404-1.026-2.521
			c0-1.062,0.45-1.944,1.351-2.61c0.9-0.667,2.089-1.009,3.565-1.009c1.458,0,2.646,0.378,3.601,1.152
			c0.937,0.774,1.405,1.746,1.423,2.953h-2.863c-0.035-0.45-0.234-0.828-0.594-1.135c-0.379-0.306-0.9-0.45-1.603-0.45
			c-0.685,0-1.188,0.108-1.495,0.324c-0.324,0.216-0.485,0.469-0.485,0.774c0,0.271,0.108,0.504,0.306,0.702
			c0.198,0.198,0.576,0.342,1.117,0.468l1.71,0.36c1.314,0.271,2.323,0.702,3.043,1.297c0.72,0.594,1.08,1.458,1.08,2.61
			c0,1.206-0.433,2.143-1.278,2.827c-0.846,0.702-2.179,1.044-3.979,1.044C928.953,353.995,927.674,353.6,926.773,352.789z"/>
		<path class="st4" d="M946.559,341.229v2.521h-6.176v2.323H946v2.521h-5.617v2.736h6.176v2.503h-9.003v-12.604H946.559z"/>
		<path class="st4" d="M949.418,352.177c-1.08-1.206-1.603-2.755-1.603-4.627c0-1.891,0.522-3.457,1.585-4.664
			c1.062-1.206,2.557-1.818,4.519-1.818c1.567,0,2.881,0.468,3.907,1.423c1.026,0.954,1.585,2.106,1.675,3.492h-2.881
			c-0.054-0.666-0.324-1.224-0.774-1.674s-1.098-0.685-1.927-0.685c-1.044,0-1.836,0.342-2.395,1.009
			c-0.558,0.666-0.828,1.638-0.828,2.917c0,1.278,0.271,2.232,0.828,2.898c0.559,0.666,1.351,1.008,2.395,1.008
			c0.793,0,1.423-0.216,1.873-0.63s0.72-0.954,0.847-1.62h2.862c-0.126,1.351-0.702,2.484-1.729,3.402
			c-1.026,0.919-2.305,1.387-3.854,1.387C951.975,353.995,950.48,353.383,949.418,352.177z"/>
		<path class="st4" d="M962.18,352.177c-1.062-1.206-1.603-2.755-1.603-4.646s0.54-3.457,1.603-4.663
			c1.062-1.207,2.557-1.801,4.52-1.801s3.475,0.594,4.537,1.801c1.062,1.206,1.585,2.772,1.585,4.663s-0.522,3.439-1.585,4.646
			s-2.574,1.818-4.537,1.818S963.242,353.383,962.18,352.177z M969.111,350.431c0.559-0.667,0.829-1.621,0.829-2.899
			s-0.271-2.251-0.829-2.917c-0.558-0.666-1.368-0.99-2.412-0.99c-1.062,0-1.854,0.324-2.413,0.99
			c-0.558,0.666-0.828,1.639-0.828,2.917s0.288,2.232,0.847,2.899c0.558,0.666,1.35,1.008,2.395,1.008
			C967.743,351.438,968.554,351.097,969.111,350.431z"/>
		<path class="st4" d="M977.949,341.229l4.645,8.229h0.072v-8.229h2.809v12.604h-3.349l-4.646-8.174h-0.072v8.174h-2.79v-12.604
			H977.949z"/>
		<path class="st4" d="M992.35,341.229c1.89,0,3.457,0.576,4.681,1.746c1.225,1.171,1.837,2.684,1.837,4.556
			c0,1.782-0.595,3.277-1.801,4.483s-2.791,1.818-4.717,1.818h-4.357v-12.604H992.35z M992.188,351.33
			c1.206,0,2.143-0.306,2.809-0.936c0.666-0.631,0.99-1.585,0.99-2.863s-0.324-2.215-0.99-2.845s-1.603-0.937-2.809-0.937h-1.549
			v7.58H992.188z"/>
		<path class="st4" d="M1001.258,352.789c-0.918-0.792-1.404-1.891-1.494-3.277h2.862c0.055,0.666,0.307,1.152,0.738,1.477
			c0.433,0.342,1.009,0.504,1.711,0.504c1.566,0,2.358-0.432,2.358-1.296c0-0.342-0.107-0.63-0.342-0.847
			c-0.234-0.198-0.631-0.359-1.188-0.486l-1.837-0.396c-1.242-0.271-2.196-0.685-2.862-1.261c-0.685-0.558-1.026-1.404-1.026-2.521
			c0-1.062,0.45-1.944,1.351-2.61c0.899-0.667,2.088-1.009,3.564-1.009c1.459,0,2.647,0.378,3.602,1.152
			c0.937,0.774,1.404,1.746,1.422,2.953h-2.862c-0.036-0.45-0.234-0.828-0.595-1.135c-0.378-0.306-0.9-0.45-1.603-0.45
			c-0.684,0-1.188,0.108-1.494,0.324c-0.324,0.216-0.486,0.469-0.486,0.774c0,0.271,0.108,0.504,0.307,0.702
			c0.197,0.198,0.576,0.342,1.116,0.468l1.71,0.36c1.314,0.271,2.323,0.702,3.043,1.297c0.721,0.594,1.081,1.458,1.081,2.61
			c0,1.206-0.433,2.143-1.278,2.827c-0.847,0.702-2.179,1.044-3.979,1.044C1003.437,353.995,1002.158,353.6,1001.258,352.789z"/>
		<path class="st4" d="M876.088,366.229v10.083h5.725v2.521h-8.553v-12.604H876.088z"/>
		<path class="st4" d="M892.253,366.229v2.521h-6.176v2.323h5.618v2.521h-5.618v2.736h6.176v2.503h-9.003v-12.604H892.253z"/>
		<path class="st4" d="M894.824,377.789c-0.918-0.792-1.404-1.891-1.494-3.277h2.863c0.053,0.666,0.306,1.152,0.737,1.477
			c0.433,0.342,1.009,0.504,1.711,0.504c1.566,0,2.358-0.432,2.358-1.296c0-0.342-0.107-0.63-0.342-0.847
			c-0.234-0.198-0.631-0.359-1.188-0.486l-1.837-0.396c-1.242-0.271-2.196-0.685-2.862-1.261c-0.685-0.558-1.026-1.404-1.026-2.521
			c0-1.062,0.45-1.944,1.35-2.61c0.9-0.667,2.09-1.009,3.565-1.009c1.458,0,2.647,0.378,3.602,1.152
			c0.937,0.774,1.404,1.746,1.423,2.953h-2.863c-0.036-0.45-0.234-0.828-0.594-1.135c-0.379-0.306-0.9-0.45-1.604-0.45
			c-0.684,0-1.188,0.108-1.494,0.324c-0.324,0.216-0.486,0.469-0.486,0.774c0,0.271,0.108,0.504,0.307,0.702
			c0.197,0.198,0.576,0.342,1.116,0.468l1.71,0.36c1.314,0.271,2.323,0.702,3.043,1.297c0.721,0.594,1.08,1.458,1.08,2.61
			c0,1.206-0.432,2.143-1.277,2.827c-0.847,0.702-2.18,1.044-3.979,1.044C897.003,378.995,895.725,378.6,894.824,377.789z"/>
		<path class="st4" d="M906.2,377.789c-0.918-0.792-1.404-1.891-1.494-3.277h2.862c0.055,0.666,0.307,1.152,0.738,1.477
			c0.433,0.342,1.009,0.504,1.711,0.504c1.566,0,2.358-0.432,2.358-1.296c0-0.342-0.108-0.63-0.342-0.847
			c-0.234-0.198-0.63-0.359-1.188-0.486l-1.836-0.396c-1.243-0.271-2.197-0.685-2.863-1.261c-0.685-0.558-1.026-1.404-1.026-2.521
			c0-1.062,0.45-1.944,1.351-2.61c0.9-0.667,2.088-1.009,3.564-1.009c1.459,0,2.646,0.378,3.602,1.152
			c0.936,0.774,1.404,1.746,1.422,2.953h-2.862c-0.036-0.45-0.234-0.828-0.595-1.135c-0.378-0.306-0.9-0.45-1.602-0.45
			c-0.685,0-1.189,0.108-1.495,0.324c-0.324,0.216-0.486,0.469-0.486,0.774c0,0.271,0.108,0.504,0.306,0.702
			c0.199,0.198,0.576,0.342,1.117,0.468l1.711,0.36c1.314,0.271,2.322,0.702,3.043,1.297c0.72,0.594,1.08,1.458,1.08,2.61
			c0,1.206-0.433,2.143-1.279,2.827c-0.846,0.702-2.178,1.044-3.979,1.044C908.379,378.995,907.101,378.6,906.2,377.789z"/>
		<path class="st4" d="M921.031,368.769v-2.539h10.119v2.539h-3.637v10.064h-2.845v-10.064H921.031z"/>
		<path class="st4" d="M943.391,378.833h-2.826v-5.239h-5.06v5.239h-2.827v-12.604h2.827v4.825h5.06v-4.825h2.826V378.833z"/>
		<path class="st4" d="M957.107,378.833h-3.133l-0.738-2.395h-4.682l-0.738,2.395h-2.989v-0.18l4.321-12.424h3.619l4.34,12.424
			V378.833z M950.932,369.057h-0.072l-1.53,4.897h3.133L950.932,369.057z"/>
		<path class="st4" d="M961.875,366.229l4.645,8.229h0.072v-8.229h2.809v12.604h-3.349l-4.646-8.174h-0.072v8.174h-2.79v-12.604
			H961.875z"/>
		<path class="st4" d="M979.406,369.021l-2.898,2.16h-0.181v-2.646l3.133-2.305h2.81v12.604h-2.791v-9.812H979.406z"/>
		<path class="st4" d="M990.241,377.789c-0.918-0.792-1.404-1.891-1.494-3.277h2.862c0.055,0.666,0.307,1.152,0.738,1.477
			c0.433,0.342,1.009,0.504,1.711,0.504c1.566,0,2.358-0.432,2.358-1.296c0-0.342-0.108-0.63-0.342-0.847
			c-0.234-0.198-0.63-0.359-1.188-0.486l-1.837-0.396c-1.242-0.271-2.196-0.685-2.862-1.261c-0.685-0.558-1.026-1.404-1.026-2.521
			c0-1.062,0.45-1.944,1.351-2.61c0.9-0.667,2.088-1.009,3.564-1.009c1.459,0,2.647,0.378,3.602,1.152
			c0.936,0.774,1.404,1.746,1.422,2.953h-2.862c-0.036-0.45-0.234-0.828-0.595-1.135c-0.378-0.306-0.9-0.45-1.603-0.45
			c-0.684,0-1.188,0.108-1.494,0.324c-0.324,0.216-0.486,0.469-0.486,0.774c0,0.271,0.108,0.504,0.307,0.702
			s0.576,0.342,1.116,0.468l1.71,0.36c1.314,0.271,2.323,0.702,3.043,1.297c0.721,0.594,1.081,1.458,1.081,2.61
			c0,1.206-0.433,2.143-1.279,2.827c-0.846,0.702-2.178,1.044-3.979,1.044C992.42,378.995,991.142,378.6,990.241,377.789z"/>
		<path class="st4" d="M1010.025,366.229v2.521h-6.176v2.323h5.618v2.521h-5.618v2.736h6.176v2.503h-9.002v-12.604H1010.025z"/>
		<path class="st4" d="M1012.885,377.177c-1.08-1.206-1.603-2.755-1.603-4.627c0-1.891,0.522-3.457,1.585-4.664
			c1.062-1.206,2.557-1.818,4.519-1.818c1.567,0,2.881,0.468,3.907,1.423c1.026,0.954,1.585,2.106,1.675,3.492h-2.881
			c-0.054-0.666-0.324-1.224-0.774-1.674s-1.098-0.685-1.927-0.685c-1.044,0-1.836,0.342-2.395,1.009
			c-0.558,0.666-0.828,1.638-0.828,2.917c0,1.278,0.271,2.232,0.828,2.898c0.559,0.666,1.351,1.008,2.395,1.008
			c0.793,0,1.423-0.216,1.873-0.63s0.72-0.954,0.847-1.62h2.862c-0.126,1.351-0.702,2.484-1.729,3.402
			c-1.026,0.919-2.305,1.387-3.854,1.387C1015.441,378.995,1013.947,378.383,1012.885,377.177z"/>
		<path class="st4" d="M1025.646,377.177c-1.062-1.206-1.603-2.755-1.603-4.646s0.54-3.457,1.603-4.663
			c1.062-1.207,2.557-1.801,4.52-1.801s3.475,0.594,4.537,1.801c1.062,1.206,1.585,2.772,1.585,4.663s-0.522,3.439-1.585,4.646
			s-2.574,1.818-4.537,1.818S1026.709,378.383,1025.646,377.177z M1032.578,375.431c0.559-0.667,0.829-1.621,0.829-2.899
			s-0.271-2.251-0.829-2.917c-0.558-0.666-1.368-0.99-2.412-0.99c-1.062,0-1.854,0.324-2.413,0.99
			c-0.558,0.666-0.828,1.639-0.828,2.917s0.288,2.232,0.847,2.899c0.558,0.666,1.35,1.008,2.395,1.008
			C1031.21,376.438,1032.021,376.097,1032.578,375.431z"/>
		<path class="st4" d="M1041.416,366.229l4.645,8.229h0.072v-8.229h2.809v12.604h-3.349l-4.646-8.174h-0.072v8.174h-2.79v-12.604
			H1041.416z"/>
		<path class="st4" d="M1055.816,366.229c1.89,0,3.457,0.576,4.681,1.746c1.225,1.171,1.837,2.684,1.837,4.556
			c0,1.782-0.595,3.277-1.801,4.483s-2.791,1.818-4.717,1.818h-4.357v-12.604H1055.816z M1055.654,376.33
			c1.206,0,2.143-0.306,2.809-0.936c0.666-0.631,0.99-1.585,0.99-2.863s-0.324-2.215-0.99-2.845s-1.603-0.937-2.809-0.937h-1.549
			v7.58H1055.654z"/>
	</g>
	<polyline class="st0" points="1237,296.5 1262,321.5 1237,346.5 	"/>
</g>
<g id="file">
	<polygon class="st0" points="1421.769,255.142 1421.769,387.858 1322.231,387.858 1322.231,285.142 1352.231,255.142 	"/>
	<polygon class="st3" points="1386.99,321.5 1361.01,306.5 1361.01,336.5 	"/>
	<polyline class="st0" points="1352.231,265.142 1352.231,285.142 1332.231,285.142 	"/>
</g>
</svg>
