<svg id="Layer_1" xmlns="http://www.w3.org/2000/svg" viewBox="0 0 742 240"><style>.st0,.st1,.st2{fill:none;stroke:#2e343a;stroke-miterlimit:10}.st1,.st2{fill:#2e343a}.st2{fill:none;stroke-linejoin:bevel}</style><g id="phone1"><path class="st0" d="M1 30h100v180H1zM101 220v10H1v-10M1 20V10h100v10"/><circle class="st0" cx="51" cy="220" r="5"/><circle class="st0" cx="38.5" cy="20" r="2.5"/><path class="st0" d="M46 20h20"/></g><g id="phone2"><path class="st0" d="M641 30h100v180H641zM741 220v10H641v-10M641 20V10h100v10"/><circle class="st0" cx="691" cy="220" r="5"/><circle class="st0" cx="678.5" cy="20" r="2.5"/><path class="st0" d="M686 20h20"/></g><g id="file1"><path class="st0" d="M86 45v93.333H16V66.098L37.098 45z"/><path class="st1" d="M61.542 91.667L43.271 81.118v21.097z"/><path class="st0" d="M37.098 52.033v14.065H23.033"/></g><g id="file2"><path class="st0" d="M406 45v93.333h-70V66.098L357.098 45z"/><path class="st1" d="M381.542 91.667l-18.271-10.549v21.097z"/><path class="st0" d="M357.098 52.033v14.065h-14.065M111 91.667h225M406 91.667h225"/><path class="st2" d="M621 81.667l10 10-10 10"/></g><g id="coin"><path class="st0" d="M631 190H393.5M348.5 190H111"/><path class="st2" d="M121 200l-10-10 10-10"/><g><circle class="st0" cx="368.5" cy="190" r="20"/><path class="st0" d="M368.5 170h5c11.046 0 20 8.954 20 20s-8.954 20-20 20h-5"/></g></g></svg>