<?xml version="1.0" encoding="utf-8"?>
<!-- Generator: Adobe Illustrator 23.0.4, SVG Export Plug-In . SVG Version: 6.00 Build 0)  -->
<svg version="1.1" id="Layer_1" xmlns="http://www.w3.org/2000/svg" xmlns:xlink="http://www.w3.org/1999/xlink" x="0px" y="0px"
	 viewBox="0 0 131.3 14.7" style="enable-background:new 0 0 131.3 14.7;" xml:space="preserve">
<style type="text/css">
	.st0{fill:#FFFFFF;}
	.st1{fill:#5337C6;}
</style>
<g>
	<path class="st0" d="M10.8,8.8c-0.2,0.4-0.4,0.8-0.7,1.1s-0.6,0.5-1,0.7s-0.8,0.3-1.3,0.3s-0.9-0.1-1.3-0.3s-0.7-0.4-1-0.7
		S5,9.2,4.8,8.8C4.7,8.4,4.6,7.9,4.6,7.4S4.7,6.5,4.8,6C5,5.6,5.2,5.3,5.5,5s0.6-0.5,1-0.7C6.9,4.1,7.3,4,7.8,4s0.9,0.1,1.3,0.3
		c0.4,0.2,0.7,0.4,1,0.7s0.5,0.7,0.7,1.1C10.9,6.5,11,6.9,11,7.4S10.9,8.4,10.8,8.8 M12.2,3.1c-0.6-0.5-1.2-0.9-2-1.1
		C9.5,1.7,8.7,1.6,7.8,1.6S6.1,1.7,5.4,2C4.6,2.2,4,2.6,3.4,3.1C2.9,3.6,2.5,4.3,2.1,5S1.7,6.5,1.7,7.4s0.2,1.7,0.5,2.4
		s0.7,1.4,1.3,1.9c0.5,0.5,1.2,0.9,1.9,1.2s1.6,0.4,2.4,0.4c0.9,0,1.7-0.1,2.4-0.4c0.7-0.3,1.4-0.7,1.9-1.2s1-1.2,1.3-1.9
		s0.5-1.5,0.5-2.4S13.7,5.7,13.4,5S12.7,3.6,12.2,3.1"/>
	<path class="st0" d="M20.4,9.4c0,0.5-0.1,0.9-0.4,1.2c-0.2,0.3-0.6,0.5-1,0.5c-0.2,0-0.4,0-0.6-0.1c-0.1-0.1-0.3-0.2-0.4-0.4
		s-0.2-0.3-0.2-0.5s0-0.4,0-0.6V5.2h-2.6v4.9c0,0.4,0.1,0.8,0.2,1.2c0.1,0.4,0.3,0.7,0.5,1s0.5,0.5,0.9,0.7c0.4,0.2,0.8,0.3,1.3,0.3
		c0.3,0,0.5,0,0.8-0.1c0.2-0.1,0.5-0.2,0.7-0.3s0.4-0.3,0.5-0.4c0.2-0.2,0.3-0.3,0.4-0.5l0,0v1.1H23V5.2h-2.6V9.4z"/>
	<path class="st0" d="M27.8,3.1h-2.6v2.1H24v1.9h1.3v3.3c0,0.4,0,0.8,0.1,1.2c0.1,0.3,0.3,0.6,0.5,0.9c0.2,0.2,0.5,0.4,0.9,0.6
		s0.8,0.2,1.3,0.2c0.3,0,0.5,0,0.8-0.1c0.3,0,0.5-0.1,0.7-0.2v-1.9c-0.1,0-0.2,0.1-0.4,0.1c-0.1,0-0.3,0-0.4,0
		c-0.4,0-0.6-0.1-0.8-0.3c-0.1-0.2-0.2-0.5-0.2-0.8v-3h1.9V5.2h-1.9V3.1z"/>
	<rect x="30.9" y="1.1" class="st0" width="2.6" height="12"/>
	<path class="st0" d="M37.7,1.6c-0.1-0.1-0.3-0.2-0.5-0.3s-0.4-0.1-0.6-0.1c-0.2,0-0.4,0-0.6,0.1c-0.2,0.1-0.3,0.2-0.5,0.3
		c-0.1,0.1-0.2,0.3-0.3,0.5s-0.1,0.4-0.1,0.5c0,0.4,0.1,0.7,0.4,1C35.8,3.9,36.1,4,36.6,4c0.2,0,0.4,0,0.6-0.1
		c0.2-0.1,0.3-0.2,0.5-0.3c0.1-0.1,0.2-0.3,0.3-0.5s0.1-0.4,0.1-0.6s0-0.4-0.1-0.6C38,1.9,37.9,1.8,37.7,1.6"/>
	<rect x="35.4" y="5.2" class="st0" width="2.6" height="7.9"/>
	<path class="st0" d="M41.9,8.2c0-0.2,0.1-0.4,0.2-0.6c0.1-0.2,0.2-0.3,0.4-0.5C42.6,7,42.8,6.9,43,6.8s0.4-0.1,0.7-0.1
		c0.5,0,0.9,0.1,1.2,0.4s0.4,0.6,0.4,1.1C45.3,8.2,41.9,8.2,41.9,8.2z M46.5,6.1c-0.3-0.4-0.8-0.7-1.3-0.8c-0.5-0.2-1-0.3-1.6-0.3
		C43,4.9,42.5,5,42,5.2S41,5.7,40.7,6c-0.4,0.4-0.7,0.8-0.9,1.3s-0.3,1.1-0.3,1.8s0.1,1.3,0.3,1.8s0.5,1,0.9,1.3
		c0.4,0.4,0.9,0.6,1.4,0.8s1.1,0.3,1.7,0.3c0.8,0,1.5-0.1,2.1-0.4c0.6-0.3,1.1-0.7,1.5-1.2l-1.8-1.1c-0.2,0.2-0.4,0.4-0.7,0.6
		c-0.3,0.2-0.6,0.2-1,0.2c-0.2,0-0.5,0-0.7-0.1s-0.4-0.2-0.6-0.3c-0.2-0.1-0.3-0.3-0.4-0.5c-0.1-0.2-0.2-0.4-0.2-0.6h5.7
		c0-0.1,0-0.2,0-0.3V9.2c0-0.7-0.1-1.3-0.3-1.8C47.1,6.9,46.8,6.4,46.5,6.1"/>
	<path class="st0" d="M53.6,5c-0.5,0-0.9,0.1-1.3,0.4c-0.4,0.3-0.7,0.6-0.9,1l0,0V5.2H49v7.9h2.6V9c0-0.2,0-0.3,0.1-0.6
		C51.8,8.2,51.9,8,52,7.8s0.3-0.3,0.6-0.5c0.2-0.1,0.5-0.2,0.9-0.2c0.1,0,0.2,0,0.3,0s0.2,0,0.3,0.1L54.2,5c-0.1,0-0.1,0-0.2,0
		C53.8,5,53.7,5,53.6,5"/>
	<polygon class="st0" points="66.5,1.9 63.6,9.8 63.6,9.8 60.7,1.9 57.9,1.9 62.2,13.1 64.9,13.1 69.2,1.9 	"/>
	<path class="st0" d="M70.5,8.2c0-0.2,0.1-0.4,0.2-0.6s0.2-0.3,0.4-0.5c0.2-0.1,0.3-0.2,0.6-0.3c0.2-0.1,0.4-0.1,0.7-0.1
		c0.5,0,0.9,0.1,1.2,0.4C73.9,7.4,74,7.7,74,8.2H70.5z M75.1,6.1c-0.3-0.4-0.8-0.7-1.3-0.8c-0.5-0.2-1-0.3-1.6-0.3S71,5.1,70.5,5.3
		c-0.5,0.2-1,0.5-1.3,0.8c-0.4,0.4-0.7,0.8-0.9,1.3C68.1,7.9,68,8.5,68,9.2s0.1,1.3,0.3,1.8c0.2,0.5,0.5,1,0.9,1.3
		c0.4,0.4,0.9,0.6,1.4,0.8s1.1,0.3,1.7,0.3c0.8,0,1.5-0.1,2.1-0.4c0.6-0.3,1.1-0.7,1.5-1.2l-1.8-1.1c-0.2,0.2-0.4,0.4-0.7,0.6
		c-0.3,0.2-0.6,0.2-1,0.2c-0.2,0-0.5,0-0.7-0.1s-0.4-0.2-0.6-0.3s-0.3-0.3-0.4-0.5s-0.2-0.4-0.2-0.6h5.7c0-0.1,0-0.2,0-0.3V9.2
		c0-0.7-0.1-1.3-0.3-1.8S75.4,6.4,75.1,6.1"/>
	<path class="st0" d="M84.3,6c-0.2-0.3-0.5-0.5-0.9-0.7C83,5.1,82.6,5,82,5c-0.3,0-0.5,0-0.8,0.1c-0.2,0.1-0.5,0.2-0.7,0.3
		c-0.2,0.1-0.4,0.3-0.5,0.4c-0.2,0.2-0.3,0.3-0.4,0.5l0,0V5.2h-2.5v7.9h2.6V8.8c0-0.2,0-0.4,0.1-0.6c0.1-0.2,0.1-0.4,0.3-0.5
		c0.1-0.2,0.3-0.3,0.4-0.4c0.2-0.1,0.4-0.1,0.6-0.1s0.4,0,0.6,0.1s0.3,0.2,0.4,0.4c0.1,0.2,0.1,0.3,0.2,0.5c0,0.2,0.1,0.4,0.1,0.6
		v4.3H85V8.2c0-0.4-0.1-0.8-0.2-1.2C84.7,6.6,84.5,6.3,84.3,6"/>
	<path class="st0" d="M89.7,3.1h-2.6v2.1h-1.3v1.9h1.3v3.3c0,0.4,0,0.8,0.1,1.2c0.1,0.3,0.2,0.6,0.5,0.9c0.2,0.2,0.5,0.4,0.9,0.6
		s0.8,0.2,1.3,0.2c0.3,0,0.5,0,0.8-0.1c0.3,0,0.5-0.1,0.7-0.2v-1.9c-0.1,0-0.2,0.1-0.4,0.1c-0.1,0-0.3,0-0.4,0
		c-0.4,0-0.6-0.1-0.8-0.3c-0.1-0.2-0.2-0.5-0.2-0.8v-3h1.9V5.2h-1.9L89.7,3.1L89.7,3.1z"/>
	<path class="st0" d="M97.9,9.4c0,0.5-0.1,0.9-0.4,1.2c-0.2,0.3-0.6,0.5-1,0.5c-0.2,0-0.4,0-0.6-0.1c-0.1-0.1-0.3-0.2-0.4-0.4
		s-0.2-0.3-0.2-0.5s0-0.4,0-0.6V5.2h-2.6v4.9c0,0.4,0.1,0.8,0.1,1.2c0.1,0.4,0.3,0.7,0.5,1s0.5,0.5,0.9,0.7s0.8,0.3,1.3,0.3
		c0.3,0,0.5,0,0.8-0.1c0.2-0.1,0.5-0.2,0.7-0.3s0.4-0.3,0.5-0.4c0.2-0.2,0.3-0.3,0.4-0.5l0,0v1.1h2.5V5.2h-2.6L97.9,9.4L97.9,9.4z"
		/>
	<path class="st0" d="M106.7,5c-0.5,0-0.9,0.1-1.3,0.4s-0.7,0.6-0.9,1l0,0V5.2H102v7.9h2.6V9c0-0.2,0-0.3,0.1-0.6
		c0.1-0.2,0.2-0.4,0.3-0.6c0.1-0.2,0.3-0.3,0.6-0.5c0.2-0.1,0.5-0.2,0.9-0.2c0.1,0,0.2,0,0.3,0c0.1,0,0.2,0,0.3,0.1l0.1-2.3
		c-0.1,0-0.1,0-0.2,0C106.9,5,106.8,5,106.7,5"/>
	<path class="st0" d="M110.1,8.2c0-0.2,0.1-0.4,0.2-0.6s0.2-0.3,0.4-0.5c0.2-0.1,0.3-0.2,0.6-0.3c0.2-0.1,0.4-0.1,0.7-0.1
		c0.5,0,0.9,0.1,1.2,0.4c0.3,0.3,0.4,0.6,0.4,1.1H110.1z M114.7,6.1c-0.3-0.4-0.8-0.7-1.3-0.8c-0.5-0.2-1-0.3-1.6-0.3
		s-1.2,0.1-1.7,0.3c-0.5,0.2-1,0.5-1.3,0.8c-0.4,0.4-0.7,0.8-0.9,1.3c-0.2,0.5-0.3,1.1-0.3,1.8s0.1,1.3,0.3,1.8
		c0.2,0.5,0.5,1,0.9,1.3c0.4,0.4,0.9,0.6,1.4,0.8s1.1,0.3,1.7,0.3c0.8,0,1.5-0.1,2.1-0.4c0.6-0.3,1.1-0.7,1.5-1.2l-1.8-1.1
		c-0.2,0.2-0.4,0.4-0.7,0.6c-0.3,0.2-0.6,0.2-1,0.2c-0.2,0-0.5,0-0.7-0.1s-0.4-0.2-0.6-0.3s-0.3-0.3-0.4-0.5s-0.2-0.4-0.2-0.6h5.7
		c0-0.1,0-0.2,0-0.3V9.2c0-0.7-0.1-1.3-0.3-1.8C115.3,6.9,115,6.4,114.7,6.1"/>
	<path class="st0" d="M122.6,8.9c-0.2-0.2-0.5-0.3-0.8-0.5c-0.3-0.1-0.6-0.2-0.9-0.3c-0.5-0.1-0.9-0.2-1.1-0.3
		c-0.2-0.1-0.3-0.3-0.3-0.5s0.1-0.4,0.3-0.5c0.2-0.1,0.4-0.1,0.7-0.1c0.3,0,0.6,0.1,0.9,0.2s0.5,0.3,0.7,0.5l1.4-1.5
		c-0.4-0.4-0.9-0.6-1.4-0.8c-0.6-0.2-1.1-0.3-1.7-0.3c-0.4,0-0.8,0.1-1.1,0.2c-0.4,0.1-0.7,0.3-1.1,0.5c-0.3,0.2-0.6,0.5-0.8,0.8
		c-0.2,0.3-0.3,0.7-0.3,1.2c0,0.4,0.1,0.7,0.2,1s0.3,0.5,0.5,0.7s0.5,0.3,0.7,0.4c0.3,0.1,0.5,0.2,0.8,0.3c0.5,0.1,0.9,0.2,1.2,0.4
		c0.3,0.1,0.4,0.3,0.4,0.5c0,0.3-0.1,0.4-0.3,0.5c-0.2,0.1-0.4,0.2-0.6,0.2c-0.4,0-0.7-0.1-1.1-0.3c-0.3-0.2-0.6-0.4-0.9-0.6
		l-1.5,1.5c0.4,0.4,0.9,0.7,1.5,0.9s1.2,0.3,1.9,0.3c0.4,0,0.8,0,1.2-0.1c0.4-0.1,0.8-0.2,1.1-0.5c0.3-0.2,0.6-0.5,0.8-0.8
		c0.2-0.3,0.3-0.8,0.3-1.3c0-0.4-0.1-0.7-0.2-1C123,9.4,122.8,9.1,122.6,8.9"/>
</g>
<path class="st1" d="M129.5,3.8c0,0.5-0.2,0.9-0.5,1.3c-0.4,0.3-0.8,0.5-1.3,0.5c-0.3,0-0.5,0-0.7-0.1s-0.4-0.2-0.6-0.4
	c-0.2-0.2-0.3-0.3-0.4-0.6c-0.1-0.2-0.1-0.5-0.1-0.7s0-0.5,0.1-0.7s0.2-0.4,0.4-0.6c0.2-0.2,0.4-0.3,0.6-0.4
	c0.2-0.1,0.5-0.1,0.7-0.1c0.5,0,0.9,0.2,1.3,0.5C129.3,2.8,129.5,3.3,129.5,3.8"/>
</svg>
