<?xml version="1.0" standalone="no"?>
<!DOCTYPE svg PUBLIC "-//W3C//DTD SVG 20010904//EN"
 "http://www.w3.org/TR/2001/REC-SVG-20010904/DTD/svg10.dtd">
<svg version="1.0" xmlns="http://www.w3.org/2000/svg"
 width="1768.000000pt" height="1768.000000pt" viewBox="0 0 1768.000000 1768.000000"
 preserveAspectRatio="xMidYMid meet">
<metadata>
Created by potrace 1.11, written by Peter Selinger 2001-2013
</metadata>
<g transform="translate(0.000000,1768.000000) scale(0.100000,-0.100000)"
fill="#000000" stroke="none">
<path d="M8488 17675 c-2 -1 -59 -5 -128 -9 -69 -3 -152 -8 -185 -11 -197 -16
-276 -23 -330 -30 -16 -2 -52 -7 -80 -10 -27 -3 -63 -8 -80 -10 -16 -2 -52 -7
-80 -11 -27 -3 -57 -7 -65 -9 -8 -2 -51 -8 -95 -15 -44 -7 -89 -14 -100 -16
-11 -2 -36 -7 -55 -10 -223 -37 -606 -125 -855 -195 -38 -11 -74 -21 -80 -23
-60 -15 -454 -143 -510 -166 -11 -4 -47 -18 -80 -30 -33 -12 -74 -29 -92 -36
-17 -8 -36 -14 -42 -14 -6 0 -19 -4 -29 -9 -9 -5 -105 -46 -212 -91 -291 -122
-812 -383 -991 -495 -21 -14 -43 -25 -49 -25 -5 0 -10 -4 -10 -8 0 -5 -16 -16
-35 -25 -64 -31 -342 -210 -535 -346 -194 -136 -532 -395 -596 -456 -6 -5 -32
-28 -59 -50 -26 -22 -53 -44 -59 -50 -6 -5 -31 -28 -56 -49 -242 -211 -584
-554 -791 -790 -19 -22 -41 -47 -50 -56 -8 -9 -58 -68 -110 -131 -51 -63 -98
-119 -104 -125 -5 -6 -21 -26 -35 -44 -20 -27 -71 -92 -187 -245 -4 -6 -24
-33 -42 -60 -19 -28 -38 -52 -41 -55 -10 -7 -260 -379 -260 -386 0 -3 -18 -32
-40 -64 -22 -32 -40 -63 -40 -69 0 -5 -4 -11 -8 -13 -5 -1 -15 -15 -23 -30 -8
-14 -57 -100 -109 -190 -103 -178 -321 -605 -389 -763 -114 -262 -128 -296
-205 -500 -128 -339 -234 -683 -320 -1035 -33 -139 -79 -352 -89 -415 -3 -16
-12 -68 -21 -115 -17 -97 -21 -117 -41 -255 -30 -208 -32 -220 -40 -310 -4
-38 -9 -81 -11 -95 -2 -14 -6 -61 -10 -105 -3 -44 -7 -100 -9 -125 -27 -315
-27 -1084 0 -1330 2 -19 6 -66 9 -105 9 -107 16 -173 26 -255 5 -41 12 -100
15 -130 3 -30 8 -62 10 -70 2 -8 7 -40 10 -70 3 -30 8 -62 10 -70 2 -8 7 -35
10 -60 4 -25 11 -67 16 -95 6 -27 12 -68 15 -90 2 -22 7 -46 9 -53 3 -7 16
-70 30 -140 28 -135 120 -511 155 -627 12 -38 27 -92 35 -120 28 -103 157
-483 186 -550 5 -11 29 -73 54 -137 107 -277 337 -768 470 -1003 25 -44 56
-100 69 -125 70 -131 268 -446 420 -665 121 -175 359 -491 431 -571 5 -7 17
-20 25 -30 8 -11 42 -50 74 -89 242 -288 575 -627 896 -911 36 -32 253 -216
280 -237 159 -125 208 -163 275 -214 176 -133 554 -389 612 -416 12 -5 23 -14
23 -19 0 -4 4 -8 9 -8 4 0 61 -32 126 -70 262 -157 730 -400 935 -485 36 -15
85 -36 110 -47 64 -29 125 -54 200 -83 25 -10 54 -21 65 -26 135 -59 685 -242
855 -284 8 -2 78 -20 155 -39 124 -33 262 -65 335 -80 14 -3 84 -17 155 -31
72 -15 141 -28 155 -30 14 -1 66 -10 115 -19 50 -8 110 -18 135 -21 25 -3 56
-7 69 -10 14 -2 47 -7 75 -11 28 -3 62 -7 76 -9 14 -2 57 -6 95 -10 39 -4 77
-9 86 -10 8 -2 55 -6 105 -10 49 -4 105 -9 124 -10 271 -26 1174 -26 1330 -1
14 3 70 7 125 11 55 3 109 8 120 10 11 2 47 7 80 10 33 3 71 7 85 9 14 3 50 7
80 11 30 3 66 7 80 9 31 6 211 33 265 41 22 4 47 8 55 10 8 3 32 7 54 11 48 7
44 6 201 39 408 84 851 211 1230 350 55 21 109 40 120 43 11 2 25 8 30 12 6 4
37 17 70 29 233 87 760 336 1030 488 231 131 239 135 267 154 14 11 31 19 37
19 6 0 11 5 11 10 0 6 4 10 10 10 11 0 204 122 341 216 155 106 174 119 242
169 178 131 508 392 537 424 3 3 34 31 70 61 170 143 460 423 665 642 109 117
212 231 239 267 11 14 23 28 26 31 10 10 116 135 155 185 22 28 45 57 52 65
271 336 672 946 845 1286 15 27 36 68 49 90 26 46 129 253 169 339 15 33 44
95 64 137 20 42 36 79 36 82 0 3 11 29 25 58 128 277 321 837 430 1252 24 91
108 459 118 516 3 14 12 63 21 110 14 77 18 101 31 180 12 75 27 172 40 275 4
28 8 61 10 75 2 14 7 59 10 100 4 41 9 84 11 95 2 11 7 61 10 110 3 50 7 101
10 115 18 112 26 907 11 1145 -13 201 -23 331 -37 460 -6 50 -13 113 -16 140
-3 28 -9 77 -14 110 -5 33 -12 80 -15 105 -3 25 -8 56 -10 70 -3 14 -7 41 -10
60 -12 76 -58 319 -75 400 -10 47 -21 96 -23 110 -12 59 -98 397 -136 525
-162 562 -405 1163 -676 1670 -131 246 -335 589 -442 742 -24 34 -43 66 -43
72 0 5 -4 11 -8 13 -4 2 -39 48 -77 102 -62 91 -251 346 -288 392 -191 232
-278 336 -307 368 -19 21 -39 44 -45 50 -303 340 -646 670 -981 946 -55 45
-108 89 -119 98 -135 112 -525 391 -725 519 -224 143 -567 342 -720 417 -30
15 -96 48 -146 74 -50 26 -95 48 -100 50 -5 2 -51 23 -103 47 -51 25 -95 45
-97 45 -2 0 -29 12 -61 26 -119 54 -269 116 -358 149 -38 14 -79 29 -90 34
-88 38 -441 155 -633 210 -267 77 -678 174 -917 215 -59 10 -281 45 -330 52
-27 3 -61 8 -75 10 -14 2 -50 6 -80 9 -30 3 -69 7 -86 10 -17 2 -57 7 -90 10
-32 3 -72 8 -89 10 -16 2 -79 7 -140 10 -60 4 -130 9 -155 11 -51 5 -857 14
-862 9z"/>
</g>
</svg>
