<?xml version="1.0" standalone="no"?>
<!DOCTYPE svg PUBLIC "-//W3C//DTD SVG 20010904//EN"
 "http://www.w3.org/TR/2001/REC-SVG-20010904/DTD/svg10.dtd">
<svg version="1.0" xmlns="http://www.w3.org/2000/svg"
 width="1768.000000pt" height="1768.000000pt" viewBox="0 0 1768.000000 1768.000000"
 preserveAspectRatio="xMidYMid meet">
<metadata>
Created by potrace 1.11, written by Peter Selinger 2001-2013
</metadata>
<g transform="translate(0.000000,1768.000000) scale(0.100000,-0.100000)"
fill="#000000" stroke="none">
<path d="M8370 17674 c-226 -15 -485 -39 -650 -60 -1517 -192 -2949 -771
-4171 -1686 -1930 -1445 -3183 -3592 -3483 -5968 -52 -411 -61 -567 -61 -1125
0 -557 8 -694 61 -1115 299 -2375 1552 -4523 3483 -5968 1221 -915 2660 -1496
4171 -1686 422 -53 558 -61 1120 -61 562 0 698 8 1120 61 3301 415 6096 2667
7218 5814 250 699 407 1435 479 2235 26 287 26 1149 0 1445 -133 1530 -610
2908 -1443 4166 -1345 2034 -3490 3430 -5887 3834 -530 89 -809 111 -1417 115
-267 1 -510 1 -540 -1z"/>
</g>
</svg>
