<svg id="Layer_1" xmlns="http://www.w3.org/2000/svg" viewBox="0 0 553.6 38"><style>.st0{enable-background:new}.st1{fill:#f8f8f8}</style><g class="st0"><path class="st1" d="M7.3 37.5H0V2h9.6l9.1 25.8L27.8 2h9.6v35.5h-7.3v-9.7l.7-16.8-9.6 26.5h-5L6.6 11l.7 16.7v9.8zM57.9 37.5v-2.4C56.2 37 54 38 51.3 38c-5.2 0-9-3.3-9-7.9 0-5.6 4.3-8.7 12.1-8.7h3.2v-1.5c0-2.4-1.2-4-3.9-4-2.4 0-3.8 1.2-3.8 3.2h-7.1c0-3.1 2-5.8 5.4-7.3 1.7-.7 3.7-1.1 5.8-1.1 6.5 0 10.6 3.4 10.6 9.4v11.8H68v5.7H57.9zm-2.9-12c-3.5 0-5.4 1.2-5.6 3.7v.4c0 1.8 1.3 3 3.5 3 2.1 0 4-1 4.8-2.6v-4.5H55zM70.3 24.1c0-8.2 3.9-13.5 10.4-13.5 2.6 0 4.7 1 6.4 2.9V0h7.1v37.5h-6.7v-2.8c-1.8 2.2-4 3.3-6.8 3.3-6.3 0-10.4-5.2-10.4-13.9zm7.1.5c0 5 1.8 7.7 5.1 7.7 2.2 0 3.7-.9 4.6-2.8V19.1c-.9-1.8-2.4-2.8-4.6-2.8-3.4 0-5.1 2.8-5.1 8.3zM105.7 26.6c.5 3.7 2.3 5.7 5.3 5.7 2.4 0 4.1-.7 4.9-3.3h7.2c-1.5 5.9-5.8 9-12.2 9-7.5 0-12.5-5.2-12.5-13.6V24c0-5.2 2.1-9.5 5.9-11.8 1.9-1.1 4.1-1.7 6.6-1.7 7.1 0 12 4.7 12.5 12.2v1.8c0 .7 0 1.4-.1 2h-17.6zm10.6-4.8c-.5-3.5-2.4-5.5-5.3-5.5-2.8 0-4.6 1.8-5.2 5.5h10.5zM148.6 27.9l4.8-16.8h5.1l4.8 16.8 3.5-16.8h6.8l-6.7 26.4H161l-5-16.6-5 16.6h-6l-6.7-26.4h6.8l3.5 16.8zM177.4 0h7.1v6.4h-7.1V0zm26.8 37.5V16.8h-19.7v20.7h-7.1V11.1h26.7V4.6h7.1v6.5h4.5v5.7h-4.5v15h4.8v5.7h-11.8zM219.8 37.5V0h7.1v14c1.9-2.2 4.2-3.4 7.1-3.4 5.7 0 8.6 3.3 8.7 10v16.9h-7.1V20.8c0-3-1.2-4.4-4.2-4.4-2.1 0-3.6.8-4.5 2.4v18.8h-7.1zM324.9 20.6v16.9h-7.1V20.8c0-3-1.2-4.4-4.2-4.4-2.1 0-3.6.8-4.5 2.4v18.8H302V7.9h-26.9v29.6h-7.3V7.9h-10.7V2h52v12c1.9-2.2 4.2-3.4 7.1-3.4 5.7 0 8.7 3.3 8.7 10zM336.3 26.6c.5 3.7 2.3 5.7 5.3 5.7 2.4 0 4.1-.7 4.9-3.3h7.2c-1.5 5.9-5.8 9-12.2 9-7.5 0-12.5-5.2-12.5-13.6V24c0-5.2 2.1-9.5 5.9-11.8 1.9-1.1 4.1-1.7 6.6-1.7 7.1 0 12 4.7 12.5 12.2v1.8c0 .7 0 1.4-.1 2h-17.6zm10.6-4.8c-.5-3.5-2.4-5.5-5.3-5.5-2.8 0-4.6 1.8-5.2 5.5h10.5zM399.3 25.7c-.6 7.6-6 12.3-14.3 12.3-9.1 0-14.7-6.5-14.7-17.2v-2.2c0-6.8 2.5-12.3 7-15 2.2-1.4 4.8-2.1 7.8-2.1 8.2 0 13.5 4.6 14.3 12.5h-7.3c-.4-4.6-2.4-6.5-6.9-6.5-4.9 0-7.3 3.4-7.3 10.8V21c0 7.7 2.2 11.1 7.3 11.1 4.5 0 6.7-2 7-6.3h7.1zM402.6 24c0-5.2 2.1-9.5 5.9-11.8 1.9-1.1 4.1-1.7 6.6-1.7 7.1 0 12 4.7 12.5 12.2v1.8c0 8.1-4.9 13.4-12.5 13.4s-12.5-5.2-12.5-13.6V24zm7 .6c0 5 2 7.7 5.5 7.7 3.4 0 5.4-2.5 5.4-8.3 0-4.9-2-7.7-5.5-7.7-3.4 0-5.4 2.6-5.4 8.3zM430.9 24.1c0-8.2 3.9-13.5 10.4-13.5 2.6 0 4.7 1 6.4 2.9V0h7.1v37.5h-6.7v-2.8c-1.8 2.2-4 3.3-6.8 3.3-6.4 0-10.4-5.2-10.4-13.9zm7 .5c0 5 1.8 7.7 5.1 7.7 2.2 0 3.7-.9 4.6-2.8V19.1c-.9-1.8-2.4-2.8-4.6-2.8-3.4 0-5.1 2.8-5.1 8.3zM466.2 26.6c.5 3.7 2.3 5.7 5.3 5.7 2.4 0 4.1-.7 4.9-3.3h7.2c-1.5 5.9-5.8 9-12.2 9-7.5 0-12.5-5.2-12.5-13.6V24c0-5.2 2.1-9.5 5.9-11.8 1.9-1.1 4.1-1.7 6.6-1.7 7.1 0 12 4.7 12.5 12.2v1.8c0 .7 0 1.4-.1 2h-17.6zm10.6-4.8c-.5-3.5-2.4-5.5-5.3-5.5-2.8 0-4.6 1.8-5.2 5.5h10.5zM495.8 0v6.4h-7.1V0h7.1zm0 11.1v26.4h-7.1V11.1h7.1zM508.6 37.5h-7.1V11.1h6.9v3.1c1.9-2.4 4.4-3.5 7.6-3.5 5.6 0 8.3 3.3 8.3 9.8v17.1h-7.1v-17c0-3-1.2-4.3-4.2-4.3-2 0-3.5.9-4.5 2.5v18.7zM535.7 26.6c.5 3.7 2.3 5.7 5.3 5.7 2.4 0 4.1-.7 4.9-3.3h7.2c-1.5 5.9-5.8 9-12.2 9-7.5 0-12.5-5.2-12.5-13.6V24c0-5.2 2.1-9.5 5.9-11.8 1.9-1.1 4.1-1.7 6.6-1.7 7.1 0 12 4.7 12.5 12.2v1.8c0 .7 0 1.4-.1 2h-17.6zm10.7-4.8c-.5-3.5-2.4-5.5-5.3-5.5-2.8 0-4.6 1.8-5.2 5.5h10.5z"/></g></svg>