<svg id="Layer_1" xmlns="http://www.w3.org/2000/svg" viewBox="0 0 142.242 24"><style>.st0{fill:#2e343a}</style><path class="st0" d="M6.381 0H0v18.084h6.381c2.713 0 4.909-.853 6.536-2.583s2.428-3.875 2.428-6.459c0-2.713-.827-4.883-2.48-6.562C11.212.827 9.042 0 6.381 0zm3.901 13.408c-.956 1.008-2.351 1.524-4.133 1.524h-2.61V3.178h2.609c1.783 0 3.178.517 4.133 1.524s1.447 2.454 1.447 4.34-.49 3.358-1.446 4.366zM27.539 5.735c-1.008-.878-2.403-1.318-4.185-1.318s-3.152.439-4.108 1.292c-.982.853-1.473 1.963-1.473 3.281h3.255c0-.491.207-.904.594-1.24.388-.336.956-.491 1.653-.491.801 0 1.369.181 1.757.543.388.362.568.827.568 1.421v.749h-2.997c-1.808 0-3.152.362-4.056 1.111s-1.369 1.783-1.369 3.048c0 1.214.413 2.222 1.266 2.997.827.801 1.963 1.188 3.436 1.188 1.679 0 2.919-.543 3.746-1.628h.103l.258 1.395h3.074V9.197c.002-1.421-.514-2.558-1.522-3.462zm-1.937 7.363c0 .698-.258 1.266-.775 1.757-.543.491-1.24.723-2.118.723-.672 0-1.188-.155-1.55-.439-.362-.284-.543-.672-.543-1.163s.181-.904.568-1.188c.388-.284.93-.413 1.679-.413h2.738v.723zM37.124 14.622c-.284-.284-.413-.723-.413-1.369V7.595h3.229V4.65h-3.23V1.111h-3.333V4.65h-2.325v2.945h2.196v6.407c0 1.266.336 2.248 1.033 2.971.698.749 1.757 1.111 3.178 1.111h2.532v-3.023h-1.55c-.594 0-1.033-.155-1.317-.439zM52.34 5.735c-1.008-.878-2.403-1.318-4.185-1.318-1.783 0-3.152.439-4.108 1.292-.982.853-1.473 1.963-1.473 3.281h3.255c0-.491.207-.904.594-1.24s.956-.491 1.653-.491c.801 0 1.369.181 1.757.543.388.362.568.827.568 1.421v.749h-2.997c-1.808 0-3.152.362-4.056 1.111s-1.369 1.783-1.369 3.048c0 1.214.413 2.222 1.266 2.997.827.801 1.963 1.188 3.436 1.188 1.679 0 2.919-.543 3.746-1.628h.103l.258 1.395h3.074V9.197c.002-1.421-.515-2.558-1.522-3.462zm-1.938 7.363c0 .698-.258 1.266-.775 1.757-.543.491-1.24.723-2.118.723-.672 0-1.188-.155-1.55-.439-.362-.284-.543-.672-.543-1.163s.181-.904.568-1.188c.388-.284.93-.413 1.679-.413h2.738v.723zM107.599 7.156h-7.828V0h-3.539v18.084h3.539v-7.75h7.828v7.75h3.539V0h-3.539zM120.309 4.418c-2.093 0-3.694.646-4.831 1.938s-1.705 2.971-1.705 5.038.568 3.746 1.705 5.012c1.111 1.266 2.738 1.912 4.831 1.912s3.694-.646 4.831-1.938c1.111-1.266 1.679-2.945 1.679-4.986 0-2.067-.568-3.746-1.705-5.038-1.136-1.292-2.738-1.938-4.805-1.938zm0 10.85c-1.989 0-2.997-1.292-2.997-3.875 0-2.609 1.008-3.927 2.997-3.927s2.997 1.318 2.997 3.927c0 2.583-1.007 3.875-2.997 3.875zM140.744 6.329c-1.008-1.266-2.325-1.912-4.004-1.912-1.628 0-2.868.568-3.72 1.679h-.103l-.362-1.447h-3.1V24h3.462v-7.363h.103c.853 1.111 2.093 1.679 3.72 1.679 1.705 0 3.048-.646 4.03-1.938s1.473-2.945 1.473-4.986c-.001-2.092-.492-3.771-1.499-5.063zm-2.713 7.854c-.491.723-1.24 1.085-2.273 1.085s-1.783-.362-2.248-1.085c-.491-.698-.723-1.628-.723-2.79s.232-2.093.723-2.842c.491-.723 1.24-1.085 2.248-1.085 1.033 0 1.783.362 2.273 1.085.465.723.698 1.679.698 2.842s-.233 2.092-.698 2.79zM75.048 0c-9.987 0-18.084 8.096-18.084 18.084h3.539c0-8.033 6.512-14.545 14.545-14.545s14.545 6.512 14.545 14.545h3.539C93.132 8.096 85.036 0 75.048 0z"/></svg>