<svg id="Layer_1" xmlns="http://www.w3.org/2000/svg" viewBox="0 0 742 240"><style>.st0{fill:none}.st0,.st1{stroke:#2e343a;stroke-miterlimit:10}.st1,.st2,.st3{fill:#2e343a}.st3{stroke:#2e343a;stroke-linejoin:bevel;stroke-miterlimit:10}</style><g id="Plane"><path class="st0" d="M1 129.334l370 86.154 370-86.154L371 43.18zM667 112.103l-370 86.154M593 94.873l-370 86.153M519 77.642l-370 86.154M445 60.411L75 146.565M297 60.411l370 86.154M223 77.642l370 86.154M149 94.873l370 86.153M75 112.103l370 86.154"/><path class="st1" d="M371 215.488l327.054-76.154 42.946 10-370 86.154L1 149.334l42.946-10z"/></g><g id="Nodes"><circle class="st2" cx="519" cy="129.334" r="2.154"/><path class="st0" d="M519 129.334v17.231"/><circle class="st2" cx="297" cy="181.026" r="2.154"/><path class="st0" d="M297 181.026v17.231"/><circle class="st2" cx="75" cy="129.334" r="2.154"/><path class="st0" d="M75 129.334v17.231"/><circle class="st2" cx="519" cy="163.796" r="2.154"/><path class="st0" d="M519 163.796v17.23"/><circle class="st2" cx="297" cy="146.565" r="2.154"/><path class="st0" d="M297 146.565v17.231"/><circle class="st2" cx="297" cy="77.642" r="2.154"/><path class="st0" d="M297 77.642v17.231"/><circle class="st2" cx="445" cy="112.103" r="2.154"/><path class="st0" d="M445 112.103v17.231"/><g><circle class="st2" cx="593" cy="112.103" r="2.154"/><path class="st0" d="M593 112.103v17.231"/></g><g><circle class="st2" cx="371" cy="163.796" r="2.154"/><path class="st0" d="M371 163.796v17.23"/></g><g><circle class="st2" cx="667" cy="94.873" r="2.154"/><path class="st0" d="M667 94.873v17.23"/></g><g><circle class="st2" cx="223.178" cy="94.831" r="2.154"/><path class="st0" d="M223.178 94.831v17.231"/></g><g><circle class="st2" cx="149" cy="112.103" r="2.154"/><path class="st0" d="M149 112.103v17.231"/></g><g><circle class="st2" cx="149" cy="77.642" r="2.154"/><path class="st0" d="M149 77.642v17.231"/></g><path class="st3" d="M371 92.83l5.596 19.385-5.596 1.303-5.596-1.303z"/></g><g id="Hops1"><path class="st0" d="M371 88.411c0-23.196-16.565-45.959-37-50.843s-37 9.961-37 33.157M445 106.097c0-23.196-16.565-45.959-37-50.843s-37 9.961-37 33.157"/><path class="st0" d="M519 123.784c0-46.392-33.131-91.918-74-101.686s-74 19.922-74 66.314M297 140.108c0-23.196 16.565-53.573 37-67.849s37-7.045 37 16.151"/><path class="st0" d="M371 88.411c0-46.336-33.091-83.899-73.911-83.899s-73.911 37.563-73.911 83.899"/></g><g id="Hops2"><path class="st0" d="M149.178 106.097c0-23.196 16.565-45.959 37-50.843s37 9.961 37 33.157M519 123.784c0-23.196 16.565-45.959 37-50.843s37 9.961 37 33.157M371 157.795c0-23.196-16.565-45.959-37-50.843s-37 9.961-37 33.157"/><path class="st0" d="M223.178 88.411c0-23.196-16.565-45.959-37-50.843s-37 9.961-37 33.157"/></g></svg>