<svg id="Layer_1" xmlns="http://www.w3.org/2000/svg" viewBox="0 0 742 240"><style>.st0{fill:none;stroke:#2e343a;stroke-miterlimit:10}</style><g id="Money1"><path class="st0" d="M1 10.001v100M11 10.001v100M21 10.001v100M31 10.001v100M41 10.001v100M51 10.001v100M61 10.001v100M71 10.001v100M81 10.001v100M91 10.001v100M101 10.001v100M111 10.001v100M121 10.001v100M131 10.001v100M141 10.001v100M151 10.001v100M161 10.001v100M171 10.001v100M181 10.001v100M191 10.001v100M201 10.001v100M211 10.001v100M221 10.001v100M231 10.001v100M241 10.001v100M251 10.001v100M261 10.001v100M271 10.001v100M281 10.001v100M291 10.001v100M301 10.001v100M311 10.001v100M321 10.001v100M331 10.001v100M341 10.001v100M351 10.001v100M361 10.001v100M371 10.001v100M381 10.001v100M391 10.001v100M401 10.001v100M411 10.001v100M421 10.001v100M431 10.001v100M441 10.001v100M451 10.001v100M461 10.001v100M471 10.001v100M481 10.001v100M491 10.001v100M501 10.001v100M511 10.001v100M521 10.001v100M531 10.001v100M541 10.001v100M551 10.001v100M561 10.001v100M571 10.001v100M581 10.001v100M591 10.001v100M601 10.001v100M611 10.001v100M621 10.001v100M631 10.001v100M641 10.001v100M651 10.001v100M661 10.001v100M671 10.001v100M681 10.001v100"/><g><path class="st0" d="M691 10h50v100h-50z"/><path class="st0" d="M701 73.198C704.665 77.36 710.018 80 716 80s11.335-2.64 15-6.802M731 46.802C727.335 42.64 721.982 40 716 40s-11.335 2.64-15 6.802"/></g></g><g id="Money2"><path class="st0" d="M321 130h50v100h-50zM1 130v100M11 130v100M21 130v100M31 130v100M41 130v100M51 130v100M61 130v100M71 130v100M81 130v100M91 130v100M101 130v100M111 130v100M121 130v100M131 130v100M141 130v100M151 130v100M161 130v100M171 130v100M181 130v100M191 130v100M201 130v100M211 130v100M221 130v100M231 130v100M241 130v100M251 130v100M261 130v100M271 130v100M281 130v100M291 130v100M301 130v100M311 130v100"/><g><path class="st0" d="M331 193.198c3.665 4.162 9.018 6.802 15 6.802s11.335-2.64 15-6.802M361 166.802c-3.665-4.162-9.018-6.802-15-6.802s-11.335 2.64-15 6.802"/></g></g></svg>