<svg id="Layer_1" xmlns="http://www.w3.org/2000/svg" viewBox="0 0 638 360"><style>.st0{fill:none;stroke:#2e343a;stroke-miterlimit:10}.st1,.st2{fill:#2e343a}.st1{stroke:#2e343a;stroke-miterlimit:10;stroke-linejoin:round}.st2{stroke-linejoin:bevel}.st2,.st3{stroke:#2e343a;stroke-miterlimit:10}.st3,.st4{fill:#2e343a}</style><path class="st0" d="M602.267 221.302v-81.203h-21.654v-12.688h-10.151v12.688h-26.729v50.752h6.429v115.461h5.075l14.549-96.429"/><path class="st0" d="M576.214 209.883l14.549 96.429h5.075v-85.01M567.925 113.454h12.688v13.957h-12.688zM565.387 179.431v-12.688h10.151v12.688"/><path class="st1" d="M570.462 132.486l10.151-5.075h-10.151z"/><path class="st2" d="M550.162 195.926v-5.075h25.376z"/><path class="st0" d="M595.838 221.302v-41.871M550.162 190.851h25.376v-11.42h-25.376"/><circle class="st3" cx="570.462" cy="170.55" r=".634"/><path class="st0" d="M633 306.312H513"/><path class="st4" d="M526.182 61.965c-.561 0-1.051.112-1.457.322-.42.21-.742.505-.966.883a4.135 4.135 0 0 0-.49 1.219 6.02 6.02 0 0 0-.168 1.456c0 1.107.252 2.032.742 2.774s1.261 1.106 2.339 1.106c1.079 0 1.863-.364 2.354-1.106s.729-1.667.729-2.774c0-1.106-.238-2.03-.729-2.773-.49-.743-1.274-1.107-2.354-1.107zM588.191 43.965c-.561 0-1.051.112-1.457.322-.42.21-.742.505-.966.883a4.135 4.135 0 0 0-.49 1.219 6.02 6.02 0 0 0-.168 1.456c0 1.107.252 2.031.742 2.774.49.742 1.261 1.106 2.339 1.106 1.079 0 1.863-.364 2.354-1.106.49-.743.729-1.667.729-2.774 0-1.106-.238-2.03-.729-2.773-.49-.743-1.275-1.107-2.354-1.107zM534.411 44.806c-.826 0-1.442.252-1.877.771-.435.518-.645 1.274-.645 2.269 0 .995.225 1.737.658 2.256.435.519 1.051.784 1.863.784s1.443-.266 1.877-.784c.435-.519.645-1.261.645-2.256 0-.994-.21-1.751-.645-2.269-.433-.519-1.063-.771-1.876-.771zM544.91 44.903h-2.171v2.424h2.171c.406 0 .715-.126.911-.364.195-.238.294-.532.294-.883 0-.322-.099-.603-.294-.84-.211-.224-.505-.337-.911-.337zM567.932 26.806c-.826 0-1.442.252-1.877.771-.435.518-.645 1.274-.645 2.269 0 .995.225 1.737.658 2.256.435.519 1.051.784 1.863.784s1.443-.266 1.877-.784c.435-.519.645-1.261.645-2.256 0-.994-.21-1.751-.645-2.269-.433-.519-1.064-.771-1.876-.771zM600.263 50.562c.546-.714.812-1.61.812-2.718 0-1.092-.266-2.003-.812-2.717-.547-.715-1.359-1.064-2.424-1.064h-1.905v7.578h1.905c1.064.001 1.877-.364 2.424-1.079zM568.119 63.898c0-.574-.169-1.037-.49-1.359-.337-.322-.812-.476-1.415-.476h-2.592v3.684h2.592c.616 0 1.093-.168 1.415-.49.321-.322.49-.771.49-1.359zM557.578 26.806c-.826 0-1.442.252-1.877.771-.435.518-.645 1.274-.645 2.269 0 .995.225 1.737.658 2.256.435.519 1.051.784 1.863.784s1.443-.266 1.877-.784c.435-.519.645-1.261.645-2.256 0-.994-.21-1.751-.645-2.269-.433-.519-1.063-.771-1.876-.771zM600.271 62.301l-1.722 4.791h3.502l-1.723-4.791zM611.447 64.725c.336-.267.505-.687.505-1.232 0-.463-.154-.827-.449-1.079-.308-.252-.742-.378-1.302-.378h-2.592v3.109h2.438c.588 0 1.051-.14 1.4-.42zM610.299 66.209h-2.689v3.433h2.689c.603 0 1.078-.154 1.457-.462.364-.295.546-.715.546-1.261 0-.561-.168-.981-.519-1.275-.35-.294-.854-.435-1.484-.435zM567.891 47.537c.364-.351.547-.841.547-1.499 0-.63-.183-1.12-.561-1.471-.379-.351-.911-.519-1.569-.519h-2.241v4.021h2.241c.687 0 1.206-.182 1.583-.532z"/><path class="st4" d="M513 15.351v65h120v-65H513zm103.6 29.483l2.438-1.892h1.204v9.806h-1.19v-8.475h-.056l-2.256 1.765h-.14v-1.204zm-6.24 2.297v1.12h-4.65v3.391h5.085v1.106h-6.304v-9.806h6.304v1.121h-5.085v3.067h4.65zm-11.869-20.9c.826-.938 1.988-1.415 3.516-1.415 1.219 0 2.213.336 2.997 1.009.785.687 1.233 1.526 1.345 2.535h-2.241a1.92 1.92 0 0 0-.63-1.12c-.351-.295-.841-.435-1.471-.435-.812 0-1.429.266-1.863.784s-.645 1.274-.645 2.27c0 .994.21 1.736.645 2.255s1.051.784 1.863.784c1.162 0 1.863-.504 2.115-1.498h-1.835v-1.947h4.132v1.106c0 1.303-.406 2.339-1.232 3.124-.826.798-1.877 1.19-3.18 1.19-1.513 0-2.676-.477-3.502-1.415s-1.247-2.143-1.247-3.6c0-1.469.406-2.688 1.233-3.627zm-15.123-1.289h2.213v9.806h-2.213v-9.806zm-20.519 18h3.614c.994 0 1.779.28 2.367.854.574.574.868 1.316.868 2.241 0 .938-.294 1.709-.882 2.283-.589.574-1.373.868-2.354.868h-2.396v3.559h-1.219v-9.805zm-37.041-14.82l.435-3.18h1.387v.141l-.868 3.18h-.953v-.141zm-3.408-3.18h1.233v9.806H522.4v-9.806zm-.42 18h7.004v1.961h-4.805v2.087h4.37v1.962h-4.37v3.796h-2.199v-9.806zm7.452 26.532c-.729.938-1.807 1.4-3.25 1.4-1.442 0-2.521-.462-3.25-1.4-.728-.925-1.092-2.13-1.092-3.629 0-1.498.364-2.703 1.092-3.642.715-.925 1.808-1.387 3.25-1.387 1.443 0 2.521.462 3.25 1.387.729.938 1.093 2.144 1.093 3.642 0 1.485-.364 2.69-1.093 3.629zm9.423-7.411h-4.931v3.291h4.455v1.121h-4.455v4.272h-1.219v-9.806h6.149v1.122zm-.914-10.604c-.826.938-2.003 1.415-3.53 1.415-1.526 0-2.689-.477-3.516-1.415s-1.247-2.143-1.247-3.614.421-2.689 1.247-3.628 1.989-1.4 3.516-1.4 2.704.462 3.53 1.4 1.232 2.157 1.232 3.628c.001 1.471-.406 2.676-1.232 3.614zm1.275-16.711h-1.162V26.89h-.057l-3.474 6.178h-.14l-3.475-6.22h-.056v7.9h-1.163v-9.806h1.443l3.306 5.981h.056l3.306-5.981h1.415v9.806zm3.523 14.54v3.46h-2.199v-9.806h4.482c1.009 0 1.821.309 2.438.91.603.603.91 1.345.91 2.214 0 .7-.168 1.303-.504 1.82a3.023 3.023 0 0 1-1.429 1.135l2.367 3.586v.141h-2.577l-2.115-3.46h-1.373zm8.253 20.83c-.658.504-1.555.756-2.689.756-1.162 0-2.073-.28-2.703-.826-.645-.547-.98-1.303-1.009-2.241h1.247c.042.616.266 1.093.7 1.442.42.351 1.009.519 1.765.519 1.597 0 2.396-.574 2.396-1.709 0-.448-.154-.799-.448-1.051-.294-.238-.729-.42-1.303-.546l-1.429-.309c-.868-.182-1.513-.49-1.947-.925-.434-.42-.658-.994-.658-1.723 0-.826.294-1.484.896-1.975.603-.477 1.429-.715 2.508-.715 1.05 0 1.891.267 2.521.799.63.546.952 1.246.966 2.115h-1.246c-.028-.547-.225-.995-.603-1.317s-.938-.476-1.667-.476c-1.4 0-2.102.518-2.102 1.568 0 .729.561 1.219 1.667 1.457l1.331.28c1.863.378 2.787 1.316 2.787 2.815.001.885-.322 1.571-.98 2.062zm1.451-35.37h-6.653v-9.806h2.199v7.845h4.454v1.961zm7.955 27.315h-5.085v3.067h4.65v1.12h-4.65v3.391h5.085v1.106h-6.304v-9.806h6.304v1.122zm.446-18h-5.085v3.067h4.65v1.12h-4.65v3.391h5.085v1.106h-6.304v-9.806h6.304v1.122zm.264-10.604c-.826.938-2.003 1.415-3.53 1.415-1.526 0-2.689-.477-3.516-1.415s-1.247-2.143-1.247-3.614.421-2.689 1.247-3.628 1.989-1.4 3.516-1.4 2.704.462 3.53 1.4 1.232 2.157 1.232 3.628c.001 1.471-.406 2.676-1.232 3.614zm8.804 37.289h-1.331l-2.577-3.88h-2.382v3.88h-1.219v-9.806h3.881c.966 0 1.736.28 2.283.826.546.547.826 1.261.826 2.115 0 .715-.183 1.317-.561 1.808s-.896.84-1.555 1.022l2.634 3.895v.14zm-1.98-35.874c-1.526 0-2.689-.477-3.516-1.415s-1.247-2.143-1.247-3.614.421-2.689 1.247-3.628 1.989-1.4 3.516-1.4 2.704.462 3.53 1.4 1.232 2.157 1.232 3.628c0 1.472-.406 2.676-1.232 3.614s-2.003 1.415-3.53 1.415zm3.711 8.068h1.233v9.806h-1.233v-9.806zm1.264 27.806h-1.233v-9.806h1.233v9.806zm8.947-8.685h-5.085v3.067h4.65v1.12h-4.65v3.391h5.085v1.106h-6.304v-9.806h6.304v1.122zm-.543-9.946c-.658.505-1.555.757-2.689.757-1.162 0-2.073-.28-2.703-.826-.645-.547-.98-1.303-1.009-2.241h1.247c.042.616.266 1.092.7 1.442.42.351 1.009.519 1.765.519 1.597 0 2.396-.574 2.396-1.709 0-.448-.154-.799-.448-1.051-.294-.238-.729-.42-1.303-.546l-1.429-.309c-.868-.182-1.513-.49-1.947-.925-.434-.42-.658-.994-.658-1.723 0-.826.294-1.484.896-1.975.603-.477 1.429-.715 2.508-.715 1.05 0 1.891.267 2.521.799.631.546.953 1.246.967 2.115h-1.246c-.028-.547-.225-.995-.603-1.317s-.938-.476-1.667-.476c-1.4 0-2.102.518-2.102 1.568 0 .729.561 1.219 1.667 1.457l1.331.28c1.863.378 2.787 1.316 2.787 2.815 0 .884-.322 1.571-.981 2.061zm1.097-17.369h-2.605l-3.544-4.062v4.062h-2.199v-9.806h2.199v3.712l3.404-3.712h2.577v.141l-4.217 4.566 4.385 4.958v.141zm7.184 35.37c-.658.504-1.555.756-2.689.756-1.162 0-2.073-.28-2.703-.826-.645-.547-.98-1.303-1.009-2.241h1.247c.042.616.266 1.093.7 1.442.42.351 1.009.519 1.765.519 1.597 0 2.396-.574 2.396-1.709 0-.448-.154-.799-.448-1.051-.294-.238-.729-.42-1.303-.546l-1.429-.309c-.868-.182-1.513-.49-1.947-.925-.434-.42-.658-.994-.658-1.723 0-.826.294-1.484.896-1.975.603-.477 1.429-.715 2.508-.715 1.05 0 1.891.267 2.521.799.63.546.952 1.246.966 2.115h-1.246c-.028-.547-.225-.995-.603-1.317s-.938-.476-1.667-.476c-1.4 0-2.102.518-2.102 1.568 0 .729.561 1.219 1.667 1.457l1.331.28c1.863.378 2.787 1.316 2.787 2.815 0 .885-.322 1.571-.98 2.062zm1.849-18.645c-.729.939-1.807 1.401-3.25 1.401-1.442 0-2.521-.462-3.25-1.401-.728-.924-1.092-2.129-1.092-3.628 0-1.498.364-2.703 1.092-3.642.715-.925 1.808-1.387 3.25-1.387 1.443 0 2.521.462 3.25 1.387.729.938 1.093 2.144 1.093 3.642 0 1.485-.364 2.689-1.093 3.628zm-1.76-23.084h-.057v6.359h-2.171v-9.806h2.592l3.613 6.401h.057v-6.401h2.185v9.806h-2.605l-3.614-6.359zm5.034 14.553h3.25c1.373 0 2.451.448 3.222 1.331.771.882 1.148 2.073 1.148 3.571 0 1.443-.378 2.62-1.12 3.53-.757.91-1.835 1.373-3.25 1.373h-3.25v-9.805zm9.955 27.806h-1.303l-.925-2.563h-4.286l-.924 2.563h-1.275v-.14l3.601-9.666h1.498l3.614 9.666v.14zm8.066-.757c-.561.505-1.331.757-2.298.757h-4.034v-9.806h3.937c.841 0 1.526.225 2.059.673.533.462.799 1.078.799 1.877 0 .966-.406 1.639-1.232 2.003v.056c1.064.435 1.597 1.219 1.597 2.368-.002.882-.282 1.582-.828 2.072zm3.817-2.689c.098.448.266.854.504 1.233.238.378.561.672.967.882s.882.322 1.429.322c1.526 0 2.423-.729 2.676-2.171h1.246c-.14 1.036-.546 1.849-1.204 2.423-.659.589-1.569.883-2.718.883-1.387 0-2.451-.448-3.194-1.358-.756-.911-1.134-2.129-1.134-3.656 0-1.541.378-2.773 1.134-3.685.757-.91 1.821-1.358 3.194-1.358 1.162 0 2.073.309 2.76.91.672.603 1.064 1.443 1.162 2.494h-1.261c-.084-.701-.35-1.247-.784-1.653-.448-.406-1.079-.603-1.877-.603-.547 0-1.022.112-1.429.322s-.729.505-.967.883-.406.798-.504 1.232c-.112.448-.168.938-.168 1.457s.055 1.009.168 1.443z"/><path class="st1" d="M523 90.351h11.513v11.513H523zM540.346 107.697h5.757v5.757h-5.757z"/><g><path class="st0" d="M94.267 221.302v-81.203H72.613v-12.688H62.462v12.688H35.733v50.752h6.429v115.461h5.075l14.549-96.429"/><path class="st0" d="M68.214 209.883l14.549 96.429h5.075v-85.01M62.462 113.454H75.15v13.957H62.462zM57.387 179.431v-12.688h10.151v12.688"/><path class="st1" d="M72.613 132.486l-10.151-5.075h10.151z"/><path class="st2" d="M42.162 195.926v-5.075h25.376z"/><path class="st0" d="M87.838 221.302v-41.871M42.162 190.851h25.376v-11.42H42.162"/><circle class="st3" cx="62.462" cy="170.55" r=".634"/><path class="st0" d="M125 306.312H5"/></g><g><path class="st4" d="M92.272 62.301l-1.723 4.79h3.502l-1.722-4.79zM57.7 44.063h-1.905v7.578H57.7c1.064 0 1.877-.364 2.423-1.079.547-.714.812-1.611.812-2.718 0-1.092-.266-2.003-.812-2.717s-1.359-1.064-2.423-1.064zM18.183 61.965c-.561 0-1.051.112-1.457.322-.42.21-.742.504-.966.882a4.146 4.146 0 0 0-.49 1.219 6.023 6.023 0 0 0-.168 1.457c0 1.107.252 2.032.742 2.774s1.261 1.106 2.339 1.106c1.079 0 1.863-.364 2.354-1.106s.729-1.667.729-2.774c0-1.106-.238-2.031-.729-2.773-.491-.743-1.275-1.107-2.354-1.107zM60.12 63.898c0-.574-.169-1.037-.49-1.359-.337-.322-.812-.476-1.415-.476h-2.592v3.684h2.592c.616 0 1.093-.168 1.415-.491.321-.321.49-.77.49-1.358zM50.407 50.619c.49-.743.729-1.667.729-2.774 0-1.106-.238-2.031-.729-2.773-.49-.742-1.274-1.106-2.354-1.106-.561 0-1.051.112-1.457.322-.42.21-.742.504-.966.882a4.146 4.146 0 0 0-.49 1.219 6.023 6.023 0 0 0-.168 1.457c0 1.107.252 2.031.742 2.774.49.742 1.261 1.106 2.339 1.106 1.079-.001 1.863-.365 2.354-1.107zM36.2 27.142l-1.192 3.81h2.438l-1.191-3.81z"/><path class="st4" d="M5 15.351v65h120v-65H5zm71.461 29.482l2.438-1.891h1.204v9.805h-1.19v-8.475h-.056l-2.256 1.765h-.14v-1.204zm-12.109-1.891h6.304v1.121h-5.085v3.067h4.65v1.121h-4.65v3.39h5.085v1.106h-6.304v-9.805zm-13.29-18h7.004v1.961h-4.805v1.807h4.37v1.961h-4.37V32.8h4.805v1.947h-7.004v-9.805zm-10.569 0H43l2.27 7.186h.056l2.228-7.186h2.549v.14l-3.46 9.665h-2.647l-3.502-9.665v-.14zm-18.281 0h2.199v3.754h3.937v-3.754h2.199v9.805h-2.199v-4.076h-3.937v4.076h-2.199v-9.805zm-7.811 0h1.233v9.805h-1.233v-9.805zm0 18h6.304v1.121H15.62v3.067h4.65v1.121h-4.65v3.39h5.085v1.106h-6.304v-9.805zm7.032 26.531c-.729.938-1.807 1.4-3.25 1.4-1.442 0-2.521-.462-3.25-1.4-.728-.925-1.092-2.13-1.092-3.628s.364-2.703 1.092-3.642c.715-.925 1.808-1.387 3.25-1.387 1.443 0 2.521.462 3.25 1.387.729.938 1.093 2.143 1.093 3.642 0 1.485-.364 2.69-1.093 3.628zm2.495-16.725h-1.219v-9.805h3.614c.994 0 1.779.28 2.367.854.574.574.868 1.316.868 2.241 0 .938-.294 1.709-.882 2.283-.589.574-1.373.868-2.354.868h-2.396v3.559zm6.928 9.315h-4.931v3.292h4.455v1.121h-4.455v4.272h-1.219v-9.805h6.149v1.12zm1.882-9.315h-1.233v-9.805h1.233v9.805zm1.093-18h-2.325v-.14l3.362-9.665h2.815l3.376 9.665v.14h-2.438l-.574-1.863h-3.642l-.574 1.863zm.941 15.058h1.247c.042.616.266 1.092.7 1.442.42.351 1.009.519 1.765.519 1.597 0 2.396-.574 2.396-1.709 0-.448-.154-.798-.448-1.051-.294-.238-.729-.42-1.303-.546l-1.429-.308c-.868-.182-1.513-.49-1.947-.924-.434-.42-.658-.995-.658-1.723 0-.827.294-1.485.896-1.975.603-.477 1.429-.714 2.508-.714 1.05 0 1.891.266 2.521.798.631.546.953 1.247.967 2.115H40.74c-.028-.546-.225-.995-.603-1.317s-.938-.476-1.667-.476c-1.4 0-2.102.518-2.102 1.569 0 .728.561 1.218 1.667 1.457l1.331.28c1.863.378 2.787 1.316 2.787 2.815 0 .882-.322 1.569-.98 2.059-.658.504-1.555.756-2.689.756-1.162 0-2.073-.28-2.703-.826-.645-.546-.981-1.302-1.009-2.241zm8.221 20.312c-.658.504-1.555.756-2.689.756-1.162 0-2.073-.28-2.703-.826-.645-.547-.98-1.303-1.009-2.241h1.247c.042.616.266 1.093.7 1.442.42.351 1.009.519 1.765.519 1.597 0 2.396-.574 2.396-1.709 0-.448-.154-.799-.448-1.051-.294-.238-.729-.42-1.303-.546l-1.429-.309c-.868-.182-1.513-.49-1.947-.924-.434-.42-.658-.995-.658-1.723 0-.827.294-1.485.896-1.975.603-.477 1.429-.714 2.508-.714 1.05 0 1.891.266 2.521.798.63.546.952 1.247.966 2.115H42.56c-.028-.546-.225-.995-.603-1.317s-.938-.476-1.667-.476c-1.4 0-2.102.518-2.102 1.569 0 .728.561 1.218 1.667 1.457l1.331.28c1.863.378 2.787 1.316 2.787 2.815 0 .883-.322 1.568-.98 2.06zm1.81-18.645c-.728-.924-1.092-2.129-1.092-3.628s.364-2.703 1.092-3.642c.715-.925 1.808-1.387 3.25-1.387 1.443 0 2.521.462 3.25 1.387.729.938 1.093 2.143 1.093 3.642 0 1.485-.364 2.689-1.093 3.628-.729.939-1.807 1.401-3.25 1.401-1.442 0-2.521-.462-3.25-1.401zm7.596 10.59h-5.085v3.067h4.65v1.121h-4.65v3.39h5.085v1.106h-6.304v-9.805h6.304v1.121zm9.513 8.685h-1.331l-2.577-3.88h-2.382v3.88h-1.219v-9.805h3.881c.966 0 1.736.28 2.283.826.546.546.826 1.261.826 2.115 0 .714-.183 1.317-.561 1.807s-.896.84-1.555 1.022l2.634 3.895v.14zm-.836-19.373c-.757.91-1.835 1.373-3.25 1.373h-3.25v-9.805h3.25c1.373 0 2.451.448 3.222 1.331s1.148 2.073 1.148 3.572c0 1.442-.378 2.618-1.12 3.529zm3.832 19.373h-1.233v-9.805h1.233v9.805zm8.947-8.685H68.77v3.067h4.65v1.121h-4.65v3.39h5.085v1.106h-6.304v-9.805h6.304v1.121zm7.737 8.055c-.658.504-1.555.756-2.689.756-1.162 0-2.073-.28-2.703-.826-.645-.547-.98-1.303-1.009-2.241h1.247c.042.616.266 1.093.7 1.442.42.351 1.009.519 1.765.519 1.597 0 2.396-.574 2.396-1.709 0-.448-.154-.799-.448-1.051-.294-.238-.729-.42-1.303-.546l-1.429-.309c-.868-.182-1.513-.49-1.947-.924-.434-.42-.658-.995-.658-1.723 0-.827.294-1.485.896-1.975.603-.477 1.429-.714 2.508-.714 1.05 0 1.891.266 2.521.798.63.546.952 1.247.966 2.115h-1.246c-.028-.546-.225-.995-.603-1.317s-.938-.476-1.667-.476c-1.4 0-2.102.518-2.102 1.569 0 .728.561 1.218 1.667 1.457l1.331.28c1.863.378 2.787 1.316 2.787 2.815.001.883-.322 1.568-.98 2.06zm15.078.63h-1.303l-.925-2.563h-4.286l-.924 2.563h-1.275v-.14l3.601-9.666h1.498l3.614 9.666v.14zm8.067-.757c-.561.505-1.331.757-2.298.757h-4.034v-9.805h3.937c.841 0 1.526.224 2.059.672.533.462.799 1.079.799 1.877 0 .966-.406 1.639-1.232 2.003v.056c1.064.434 1.597 1.218 1.597 2.368-.002.881-.282 1.581-.828 2.072zm3.816-2.69c.098.448.266.854.504 1.233.238.378.561.672.967.882s.882.322 1.429.322c1.526 0 2.423-.729 2.676-2.171h1.246c-.14 1.036-.546 1.849-1.204 2.423-.659.589-1.569.883-2.718.883-1.387 0-2.451-.448-3.194-1.358-.756-.911-1.134-2.129-1.134-3.656 0-1.541.378-2.773 1.134-3.684.757-.91 1.821-1.358 3.194-1.358 1.162 0 2.073.308 2.76.91.672.603 1.064 1.443 1.162 2.494h-1.261c-.084-.701-.35-1.247-.784-1.653-.448-.406-1.079-.602-1.877-.602-.547 0-1.022.112-1.429.322a2.45 2.45 0 0 0-.967.882 3.941 3.941 0 0 0-.504 1.233 6.023 6.023 0 0 0-.168 1.457c0 .517.056 1.008.168 1.441z"/><path class="st4" d="M102.299 66.209H99.61v3.432h2.689c.603 0 1.078-.154 1.457-.462.364-.295.546-.715.546-1.261 0-.561-.168-.981-.519-1.275-.349-.294-.854-.434-1.484-.434zM28.299 46.038c0-.63-.183-1.121-.561-1.471-.378-.35-.911-.518-1.569-.518h-2.241v4.02h2.241c.687 0 1.205-.182 1.583-.532.365-.35.547-.841.547-1.499zM103.448 64.724c.336-.266.505-.686.505-1.232 0-.462-.154-.827-.449-1.079-.308-.252-.742-.378-1.302-.378H99.61v3.11h2.438c.587 0 1.05-.141 1.4-.421z"/><path class="st1" d="M14.594 90.351h11.513v11.513H14.594zM31.941 107.697h5.757v5.757h-5.757z"/></g><g><path class="st0" d="M403 130.986h90v157.793h-90zM493 297.545v8.767h-90v-8.767M403 122.22v-8.766h90v8.766"/><circle class="st0" cx="448" cy="297.545" r="4.383"/><circle class="st0" cx="437.042" cy="122.22" r="2.192"/><path class="st0" d="M443.617 122.22h17.532"/></g><g><path class="st0" d="M145 130.986h90v157.793h-90zM235 297.545v8.767h-90v-8.767M145 122.22v-8.766h90v8.766"/><circle class="st0" cx="190" cy="297.545" r="4.383"/><circle class="st0" cx="179.042" cy="122.22" r="2.192"/><path class="st0" d="M185.617 122.22h17.532"/><g><path class="st0" d="M221.994 167.224v85.318h-63.988V186.51l19.286-19.286z"/><path class="st3" d="M199.637 209.883l-16.702-9.643v19.286z"/><path class="st0" d="M177.292 173.653v12.857h-12.858"/></g></g><g><path class="st0" d="M145 15.351h90v65h-90z"/><path class="st4" d="M154.709 34.048c-.645-.547-.98-1.303-1.009-2.241h1.247c.042.616.266 1.092.7 1.442.42.351 1.009.519 1.765.519 1.597 0 2.396-.574 2.396-1.709 0-.448-.154-.799-.448-1.051-.294-.238-.729-.42-1.303-.546l-1.429-.309c-.868-.182-1.513-.49-1.947-.925-.434-.42-.658-.994-.658-1.723 0-.826.294-1.484.896-1.975.603-.477 1.429-.715 2.508-.715 1.05 0 1.891.267 2.521.799.63.546.952 1.246.966 2.115h-1.246c-.028-.547-.225-.995-.603-1.317s-.938-.476-1.667-.476c-1.4 0-2.102.518-2.102 1.568 0 .729.561 1.219 1.667 1.457l1.331.28c1.863.378 2.787 1.316 2.787 2.815 0 .882-.322 1.568-.98 2.059-.658.505-1.555.757-2.689.757-1.162.002-2.073-.278-2.703-.824zM163.652 34.048c-.645-.547-.98-1.303-1.009-2.241h1.247c.042.616.266 1.092.7 1.442.42.351 1.009.519 1.765.519 1.597 0 2.396-.574 2.396-1.709 0-.448-.154-.799-.448-1.051-.294-.238-.729-.42-1.303-.546l-1.429-.309c-.868-.182-1.513-.49-1.947-.925-.434-.42-.658-.994-.658-1.723 0-.826.294-1.484.896-1.975.603-.477 1.429-.715 2.508-.715 1.05 0 1.891.267 2.521.799.63.546.952 1.246.966 2.115h-1.246c-.028-.547-.225-.995-.603-1.317s-.938-.476-1.667-.476c-1.4 0-2.102.518-2.102 1.568 0 .729.561 1.219 1.667 1.457l1.331.28c1.863.378 2.787 1.316 2.787 2.815 0 .882-.322 1.568-.98 2.059-.658.505-1.555.757-2.689.757-1.162.002-2.073-.278-2.703-.824zM173.398 24.942v9.806h-1.233v-9.806h1.233zM179.291 24.942c1.373 0 2.451.448 3.222 1.331.771.882 1.148 2.073 1.148 3.571 0 1.443-.378 2.62-1.12 3.53-.757.91-1.835 1.373-3.25 1.373h-3.25v-9.806h3.25zm-.126 8.7c1.064 0 1.877-.364 2.424-1.079.546-.714.812-1.61.812-2.718 0-1.092-.266-2.003-.812-2.717-.547-.715-1.359-1.064-2.424-1.064h-1.905v7.578h1.905zM160.158 48.728h1.232v1.625h-1.513l-.406 2.396h-1.709l.406-2.396h-1.471l-.406 2.396h-1.709l.406-2.396H153.7v-1.625h1.569l.28-1.694H154.4v-1.625h1.429l.421-2.466h1.709l-.421 2.466h1.471l.421-2.466h1.709l-.421 2.466h1.373v1.625h-1.652l-.281 1.694zm-2.899-1.695l-.28 1.694h1.471l.28-1.694h-1.471zM171.677 52.748h-2.115l-.672-2.06h-3.838l-.673 2.06h-2.017v-.141l3.432-9.665h2.438l3.445 9.665v.141zm-4.679-7.845h-.056l-1.331 4.091h2.718l-1.331-4.091zM177.335 42.942c.882 0 1.583.225 2.115.673.532.462.798 1.078.798 1.877 0 .924-.336 1.597-1.022 2.003v.056c.925.435 1.387 1.219 1.387 2.367 0 .883-.28 1.583-.826 2.073-.561.505-1.331.757-2.297.757h-4.623v-9.806h4.468zm-.309 3.909c.421 0 .742-.098.953-.309.21-.195.322-.476.322-.826 0-.714-.406-1.078-1.233-1.078h-2.297v2.213h2.255zm.168 4.188c.49 0 .854-.112 1.093-.351.238-.224.364-.532.364-.924 0-.364-.126-.673-.364-.911s-.603-.35-1.093-.35h-2.423v2.535h2.423zM182.822 51.473c-.799-.924-1.205-2.129-1.205-3.613 0-1.499.406-2.704 1.205-3.643s1.947-1.4 3.418-1.4c1.204 0 2.185.351 2.955 1.051s1.191 1.583 1.261 2.647h-1.961c-.056-.574-.266-1.037-.645-1.401-.378-.364-.924-.546-1.61-.546-.883 0-1.541.294-1.989.883-.448.588-.672 1.387-.672 2.409s.224 1.82.672 2.396c.448.588 1.106.882 1.989.882.658 0 1.177-.168 1.555-.518.378-.337.616-.785.715-1.345h1.946c-.111 1.05-.546 1.904-1.288 2.577-.757.687-1.737 1.022-2.928 1.022-1.471 0-2.619-.462-3.418-1.401zM196.234 47.803v1.682h-4.286v-1.682h4.286zM205.082 42.942v1.723h-4.875v2.172h4.44v1.709h-4.44v2.493h4.875v1.709h-6.794v-9.806h6.794zM207.183 51.501c-.603-.91-.91-2.129-.91-3.684 0-1.541.308-2.773.91-3.685.603-.91 1.541-1.358 2.802-1.358s2.199.448 2.802 1.358c.602.911.91 2.144.91 3.685 0 1.555-.309 2.773-.91 3.684-.603.911-1.541 1.373-2.802 1.373s-2.2-.462-2.802-1.373zm4.188-1.148c.267-.561.406-1.4.406-2.535 0-1.121-.14-1.961-.406-2.535-.267-.561-.729-.841-1.387-.841s-1.121.28-1.387.841c-.267.574-.406 1.414-.406 2.535 0 1.135.14 1.975.406 2.535.266.574.729.854 1.387.854s1.12-.28 1.387-.854zM217.225 44.876l-2.255 1.709h-.141v-1.821l2.438-1.821h1.905v9.806h-1.892v-7.872h-.055z"/><g><path class="st0" d="M185.066 104.902a6.978 6.978 0 0 1 9.868 0M180.131 99.968c5.45-5.45 14.287-5.45 19.737 0M175.197 95.034c8.175-8.175 21.43-8.175 29.606 0"/></g></g><g><path class="st0" d="M403 15.351h90v65h-90z"/><path class="st4" d="M412.709 34.048c-.645-.547-.98-1.303-1.009-2.241h1.247c.042.616.266 1.092.7 1.442.42.351 1.009.519 1.765.519 1.597 0 2.396-.574 2.396-1.709 0-.448-.154-.799-.448-1.051-.294-.238-.729-.42-1.303-.546l-1.429-.309c-.868-.182-1.513-.49-1.947-.925-.434-.42-.658-.994-.658-1.723 0-.826.294-1.484.896-1.975.603-.477 1.429-.715 2.508-.715 1.05 0 1.891.267 2.521.799.63.546.952 1.246.966 2.115h-1.246c-.028-.547-.225-.995-.603-1.317s-.938-.476-1.667-.476c-1.4 0-2.102.518-2.102 1.568 0 .729.561 1.219 1.667 1.457l1.331.28c1.863.378 2.787 1.316 2.787 2.815 0 .882-.322 1.568-.98 2.059-.658.505-1.555.757-2.689.757-1.162.002-2.073-.278-2.703-.824zM421.652 34.048c-.645-.547-.98-1.303-1.009-2.241h1.247c.042.616.266 1.092.7 1.442.42.351 1.009.519 1.765.519 1.597 0 2.396-.574 2.396-1.709 0-.448-.154-.799-.448-1.051-.294-.238-.729-.42-1.303-.546l-1.429-.309c-.868-.182-1.513-.49-1.947-.925-.434-.42-.658-.994-.658-1.723 0-.826.294-1.484.896-1.975.603-.477 1.429-.715 2.508-.715 1.05 0 1.891.267 2.521.799.63.546.952 1.246.966 2.115h-1.246c-.028-.547-.225-.995-.603-1.317s-.938-.476-1.667-.476c-1.4 0-2.102.518-2.102 1.568 0 .729.561 1.219 1.667 1.457l1.331.28c1.863.378 2.787 1.316 2.787 2.815 0 .882-.322 1.568-.98 2.059-.658.505-1.555.757-2.689.757-1.162.002-2.073-.278-2.703-.824zM431.398 24.942v9.806h-1.233v-9.806h1.233zM437.291 24.942c1.373 0 2.451.448 3.222 1.331.771.882 1.148 2.073 1.148 3.571 0 1.443-.378 2.62-1.12 3.53-.757.91-1.835 1.373-3.25 1.373h-3.25v-9.806h3.25zm-.126 8.7c1.064 0 1.877-.364 2.424-1.079.546-.714.812-1.61.812-2.718 0-1.092-.266-2.003-.812-2.717-.547-.715-1.359-1.064-2.424-1.064h-1.905v7.578h1.905zM413.689 49.428c0-.546.098-.98.294-1.303s.519-.658.967-1.008l.448-.351c.266-.21.448-.393.561-.561a1.12 1.12 0 0 0 .168-.63c0-.309-.099-.574-.309-.784-.21-.211-.546-.322-.98-.322-.925 0-1.387.462-1.387 1.372h-1.905c0-.882.28-1.61.854-2.185.561-.561 1.373-.841 2.438-.841.98 0 1.765.252 2.354.742.574.505.868 1.148.868 1.919 0 .869-.35 1.583-1.064 2.13l-.588.462c-.351.266-.574.49-.701.658-.126.183-.195.406-.195.7v.225h-1.821v-.223zm1.961 1.317v2.003h-2.073v-2.003h2.073zM427.274 52.748h-2.115l-.672-2.06h-3.838l-.673 2.06h-2.017v-.141l3.432-9.665h2.438l3.445 9.665v.141zm-4.678-7.845h-.056l-1.331 4.091h2.718l-1.331-4.091zM432.933 42.942c.882 0 1.583.225 2.115.673.532.462.798 1.078.798 1.877 0 .924-.336 1.597-1.022 2.003v.056c.925.435 1.387 1.219 1.387 2.367 0 .883-.28 1.583-.826 2.073-.561.505-1.331.757-2.297.757h-4.623v-9.806h4.468zm-.309 3.909c.421 0 .742-.098.953-.309.21-.195.322-.476.322-.826 0-.714-.406-1.078-1.233-1.078h-2.297v2.213h2.255zm.168 4.188c.49 0 .854-.112 1.093-.351.238-.224.364-.532.364-.924 0-.364-.126-.673-.364-.911s-.603-.35-1.093-.35h-2.423v2.535h2.423zM438.42 51.473c-.799-.924-1.205-2.129-1.205-3.613 0-1.499.406-2.704 1.205-3.643s1.947-1.4 3.418-1.4c1.204 0 2.185.351 2.955 1.051s1.191 1.583 1.261 2.647h-1.961c-.056-.574-.266-1.037-.645-1.401-.378-.364-.924-.546-1.61-.546-.883 0-1.541.294-1.989.883-.448.588-.672 1.387-.672 2.409s.224 1.82.672 2.396c.448.588 1.106.882 1.989.882.658 0 1.177-.168 1.555-.518.378-.337.616-.785.715-1.345h1.946c-.111 1.05-.546 1.904-1.288 2.577-.757.687-1.737 1.022-2.928 1.022-1.471 0-2.619-.462-3.418-1.401zM451.833 47.803v1.682h-4.287v-1.682h4.287zM460.681 42.942v1.723h-4.875v2.172h4.44v1.709h-4.44v2.493h4.875v1.709h-6.794v-9.806h6.794zM462.78 51.501c-.603-.91-.91-2.129-.91-3.684 0-1.541.308-2.773.91-3.685.603-.91 1.541-1.358 2.802-1.358s2.199.448 2.802 1.358c.602.911.91 2.144.91 3.685 0 1.555-.309 2.773-.91 3.684-.603.911-1.541 1.373-2.802 1.373s-2.199-.462-2.802-1.373zm4.189-1.148c.267-.561.406-1.4.406-2.535 0-1.121-.14-1.961-.406-2.535-.267-.561-.729-.841-1.387-.841s-1.121.28-1.387.841c-.267.574-.406 1.414-.406 2.535 0 1.135.14 1.975.406 2.535.266.574.729.854 1.387.854s1.12-.28 1.387-.854zM472.823 44.876l-2.255 1.709h-.141v-1.821l2.438-1.821h1.905v9.806h-1.892v-7.872h-.055z"/><g><path class="st0" d="M443.066 104.902a6.978 6.978 0 0 1 9.868 0M438.131 99.968c5.45-5.45 14.287-5.45 19.737 0M433.197 95.034c8.175-8.175 21.43-8.175 29.605 0"/></g></g><g><path class="st0" d="M260 62.851l-15-15 15-15M378 32.851l15 15-15 15"/><path class="st4" d="M272.047 9.879v9.805h-1.933V9.879h1.933zM278.336 9.879c.98 0 1.765.294 2.354.896.588.602.882 1.358.882 2.297 0 .952-.294 1.737-.882 2.339-.603.603-1.387.911-2.354.911h-2.283v3.362h-1.919V9.879h4.202zm-.35 4.72c1.079 0 1.625-.504 1.625-1.526 0-.477-.14-.841-.42-1.107-.294-.252-.687-.378-1.205-.378h-1.933v3.011h1.933zM287.077 14.739v1.681h-4.286v-1.681h4.286zM293.332 9.879c.98 0 1.765.294 2.354.896.588.602.882 1.358.882 2.297 0 .952-.294 1.737-.882 2.339-.603.603-1.387.911-2.354.911h-2.283v3.362h-1.919V9.879h4.202zm-.35 4.72c1.079 0 1.625-.504 1.625-1.526 0-.477-.14-.841-.42-1.107-.294-.252-.687-.378-1.205-.378h-1.933v3.011h1.933zM305.967 19.684h-2.214l-2.255-3.586h-1.653v3.586h-1.919V9.879h4.301c.994 0 1.793.294 2.396.882.588.588.882 1.317.882 2.185 0 .714-.182 1.317-.532 1.821-.35.518-.84.882-1.442 1.106l2.438 3.67v.141zm-3.838-5.295c.462 0 .812-.14 1.05-.406s.351-.602.351-1.022c0-.392-.112-.714-.351-.98-.238-.252-.588-.378-1.05-.378h-2.284v2.788h2.284zM307.801 18.396c-.799-.938-1.19-2.143-1.19-3.614s.392-2.689 1.19-3.628c.798-.938 1.947-1.4 3.445-1.4 1.499 0 2.647.462 3.446 1.4s1.19 2.157 1.19 3.628-.392 2.676-1.19 3.614-1.947 1.415-3.446 1.415c-1.498-.001-2.647-.477-3.445-1.415zm5.449-1.219c.448-.574.672-1.373.672-2.396 0-1.022-.224-1.821-.672-2.409-.448-.574-1.121-.869-2.004-.869-.882 0-1.555.294-2.003.869-.448.588-.672 1.387-.672 2.409 0 1.023.224 1.821.672 2.396.448.588 1.121.882 2.003.882.883 0 1.556-.294 2.004-.882zM316.456 11.616V9.879h7.704v1.737h-2.886v8.068h-1.933v-8.068h-2.885zM332.186 9.879v1.723h-4.875v2.171h4.44v1.709h-4.44v2.493h4.875v1.709h-6.794V9.879h6.794zM334.434 18.409c-.799-.924-1.205-2.129-1.205-3.614 0-1.499.406-2.704 1.205-3.642s1.947-1.4 3.418-1.4c1.204 0 2.185.35 2.955 1.05s1.191 1.583 1.261 2.647h-1.961c-.056-.574-.266-1.037-.645-1.401-.378-.364-.924-.546-1.61-.546-.883 0-1.541.294-1.989.883s-.672 1.387-.672 2.409.224 1.821.672 2.396c.448.588 1.106.882 1.989.882.658 0 1.177-.168 1.555-.518.378-.336.616-.785.715-1.345h1.946c-.111 1.05-.546 1.905-1.288 2.577-.757.687-1.737 1.022-2.928 1.022-1.471.001-2.619-.461-3.418-1.4zM342.774 11.616V9.879h7.704v1.737h-2.886v8.068h-1.933v-8.068h-2.885zM358.504 9.879v1.723h-4.875v2.171h4.44v1.709h-4.44v2.493h4.875v1.709h-6.794V9.879h6.794zM363.589 9.879c1.443 0 2.62.448 3.517 1.345.896.91 1.345 2.087 1.345 3.558 0 1.401-.435 2.563-1.317 3.502-.882.938-2.073 1.401-3.544 1.401h-3.348V9.879h3.347zm-.126 8.096c.967 0 1.723-.28 2.241-.826.519-.546.784-1.345.784-2.368 0-1.022-.266-1.807-.784-2.353s-1.274-.827-2.241-.827h-1.414v6.374h1.414zM285.755 36.9c-.687-.603-1.064-1.415-1.106-2.452h1.946c.043.546.238.953.603 1.233.351.28.841.42 1.457.42 1.331 0 1.989-.406 1.989-1.205 0-.322-.112-.588-.322-.771s-.561-.336-1.022-.434l-1.429-.308c-.938-.196-1.653-.518-2.144-.953-.504-.434-.756-1.079-.756-1.905 0-.827.336-1.499 1.008-2.017.659-.504 1.556-.756 2.689-.756 1.107 0 2.004.294 2.718.868.7.574 1.051 1.331 1.064 2.241h-1.947a1.404 1.404 0 0 0-.504-1.008c-.309-.252-.757-.378-1.358-.378-.561 0-.98.098-1.261.28-.294.196-.435.448-.435.771 0 .266.098.476.294.658.183.182.505.322.967.42l1.331.28c.98.21 1.736.533 2.283.995.532.462.798 1.121.798 1.975 0 .911-.322 1.639-.98 2.157-.658.532-1.652.798-2.983.798-1.247.001-2.213-.307-2.9-.909zM294.815 36.396c-.799-.938-1.19-2.143-1.19-3.614s.392-2.689 1.19-3.628c.798-.938 1.947-1.4 3.445-1.4 1.499 0 2.647.462 3.446 1.4s1.19 2.157 1.19 3.628-.392 2.676-1.19 3.614-1.947 1.415-3.446 1.415c-1.498-.001-2.647-.477-3.445-1.415zm5.449-1.219c.448-.574.672-1.373.672-2.396 0-1.022-.224-1.821-.672-2.409-.448-.574-1.121-.869-2.004-.869-.882 0-1.555.294-2.003.869-.448.588-.672 1.387-.672 2.409 0 1.023.224 1.821.672 2.396.448.588 1.121.882 2.003.882.883 0 1.556-.294 2.004-.882zM306.421 27.879v8.082h4.524v1.723h-6.443v-9.805h1.919zM313.004 36.788c-.742-.672-1.12-1.625-1.12-2.857V27.88h1.919v6.023c0 1.457.7 2.186 2.102 2.186 1.414 0 2.115-.729 2.115-2.186V27.88h1.933v6.051c0 1.247-.364 2.199-1.106 2.872s-1.723 1.008-2.941 1.008c-1.193-.001-2.159-.337-2.902-1.023zM321.114 29.616v-1.737h7.704v1.737h-2.886v8.068h-1.933v-8.068h-2.885zM331.984 27.879v9.805h-1.934v-9.805h1.934zM334.772 36.396c-.799-.938-1.191-2.143-1.191-3.614s.393-2.689 1.191-3.628c.798-.938 1.946-1.4 3.445-1.4s2.647.462 3.446 1.4c.798.938 1.19 2.157 1.19 3.628s-.393 2.676-1.19 3.614c-.799.938-1.947 1.415-3.446 1.415s-2.647-.477-3.445-1.415zm5.448-1.219c.448-.574.673-1.373.673-2.396 0-1.022-.225-1.821-.673-2.409-.448-.574-1.12-.869-2.003-.869-.882 0-1.555.294-2.003.869-.448.588-.672 1.387-.672 2.409 0 1.023.224 1.821.672 2.396.448.588 1.121.882 2.003.882.883 0 1.555-.294 2.003-.882zM346.689 27.879l4.006 6.808h.056v-6.808h1.905v9.805h-2.241l-4.006-6.766h-.056v6.766h-1.892v-9.805h2.228z"/><path class="st0" d="M245 47.851h148"/></g><g><path class="st0" d="M378 194.883l15 15-15 15M245 209.883h42.006M350.994 209.883H393M350.994 167.224v85.318h-63.988V186.51l19.286-19.286z"/><path class="st3" d="M328.637 209.883l-16.702-9.643v19.286z"/><path class="st0" d="M306.292 173.653v12.857h-12.857"/></g><g><path class="st4" d="M181.338 330.889c-.756-.911-1.135-2.129-1.135-3.656 0-1.541.379-2.773 1.135-3.684.757-.91 1.821-1.358 3.194-1.358 1.162 0 2.072.308 2.759.91.673.603 1.064 1.443 1.163 2.494h-1.261c-.084-.701-.351-1.247-.784-1.653-.448-.406-1.079-.602-1.877-.602-.547 0-1.022.112-1.429.322a2.45 2.45 0 0 0-.967.882 3.967 3.967 0 0 0-.505 1.233 6.073 6.073 0 0 0-.168 1.457c0 .519.057 1.009.168 1.443.099.448.267.854.505 1.232s.561.672.967.883c.406.21.882.322 1.429.322 1.526 0 2.423-.728 2.675-2.171h1.247c-.141 1.037-.547 1.849-1.205 2.423-.658.588-1.568.882-2.717.882-1.386-.001-2.452-.449-3.194-1.359zM191.222 330.846c-.729-.924-1.093-2.129-1.093-3.628s.364-2.703 1.093-3.642c.715-.925 1.808-1.387 3.25-1.387s2.521.462 3.25 1.387c.729.938 1.093 2.143 1.093 3.642 0 1.485-.364 2.689-1.093 3.628-.729.939-1.808 1.401-3.25 1.401s-2.521-.462-3.25-1.401zm5.604-.854c.49-.743.729-1.667.729-2.774 0-1.106-.238-2.031-.729-2.773-.49-.742-1.275-1.106-2.354-1.106-.561 0-1.051.112-1.457.322-.42.21-.742.504-.967.882a4.201 4.201 0 0 0-.49 1.219 6.073 6.073 0 0 0-.168 1.457c0 1.107.253 2.031.743 2.774.49.742 1.26 1.106 2.339 1.106 1.078 0 1.863-.365 2.354-1.107zM202.38 322.316l5.015 7.802h.057v-7.802h1.204v9.805h-1.345l-5.015-7.76h-.056v7.76h-1.19v-9.805h1.33zM212.783 322.316l5.015 7.802h.057v-7.802h1.204v9.805h-1.345l-5.015-7.76h-.056v7.76h-1.19v-9.805h1.33zM228.158 322.316v1.121h-5.085v3.067h4.65v1.121h-4.65v3.39h5.085v1.106h-6.304v-9.805h6.304zM230.968 330.889c-.757-.911-1.135-2.129-1.135-3.656 0-1.541.378-2.773 1.135-3.684.756-.91 1.82-1.358 3.193-1.358 1.163 0 2.073.308 2.76.91.672.603 1.064 1.443 1.162 2.494h-1.261c-.084-.701-.35-1.247-.784-1.653-.448-.406-1.078-.602-1.877-.602-.546 0-1.022.112-1.429.322a2.45 2.45 0 0 0-.967.882 3.941 3.941 0 0 0-.504 1.233 6.023 6.023 0 0 0-.168 1.457c0 .519.056 1.009.168 1.443.098.448.266.854.504 1.232s.561.672.967.883c.406.21.883.322 1.429.322 1.527 0 2.424-.728 2.676-2.171h1.246c-.14 1.037-.546 1.849-1.204 2.423-.658.588-1.569.882-2.718.882-1.386-.001-2.451-.449-3.193-1.359zM239.2 323.437v-1.121h7.312v1.121h-3.039v8.685h-1.233v-8.685h-3.04zM249.63 322.316v9.805h-1.232v-9.805h1.232zM252.962 330.846c-.729-.924-1.093-2.129-1.093-3.628s.364-2.703 1.093-3.642c.714-.925 1.807-1.387 3.249-1.387 1.443 0 2.521.462 3.25 1.387.729.938 1.093 2.143 1.093 3.642 0 1.485-.364 2.689-1.093 3.628-.729.939-1.807 1.401-3.25 1.401-1.442 0-2.52-.462-3.249-1.401zm5.603-.854c.49-.743.729-1.667.729-2.774 0-1.106-.238-2.031-.729-2.773-.49-.742-1.274-1.106-2.354-1.106-.56 0-1.05.112-1.456.322a2.27 2.27 0 0 0-.967.882 4.146 4.146 0 0 0-.49 1.219 6.023 6.023 0 0 0-.168 1.457c0 1.107.252 2.031.742 2.774.49.742 1.261 1.106 2.339 1.106 1.079 0 1.864-.365 2.354-1.107zM264.121 322.316l5.015 7.802h.056v-7.802h1.205v9.805h-1.345l-5.015-7.76h-.057v7.76h-1.19v-9.805h1.331zM276.481 323.437v-1.121h7.312v1.121h-3.039v8.685h-1.233v-8.685h-3.04zM286.912 322.316v9.805h-1.232v-9.805h1.232zM291.154 322.316l3.306 5.981h.057l3.306-5.981h1.414v9.805h-1.162v-7.858h-.057l-3.474 6.178h-.14l-3.474-6.22h-.057v7.9h-1.162v-9.805h1.443zM308.334 322.316v1.121h-5.085v3.067h4.65v1.121h-4.65v3.39h5.085v1.106h-6.304v-9.805h6.304zM311.593 325.594v1.541h-1.513v-1.541h1.513zm0 4.986v1.541h-1.513v-1.541h1.513zM199.51 341.437v-1.121h7.312v1.121h-3.039v8.685h-1.233v-8.685h-3.04zM216.216 350.121h-1.33l-2.578-3.88h-2.381v3.88h-1.219v-9.805h3.88c.967 0 1.737.28 2.283.826.547.546.827 1.261.827 2.115 0 .714-.183 1.317-.561 1.807s-.896.84-1.555 1.022l2.633 3.894v.141zm-3.697-5c.616 0 1.092-.168 1.414-.491.322-.322.49-.77.49-1.358 0-.574-.168-1.037-.49-1.359-.336-.322-.812-.476-1.414-.476h-2.592v3.684h2.592zM225.821 350.121h-1.303l-.925-2.563h-4.286l-.925 2.563h-1.274v-.14l3.6-9.665h1.499l3.614 9.665v.14zm-4.343-8.447h-.056l-1.723 4.791h3.502l-1.723-4.791zM228.967 340.316l5.015 7.802h.056v-7.802h1.205v9.805h-1.345l-5.015-7.76h-.057v7.76h-1.19v-9.805h1.331zM238.346 349.421c-.645-.546-.98-1.303-1.009-2.241h1.247c.042.616.267 1.092.7 1.442.421.351 1.009.519 1.766.519 1.597 0 2.395-.574 2.395-1.709 0-.448-.153-.798-.448-1.051-.294-.238-.729-.42-1.303-.546l-1.429-.309c-.868-.182-1.513-.49-1.946-.924-.435-.42-.659-.995-.659-1.723 0-.827.295-1.485.896-1.975.603-.477 1.429-.714 2.508-.714 1.051 0 1.891.266 2.521.798.63.546.952 1.247.966 2.115h-1.246c-.028-.546-.225-.995-.603-1.317s-.938-.476-1.667-.476c-1.4 0-2.101.518-2.101 1.569 0 .728.56 1.218 1.667 1.457l1.33.28c1.863.378 2.788 1.316 2.788 2.815 0 .882-.322 1.569-.98 2.059-.659.504-1.556.756-2.689.756-1.163.001-2.073-.279-2.704-.825zM253.036 340.316v1.121h-4.931v3.292h4.454v1.121h-4.454v4.272h-1.219v-9.805h6.15zM261.576 340.316v1.121h-5.085v3.067h4.65v1.121h-4.65v3.39h5.085v1.106h-6.304v-9.805h6.304zM271.32 350.121h-1.33l-2.578-3.88h-2.381v3.88h-1.219v-9.805h3.88c.967 0 1.737.28 2.283.826.547.546.827 1.261.827 2.115 0 .714-.183 1.317-.561 1.807s-.896.84-1.555 1.022l2.633 3.894v.141zm-3.698-5c.616 0 1.092-.168 1.414-.491.322-.322.49-.77.49-1.358 0-.574-.168-1.037-.49-1.359-.336-.322-.812-.476-1.414-.476h-2.592v3.684h2.592zM276.481 341.437v-1.121h7.312v1.121h-3.04v8.685h-1.232v-8.685h-3.04zM286.913 340.316v9.805h-1.232v-9.805h1.232zM291.155 340.316l3.306 5.981h.056l3.306-5.981h1.415v9.805h-1.163v-7.858h-.056l-3.474 6.178h-.141l-3.474-6.22h-.056v7.9h-1.163v-9.805h1.444zM308.334 340.316v1.121h-5.084v3.067h4.65v1.121h-4.65v3.39h5.084v1.106h-6.303v-9.805h6.303zM311.594 343.594v1.541h-1.513v-1.541h1.513zm0 4.986v1.541h-1.513v-1.541h1.513z"/><g><path class="st4" d="M326.969 324.249l-2.255 1.709h-.14v-1.821l2.438-1.821h1.905v9.805h-1.891v-7.872h-.057zM341.825 327.176v1.681h-7.032v-1.681h7.032zM349.635 324.249l-2.255 1.709h-.14v-1.821l2.438-1.821h1.905v9.805h-1.891v-7.872h-.057zM354.211 330.875c-.602-.911-.91-2.129-.91-3.684 0-1.541.308-2.773.91-3.684.603-.911 1.541-1.359 2.802-1.359s2.199.448 2.801 1.359c.603.911.911 2.143.911 3.684 0 1.555-.308 2.773-.911 3.684-.602.911-1.541 1.373-2.801 1.373s-2.199-.463-2.802-1.373zm4.189-1.149c.266-.56.406-1.4.406-2.535 0-1.121-.14-1.961-.406-2.535-.266-.561-.729-.841-1.387-.841s-1.121.28-1.387.841c-.266.574-.406 1.415-.406 2.535 0 1.135.14 1.975.406 2.535.266.575.729.854 1.387.854s1.121-.28 1.387-.854zM366.923 331.337c-.686-.603-1.064-1.415-1.106-2.452h1.947c.042.546.238.953.602 1.233.35.28.84.42 1.457.42 1.331 0 1.989-.406 1.989-1.205 0-.322-.112-.588-.322-.771-.21-.182-.56-.336-1.022-.434l-1.429-.308c-.938-.196-1.653-.518-2.143-.953-.504-.434-.756-1.079-.756-1.905 0-.827.336-1.499 1.008-2.017.659-.504 1.555-.756 2.689-.756 1.107 0 2.003.294 2.718.868.7.574 1.05 1.331 1.064 2.241h-1.947a1.411 1.411 0 0 0-.504-1.008c-.309-.252-.757-.378-1.359-.378-.561 0-.98.098-1.261.28-.294.196-.434.448-.434.771 0 .266.098.476.294.658.182.182.504.322.967.42l1.331.28c.98.21 1.737.533 2.283.995.532.462.798 1.121.798 1.975 0 .911-.322 1.639-.98 2.157-.658.532-1.653.798-2.983.798-1.248.001-2.214-.307-2.901-.909zM382.159 322.316v1.723h-4.875v2.171h4.44v1.709h-4.44v2.493h4.875v1.709h-6.794v-9.805h6.794zM384.549 330.846c-.798-.924-1.205-2.129-1.205-3.614 0-1.499.406-2.704 1.205-3.642s1.947-1.4 3.418-1.4c1.205 0 2.185.35 2.956 1.05.77.7 1.191 1.583 1.26 2.647h-1.961c-.056-.574-.266-1.037-.644-1.401-.378-.364-.925-.546-1.611-.546-.883 0-1.541.294-1.989.883s-.672 1.387-.672 2.409.224 1.821.672 2.396c.448.588 1.106.882 1.989.882.658 0 1.176-.168 1.555-.518.378-.336.616-.785.714-1.345h1.947c-.111 1.05-.546 1.905-1.289 2.577-.756.687-1.737 1.022-2.927 1.022-1.471.001-2.619-.461-3.418-1.4zM394.461 330.833c-.799-.938-1.191-2.143-1.191-3.614s.393-2.689 1.191-3.628c.798-.938 1.946-1.4 3.445-1.4s2.647.462 3.446 1.4c.798.938 1.19 2.157 1.19 3.628s-.393 2.676-1.19 3.614c-.799.938-1.947 1.415-3.446 1.415s-2.647-.477-3.445-1.415zm5.449-1.219c.448-.574.673-1.373.673-2.396 0-1.022-.225-1.821-.673-2.409-.448-.574-1.12-.869-2.003-.869-.882 0-1.555.294-2.003.869-.448.588-.672 1.387-.672 2.409 0 1.023.224 1.821.672 2.396.448.588 1.121.882 2.003.882.882 0 1.554-.294 2.003-.882zM406.418 322.316l4.006 6.808h.056v-6.808h1.905v9.805h-2.241l-4.006-6.766h-.056v6.766h-1.892v-9.805h2.228zM417.94 322.316c1.443 0 2.62.448 3.517 1.345.896.91 1.345 2.087 1.345 3.558 0 1.401-.435 2.563-1.317 3.502-.882.938-2.073 1.401-3.544 1.401h-3.348v-9.805h3.347zm-.126 8.096c.967 0 1.723-.28 2.241-.826.519-.546.784-1.345.784-2.368 0-1.022-.266-1.807-.784-2.353s-1.274-.827-2.241-.827H416.4v6.374h1.414zM424.855 331.337c-.687-.603-1.064-1.415-1.106-2.452h1.947c.042.546.238.953.603 1.233.35.28.84.42 1.456.42 1.331 0 1.989-.406 1.989-1.205 0-.322-.112-.588-.322-.771s-.561-.336-1.022-.434l-1.429-.308c-.938-.196-1.653-.518-2.144-.953-.504-.434-.756-1.079-.756-1.905 0-.827.336-1.499 1.009-2.017.658-.504 1.555-.756 2.689-.756 1.106 0 2.003.294 2.717.868.701.574 1.051 1.331 1.064 2.241h-1.946a1.408 1.408 0 0 0-.505-1.008c-.308-.252-.756-.378-1.358-.378-.561 0-.98.098-1.261.28-.294.196-.435.448-.435.771 0 .266.099.476.295.658.182.182.504.322.966.42l1.331.28c.98.21 1.737.533 2.283.995.532.462.799 1.121.799 1.975 0 .911-.322 1.639-.981 2.157-.658.532-1.652.798-2.983.798-1.247.001-2.214-.307-2.9-.909zM327.025 340.316v8.082h4.525v1.723h-6.444v-9.805h1.919zM339.656 340.316v1.723h-4.875v2.171h4.44v1.709h-4.44v2.493h4.875v1.709h-6.794v-9.805h6.794zM341.808 349.337c-.686-.603-1.064-1.415-1.106-2.452h1.947c.042.546.238.953.603 1.233.35.28.84.42 1.457.42 1.331 0 1.989-.406 1.989-1.205 0-.322-.112-.588-.322-.771-.21-.182-.56-.336-1.022-.434l-1.429-.308c-.938-.196-1.653-.518-2.143-.953-.504-.434-.756-1.079-.756-1.905 0-.827.336-1.499 1.008-2.017.659-.504 1.555-.756 2.689-.756 1.107 0 2.003.294 2.718.868.7.574 1.05 1.331 1.064 2.241h-1.947a1.411 1.411 0 0 0-.504-1.008c-.309-.252-.757-.378-1.359-.378-.561 0-.98.098-1.261.28-.294.196-.434.448-.434.771 0 .266.098.476.294.658.182.182.504.322.967.42l1.331.28c.98.21 1.737.533 2.283.995.532.462.798 1.121.798 1.975 0 .911-.322 1.639-.98 2.157-.658.532-1.653.798-2.983.798-1.25.001-2.216-.307-2.902-.909zM350.656 349.337c-.686-.603-1.064-1.415-1.106-2.452h1.947c.042.546.238.953.602 1.233.35.28.84.42 1.457.42 1.331 0 1.989-.406 1.989-1.205 0-.322-.112-.588-.322-.771-.21-.182-.56-.336-1.022-.434l-1.429-.308c-.938-.196-1.653-.518-2.143-.953-.504-.434-.756-1.079-.756-1.905 0-.827.336-1.499 1.008-2.017.659-.504 1.555-.756 2.689-.756 1.107 0 2.003.294 2.718.868.7.574 1.05 1.331 1.064 2.241h-1.947a1.411 1.411 0 0 0-.504-1.008c-.309-.252-.757-.378-1.359-.378-.561 0-.98.098-1.261.28-.294.196-.434.448-.434.771 0 .266.098.476.294.658.182.182.504.322.967.42l1.331.28c.98.21 1.737.533 2.283.995.532.462.798 1.121.798 1.975 0 .911-.322 1.639-.98 2.157-.658.532-1.653.798-2.983.798-1.248.001-2.215-.307-2.901-.909zM362.288 342.053v-1.737h7.705v1.737h-2.886v8.068h-1.933v-8.068h-2.886zM379.472 350.121h-1.919v-4.202h-4.245v4.202h-1.919v-9.805h1.919v3.88h4.245v-3.88h1.919v9.805zM390.111 350.121h-2.115l-.672-2.059h-3.838l-.672 2.059h-2.017v-.14l3.432-9.665h2.438l3.446 9.665v.14zm-4.678-7.844h-.056l-1.331 4.09h2.717l-1.33-4.09zM393.65 340.316l4.007 6.808h.056v-6.808h1.905v9.805h-2.241l-4.007-6.766h-.056v6.766h-1.891v-9.805h2.227zM407.692 342.249l-2.255 1.709h-.141v-1.821l2.438-1.821h1.905v9.805h-1.892v-7.872h-.055zM416.189 349.337c-.687-.603-1.064-1.415-1.106-2.452h1.947c.042.546.238.953.603 1.233.35.28.84.42 1.456.42 1.331 0 1.989-.406 1.989-1.205 0-.322-.112-.588-.322-.771s-.561-.336-1.022-.434l-1.429-.308c-.938-.196-1.653-.518-2.144-.953-.504-.434-.756-1.079-.756-1.905 0-.827.336-1.499 1.009-2.017.658-.504 1.555-.756 2.689-.756 1.106 0 2.003.294 2.717.868.701.574 1.051 1.331 1.064 2.241h-1.946a1.408 1.408 0 0 0-.505-1.008c-.308-.252-.756-.378-1.358-.378-.561 0-.98.098-1.261.28-.294.196-.435.448-.435.771 0 .266.099.476.295.658.182.182.504.322.966.42l1.331.28c.98.21 1.737.533 2.283.995.532.462.799 1.121.799 1.975 0 .911-.322 1.639-.981 2.157-.658.532-1.652.798-2.983.798-1.247.001-2.214-.307-2.9-.909zM431.424 340.316v1.723h-4.875v2.171h4.44v1.709h-4.44v2.493h4.875v1.709h-6.794v-9.805h6.794zM433.815 348.846c-.799-.924-1.205-2.129-1.205-3.614 0-1.499.406-2.704 1.205-3.642s1.947-1.4 3.418-1.4c1.204 0 2.185.35 2.955 1.05s1.191 1.583 1.261 2.647h-1.961c-.056-.574-.266-1.037-.645-1.401-.378-.364-.924-.546-1.61-.546-.883 0-1.541.294-1.989.883s-.672 1.387-.672 2.409.224 1.821.672 2.396c.448.588 1.106.882 1.989.882.658 0 1.177-.168 1.555-.518.378-.336.616-.785.715-1.345h1.946c-.111 1.05-.546 1.905-1.288 2.577-.757.687-1.737 1.022-2.928 1.022-1.471.001-2.619-.461-3.418-1.4zM443.727 348.833c-.799-.938-1.191-2.143-1.191-3.614s.393-2.689 1.191-3.628c.798-.938 1.946-1.4 3.445-1.4s2.647.462 3.446 1.4c.798.938 1.19 2.157 1.19 3.628s-.393 2.676-1.19 3.614c-.799.938-1.947 1.415-3.446 1.415s-2.647-.477-3.445-1.415zm5.448-1.219c.448-.574.673-1.373.673-2.396 0-1.022-.225-1.821-.673-2.409-.448-.574-1.12-.869-2.003-.869-.882 0-1.555.294-2.003.869-.448.588-.672 1.387-.672 2.409 0 1.023.224 1.821.672 2.396.448.588 1.121.882 2.003.882.883 0 1.555-.294 2.003-.882zM455.683 340.316l4.006 6.808h.057v-6.808h1.904v9.805h-2.241l-4.006-6.766h-.056v6.766h-1.892v-9.805h2.228zM467.205 340.316c1.443 0 2.62.448 3.517 1.345.896.91 1.345 2.087 1.345 3.558 0 1.401-.435 2.563-1.317 3.502-.882.938-2.073 1.401-3.544 1.401h-3.348v-9.805h3.347zm-.126 8.096c.967 0 1.723-.28 2.241-.826.519-.546.784-1.345.784-2.368 0-1.022-.266-1.807-.784-2.353s-1.274-.827-2.241-.827h-1.414v6.374h1.414z"/></g><g><path class="st4" d="M277.777 278.974h2.031l1.457 7.088h.056l1.737-7.088h2.101l1.766 7.088h.056l1.457-7.088h2.017v.14l-2.297 9.665h-2.381l-1.625-6.864h-.057l-1.652 6.864h-2.382l-2.283-9.665v-.14zM293.595 278.974v9.805h-1.933v-9.805h1.933zM302.43 278.974v1.723h-4.833v2.423h4.385v1.723h-4.385v3.936h-1.919v-9.805h6.752zM305.79 278.974v9.805h-1.933v-9.805h1.933zM315.34 278.974c1.442 0 2.619.448 3.516 1.345.896.91 1.345 2.087 1.345 3.558 0 1.401-.435 2.563-1.316 3.502-.883.938-2.073 1.401-3.544 1.401h-3.349v-9.805h3.348zm-.127 8.096c.967 0 1.724-.28 2.241-.826.519-.546.785-1.345.785-2.368 0-1.022-.267-1.807-.785-2.353-.518-.546-1.274-.827-2.241-.827h-1.414v6.374h1.414zM323.705 278.974v9.805h-1.934v-9.805h1.934zM333.831 288.779h-2.213l-2.255-3.586h-1.653v3.586h-1.919v-9.805h4.301c.994 0 1.793.294 2.395.882.589.588.883 1.317.883 2.185 0 .714-.182 1.317-.532 1.821-.351.518-.841.882-1.442 1.106l2.437 3.67v.141zm-3.837-5.295c.463 0 .812-.14 1.051-.406s.351-.602.351-1.022c0-.392-.112-.714-.351-.98-.238-.252-.588-.378-1.051-.378h-2.283v2.788h2.283zM341.867 278.974v1.723h-4.875v2.171h4.44v1.709h-4.44v2.493h4.875v1.709h-6.794v-9.805h6.794zM344.114 287.504c-.799-.924-1.205-2.129-1.205-3.614 0-1.499.406-2.704 1.205-3.642s1.947-1.4 3.418-1.4c1.204 0 2.185.35 2.955 1.05s1.191 1.583 1.261 2.647h-1.961c-.056-.574-.266-1.037-.645-1.401-.378-.364-.924-.546-1.61-.546-.883 0-1.541.294-1.989.883s-.672 1.387-.672 2.409.224 1.821.672 2.396c.448.588 1.106.882 1.989.882.658 0 1.177-.168 1.555-.518.378-.336.616-.785.715-1.345h1.946c-.111 1.05-.546 1.905-1.288 2.577-.757.687-1.737 1.022-2.928 1.022-1.471.001-2.619-.461-3.418-1.4zM352.454 280.711v-1.737h7.704v1.737h-2.886v8.068h-1.933v-8.068h-2.885zM267.739 305.491c-.799-.938-1.19-2.143-1.19-3.614s.392-2.689 1.19-3.628c.798-.938 1.947-1.4 3.445-1.4 1.499 0 2.647.462 3.446 1.4s1.19 2.157 1.19 3.628-.392 2.676-1.19 3.614-1.947 1.415-3.446 1.415c-1.498-.001-2.647-.477-3.445-1.415zm5.449-1.219c.448-.574.672-1.373.672-2.396 0-1.022-.224-1.821-.672-2.409-.448-.574-1.121-.869-2.004-.869-.882 0-1.555.294-2.003.869-.448.588-.672 1.387-.672 2.409 0 1.023.224 1.821.672 2.396.448.588 1.121.882 2.003.882.883 0 1.556-.294 2.004-.882zM285.466 306.779h-2.213l-2.255-3.586h-1.653v3.586h-1.919v-9.805h4.3c.995 0 1.793.294 2.396.882.589.588.883 1.317.883 2.185 0 .714-.183 1.317-.532 1.821-.351.518-.841.882-1.443 1.106l2.438 3.67v.141zm-3.838-5.295c.462 0 .812-.14 1.051-.406s.35-.602.35-1.022c0-.392-.111-.714-.35-.98-.238-.252-.589-.378-1.051-.378h-2.283v2.788h2.283zM295.279 296.974c.882 0 1.582.224 2.114.672.533.462.799 1.079.799 1.877 0 .924-.336 1.597-1.022 2.003v.056c.925.434 1.387 1.219 1.387 2.367 0 .882-.28 1.583-.826 2.073-.561.504-1.331.756-2.298.756h-4.622v-9.805h4.468zm-.309 3.908c.42 0 .742-.098.952-.309.211-.196.322-.476.322-.826 0-.714-.406-1.079-1.232-1.079h-2.297v2.213h2.255zm.168 4.188c.49 0 .854-.112 1.093-.35.238-.224.364-.532.364-.924 0-.364-.126-.672-.364-.911s-.603-.35-1.093-.35h-2.423v2.535h2.423zM302.07 296.974v8.082h4.524v1.723h-6.443v-9.805h1.919zM308.653 305.883c-.742-.672-1.12-1.625-1.12-2.857v-6.051h1.919v6.023c0 1.457.7 2.186 2.102 2.186 1.414 0 2.115-.729 2.115-2.186v-6.023h1.933v6.051c0 1.247-.364 2.199-1.106 2.872s-1.723 1.008-2.941 1.008c-1.193-.001-2.159-.337-2.902-1.023zM324.411 296.974v1.723h-4.875v2.171h4.44v1.709h-4.44v2.493h4.875v1.709h-6.794v-9.805h6.794zM325.405 298.711v-1.737h7.704v1.737h-2.886v8.068h-1.933v-8.068h-2.885zM334.873 305.491c-.799-.938-1.191-2.143-1.191-3.614s.393-2.689 1.191-3.628c.798-.938 1.946-1.4 3.445-1.4s2.647.462 3.446 1.4c.798.938 1.19 2.157 1.19 3.628s-.393 2.676-1.19 3.614c-.799.938-1.947 1.415-3.446 1.415s-2.647-.477-3.445-1.415zm5.449-1.219c.448-.574.673-1.373.673-2.396 0-1.022-.225-1.821-.673-2.409-.448-.574-1.12-.869-2.003-.869-.882 0-1.555.294-2.003.869-.448.588-.672 1.387-.672 2.409 0 1.023.224 1.821.672 2.396.448.588 1.121.882 2.003.882.883 0 1.554-.294 2.003-.882zM345.224 305.491c-.799-.938-1.191-2.143-1.191-3.614s.393-2.689 1.191-3.628c.798-.938 1.946-1.4 3.445-1.4s2.647.462 3.446 1.4c.798.938 1.19 2.157 1.19 3.628s-.393 2.676-1.19 3.614c-.799.938-1.947 1.415-3.446 1.415s-2.647-.477-3.445-1.415zm5.448-1.219c.448-.574.673-1.373.673-2.396 0-1.022-.225-1.821-.673-2.409-.448-.574-1.12-.869-2.003-.869-.882 0-1.555.294-2.003.869-.448.588-.672 1.387-.672 2.409 0 1.023.224 1.821.672 2.396.448.588 1.121.882 2.003.882.883 0 1.555-.294 2.003-.882zM353.878 298.711v-1.737h7.704v1.737h-2.886v8.068h-1.933v-8.068h-2.885zM370.898 306.779h-1.92v-4.202h-4.244v4.202h-1.919v-9.805h1.919v3.88h4.244v-3.88h1.92v9.805z"/></g></g></svg>