<?xml version="1.0" encoding="utf-8"?>
<!-- Generator: Adobe Illustrator 22.1.0, SVG Export Plug-In . SVG Version: 6.00 Build 0)  -->
<svg version="1.1" id="Layer_1" xmlns="http://www.w3.org/2000/svg" xmlns:xlink="http://www.w3.org/1999/xlink" x="0px" y="0px"
	 viewBox="0 0 420.5 464" style="enable-background:new 0 0 420.5 464;" xml:space="preserve">
<style type="text/css">
	.st0{fill:none;stroke:#2E343A;stroke-miterlimit:10;}
	.st1{fill:#2E343A;stroke:#2E343A;stroke-linejoin:round;stroke-miterlimit:10;}
	.st2{fill:#2E343A;stroke:#2E343A;stroke-linejoin:bevel;stroke-miterlimit:10;}
	.st3{fill:#2E343A;stroke:#2E343A;stroke-miterlimit:10;}
	.st4{fill:#2E343A;}
</style>
<g id="_x30_1guys">
	<g>
		<g>
			<polyline class="st0" points="346,331.3 346,204.9 312.3,204.9 312.3,185.2 296.6,185.2 296.6,204.9 255,204.9 255,283.9 
				265,283.9 265,463.5 272.9,463.5 295.5,313.5 			"/>
			<polyline class="st0" points="305.5,313.5 328.1,463.5 336,463.5 336,331.3 			"/>
			<rect x="292.6" y="163.5" class="st0" width="19.7" height="21.7"/>
			<polyline class="st0" points="288.7,266.1 288.7,246.4 304.4,246.4 304.4,266.1 			"/>
			<polygon class="st1" points="296.6,193.1 312.3,185.2 296.6,185.2 			"/>
			<polygon class="st2" points="265,291.8 265,283.9 304.4,283.9 			"/>
			<line class="st0" x1="336" y1="331.3" x2="336" y2="266.1"/>
			<polyline class="st0" points="265,283.9 304.4,283.9 304.4,266.1 265,266.1 			"/>
			<circle class="st3" cx="296.6" cy="252.3" r="1"/>
			<line class="st0" x1="420.5" y1="463.5" x2="180.5" y2="463.5"/>
		</g>
		<g>
			<polygon class="st4" points="302.2,72.6 300,78.8 304.5,78.8 302.3,72.6 			"/>
			<path class="st4" d="M316.6,75.8c0.4-0.3,0.6-0.9,0.6-1.6c0-0.6-0.2-1.1-0.6-1.4c-0.4-0.3-1-0.5-1.7-0.5h-3.3v4h3.1
				C315.5,76.3,316.1,76.1,316.6,75.8z"/>
			<path class="st4" d="M248.5,55.8c0.6-1,0.9-2.1,0.9-3.6s-0.3-2.6-0.9-3.6c-0.6-1-1.6-1.4-3-1.4c-0.7,0-1.4,0.1-1.9,0.4
				c-0.5,0.3-1,0.6-1.2,1.1s-0.5,1-0.6,1.6c-0.1,0.6-0.2,1.2-0.2,1.9c0,1.4,0.3,2.6,1,3.6c0.6,1,1.6,1.4,3,1.4
				S247.8,56.7,248.5,55.8z"/>
			<path class="st4" d="M260.7,23.3c-1.1,0-1.9,0.3-2.4,1c-0.6,0.7-0.8,1.6-0.8,2.9s0.3,2.2,0.8,2.9c0.6,0.7,1.4,1,2.4,1
				s1.9-0.3,2.4-1c0.6-0.7,0.8-1.6,0.8-2.9s-0.3-2.3-0.8-2.9C262.6,23.6,261.8,23.3,260.7,23.3z"/>
			<path class="st4" d="M315.1,77.7h-3.5v4.4h3.5c0.8,0,1.4-0.2,1.9-0.6c0.5-0.4,0.7-0.9,0.7-1.6c0-0.7-0.2-1.3-0.7-1.6
				S315.9,77.7,315.1,77.7z"/>
			<path class="st4" d="M261,74.7c0-0.7-0.2-1.3-0.6-1.7c-0.4-0.4-1-0.6-1.8-0.6h-3.3v4.7h3.3c0.8,0,1.4-0.2,1.8-0.6
				C260.8,76,261,75.5,261,74.7z"/>
			<path class="st4" d="M257.8,47.3h-2.4v9.7h2.4c1.4,0,2.4-0.5,3.1-1.4s1-2.1,1-3.5c0-1.4-0.3-2.6-1-3.5S259.2,47.3,257.8,47.3z"/>
			<path class="st4" d="M247.5,23.3c-1.1,0-1.9,0.3-2.4,1c-0.6,0.7-0.8,1.6-0.8,2.9s0.3,2.2,0.8,2.9c0.6,0.7,1.3,1,2.4,1
				c1,0,1.9-0.3,2.4-1c0.6-0.7,0.8-1.6,0.8-2.9s-0.3-2.3-0.8-2.9C249.3,23.6,248.5,23.3,247.5,23.3z"/>
			<path class="st4" d="M346.4,23.4h-2.8v3.1h2.8c0.5,0,0.9-0.2,1.2-0.5c0.3-0.3,0.4-0.7,0.4-1.1c0-0.4-0.1-0.8-0.4-1.1
				C347.3,23.6,346.9,23.4,346.4,23.4z"/>
			<path class="st4" d="M220.1,49.9c0-0.8-0.2-1.4-0.7-1.9s-1.2-0.7-2-0.7h-2.9v5.2h2.9c0.9,0,1.5-0.2,2-0.7
				C219.9,51.4,220.1,50.7,220.1,49.9z"/>
			<path class="st4" d="M332.9,23.3c-1.1,0-1.9,0.3-2.4,1c-0.6,0.7-0.8,1.6-0.8,2.9s0.3,2.2,0.8,2.9c0.6,0.7,1.3,1,2.4,1
				c1,0,1.9-0.3,2.4-1c0.6-0.7,0.8-1.6,0.8-2.9s-0.3-2.3-0.8-2.9C334.8,23.6,334,23.3,332.9,23.3z"/>
			<path class="st4" d="M180.5,0.5v103h240V0.5H180.5z M285,47.6l-2.9,2.3h-0.2v-1.5l3.1-2.4h1.5v12.6h-1.5L285,47.6L285,47.6z
				 M280.5,20.9h2.8v12.6h-2.8V20.9z M232.3,20.9h2.8V31h5.7v2.5h-8.6V20.9z M206.7,25l0.6-4.1h1.8v0.2l-1.1,4.1h-1.2V25z
				 M202.3,20.9h1.6v12.6h-1.6V20.9z M202.3,45.9h8.1v1.4h-6.5v3.9h6v1.4h-6v4.4h6.5v1.4h-8.1V45.9z M211.3,81.9
				c-0.9,1.2-2.3,1.8-4.2,1.8s-3.2-0.6-4.2-1.8c-0.9-1.2-1.4-2.7-1.4-4.7s0.5-3.5,1.4-4.7c0.9-1.2,2.3-1.8,4.2-1.8s3.2,0.6,4.2,1.8
				c0.9,1.2,1.4,2.8,1.4,4.7C212.7,79.1,212.3,80.7,211.3,81.9z M214.5,58.5H213V45.9h4.6c1.3,0,2.3,0.4,3,1.1
				c0.7,0.7,1.1,1.7,1.1,2.9c0,1.2-0.4,2.2-1.1,2.9c-0.8,0.7-1.8,1.1-3,1.1h-3.1L214.5,58.5L214.5,58.5z M223.4,72.3h-6.3v4.2h5.7
				V78h-5.7v5.5h-1.6V70.9h7.9V72.3z M223.9,33.5h-1.5V23.4h-0.1l-4.5,7.9h-0.2l-4.5-8h-0.1v10.2h-1.5V20.9h1.9l4.2,7.7h0.1l4.2-7.7
				h1.8L223.9,33.5L223.9,33.5z M225.8,58.5h-1.6V45.9h1.6V58.5z M228.4,54.7h1.6c0.1,0.8,0.3,1.4,0.9,1.9c0.5,0.4,1.3,0.7,2.3,0.7
				c2.1,0,3.1-0.7,3.1-2.2c0-0.6-0.2-1-0.6-1.4c-0.4-0.3-0.9-0.5-1.7-0.7l-1.8-0.4c-1.1-0.2-1.9-0.6-2.5-1.2
				c-0.6-0.5-0.8-1.3-0.8-2.2c0-1.1,0.4-1.9,1.2-2.5c0.8-0.6,1.8-0.9,3.2-0.9c1.4,0,2.4,0.3,3.2,1c0.8,0.7,1.2,1.6,1.2,2.7h-1.6
				c0-0.7-0.3-1.3-0.8-1.7c-0.5-0.4-1.2-0.6-2.1-0.6c-1.8,0-2.7,0.7-2.7,2c0,0.9,0.7,1.6,2.1,1.9l1.7,0.4c2.4,0.5,3.6,1.7,3.6,3.6
				c0,1.1-0.4,2-1.3,2.6c-0.8,0.6-2,1-3.5,1c-1.5,0-2.7-0.4-3.5-1.1C228.9,56.9,228.4,55.9,228.4,54.7z M239,82.7
				c-0.8,0.6-2,1-3.5,1c-1.5,0-2.7-0.4-3.5-1.1c-0.8-0.7-1.3-1.7-1.3-2.9h1.6c0.1,0.8,0.3,1.4,0.9,1.9c0.5,0.4,1.3,0.7,2.3,0.7
				c2.1,0,3.1-0.7,3.1-2.2c0-0.6-0.2-1-0.6-1.4c-0.4-0.3-0.9-0.5-1.7-0.7l-1.8-0.4c-1.1-0.2-1.9-0.6-2.5-1.2
				c-0.6-0.5-0.8-1.3-0.8-2.2c0-1.1,0.4-1.9,1.2-2.5c0.8-0.6,1.8-0.9,3.2-0.9c1.4,0,2.4,0.3,3.2,1c0.8,0.7,1.2,1.6,1.2,2.7h-1.6
				c0-0.7-0.3-1.3-0.8-1.7c-0.5-0.4-1.2-0.6-2.1-0.6c-1.8,0-2.7,0.7-2.7,2c0,0.9,0.7,1.6,2.1,1.9l1.7,0.4c2.4,0.5,3.6,1.7,3.6,3.6
				C240.3,81.2,239.9,82.1,239,82.7z M241.3,56.9c-0.9-1.2-1.4-2.7-1.4-4.7c0-1.9,0.5-3.5,1.4-4.7c0.9-1.2,2.3-1.8,4.2-1.8
				s3.2,0.6,4.2,1.8c0.9,1.2,1.4,2.8,1.4,4.7c0,1.9-0.5,3.5-1.4,4.7c-0.9,1.2-2.3,1.8-4.2,1.8S242.2,58.1,241.3,56.9z M251.1,72.3
				h-6.5v3.9h6v1.4h-6v4.4h6.5v1.4H243V70.9h8.1V72.3z M252,31.8c-1.1,1.2-2.6,1.8-4.5,1.8s-3.5-0.6-4.5-1.8
				c-1.1-1.2-1.6-2.8-1.6-4.6s0.5-3.5,1.6-4.7s2.6-1.8,4.5-1.8s3.5,0.6,4.5,1.8s1.6,2.8,1.6,4.7S253.1,30.6,252,31.8z M263.3,83.5
				h-1.7l-3.3-5h-3.1v5h-1.6V70.9h5c1.2,0,2.2,0.4,2.9,1.1c0.7,0.7,1.1,1.6,1.1,2.7c0,0.9-0.2,1.7-0.7,2.3s-1.2,1.1-2,1.3l3.4,5
				L263.3,83.5L263.3,83.5z M262.2,56.7c-1,1.2-2.4,1.8-4.2,1.8h-4.2V45.9h4.2c1.8,0,3.2,0.6,4.1,1.7s1.5,2.7,1.5,4.6
				C263.6,54.1,263.1,55.6,262.2,56.7z M260.7,33.7c-2,0-3.5-0.6-4.5-1.8c-1.1-1.2-1.6-2.8-1.6-4.6s0.5-3.5,1.6-4.7s2.6-1.8,4.5-1.8
				s3.5,0.6,4.5,1.8s1.6,2.8,1.6,4.7s-0.5,3.4-1.6,4.6C264.2,33,262.7,33.7,260.7,33.7z M273.9,51.3v1.4h-6v4.4h6.5v1.4h-8.1V45.9
				h8.1v1.4h-6.5v3.9L273.9,51.3L273.9,51.3z M267.1,83.5h-1.6V70.9h1.6V83.5z M278.6,72.3h-6.5v3.9h6v1.4h-6v4.4h6.5v1.4h-8.1V70.9
				h8.1V72.3z M279.3,33.5H276l-4.6-5.2v5.2h-2.8V20.9h2.8v4.8l4.4-4.8h3.3v0.2l-5.4,5.9l5.6,6.4L279.3,33.5L279.3,33.5z
				 M288.5,82.7c-0.8,0.6-2,1-3.5,1c-1.5,0-2.7-0.4-3.5-1.1c-0.8-0.7-1.3-1.7-1.3-2.9h1.6c0.1,0.8,0.3,1.4,0.9,1.9
				c0.5,0.4,1.3,0.7,2.3,0.7c2.1,0,3.1-0.7,3.1-2.2c0-0.6-0.2-1-0.6-1.4c-0.4-0.3-0.9-0.5-1.7-0.7l-1.8-0.4
				c-1.1-0.2-1.9-0.6-2.5-1.2c-0.6-0.5-0.8-1.3-0.8-2.2c0-1.1,0.4-1.9,1.2-2.5c0.8-0.6,1.8-0.9,3.2-0.9c1.4,0,2.4,0.3,3.2,1
				c0.8,0.7,1.2,1.6,1.2,2.7h-1.6c0-0.7-0.3-1.3-0.8-1.7c-0.5-0.4-1.2-0.6-2.1-0.6c-1.8,0-2.7,0.7-2.7,2c0,0.9,0.7,1.6,2.1,1.9
				l1.7,0.4c2.4,0.5,3.6,1.7,3.6,3.6C289.8,81.2,289.4,82.1,288.5,82.7z M296.6,33.5h-3.3l-4.6-8.2h-0.1v8.2h-2.8V20.9h3.3l4.6,8.2
				h0.1v-8.2h2.8V33.5z M307.9,83.5h-1.7l-1.2-3.3h-5.5l-1.2,3.3h-1.6v-0.2l4.6-12.4h1.9l4.6,12.4L307.9,83.5L307.9,83.5z
				 M304.5,33.7c-1.9,0-3.4-0.6-4.5-1.8c-1.1-1.2-1.6-2.8-1.6-4.6c0-1.9,0.5-3.5,1.6-4.7c1.1-1.2,2.6-1.8,4.5-1.8
				c1.6,0,2.8,0.4,3.9,1.3c1,0.9,1.6,2,1.7,3.3h-2.9c-0.1-0.6-0.4-1.1-0.8-1.4c-0.4-0.4-1.1-0.6-1.9-0.6c-1,0-1.8,0.3-2.4,1
				c-0.6,0.7-0.8,1.6-0.8,2.9c0,1.3,0.3,2.2,0.8,2.9c0.6,0.7,1.4,1,2.4,1c1.5,0,2.4-0.6,2.7-1.9h-2.4v-2.5h5.3v1.4
				c0,1.7-0.5,3-1.6,4C307.5,33.2,306.1,33.7,304.5,33.7z M318.2,82.5c-0.7,0.6-1.7,1-3,1h-5.2V70.9h5.1c1.1,0,2,0.3,2.6,0.9
				c0.7,0.6,1,1.4,1,2.4c0,1.2-0.5,2.1-1.6,2.6v0.1c1.4,0.6,2.1,1.6,2.1,3C319.3,81,318.9,81.9,318.2,82.5z M319.8,33.5H317V20.9h9
				v2.5h-6.2v2.7h5.6v2.5h-5.6L319.8,33.5L319.8,33.5z M323.1,79.1c0.1,0.6,0.3,1.1,0.6,1.6c0.3,0.5,0.7,0.9,1.2,1.1
				c0.5,0.3,1.1,0.4,1.8,0.4c2,0,3.1-0.9,3.4-2.8h1.6c-0.2,1.3-0.7,2.4-1.5,3.1c-0.8,0.8-2,1.1-3.5,1.1c-1.8,0-3.2-0.6-4.1-1.7
				c-1-1.2-1.5-2.7-1.5-4.7c0-2,0.5-3.6,1.5-4.7c1-1.2,2.3-1.7,4.1-1.7c1.5,0,2.7,0.4,3.5,1.2c0.9,0.8,1.4,1.9,1.5,3.2h-1.6
				c-0.1-0.9-0.4-1.6-1-2.1c-0.6-0.5-1.4-0.8-2.4-0.8c-0.7,0-1.3,0.1-1.8,0.4c-0.5,0.3-0.9,0.6-1.2,1.1c-0.3,0.5-0.5,1-0.6,1.6
				c-0.1,0.6-0.2,1.2-0.2,1.9C322.9,77.9,323,78.5,323.1,79.1z M337.5,31.8c-1.1,1.2-2.6,1.8-4.5,1.8s-3.5-0.6-4.5-1.8
				c-1.1-1.2-1.6-2.8-1.6-4.6s0.5-3.5,1.6-4.7s2.6-1.8,4.5-1.8s3.5,0.6,4.5,1.8s1.6,2.8,1.6,4.7S338.5,30.6,337.5,31.8z M351.4,33.5
				h-3.3l-2.7-4.4h-1.8v4.4h-2.8V20.9h5.8c1.3,0,2.3,0.4,3.1,1.2c0.8,0.8,1.2,1.7,1.2,2.8c0,0.9-0.2,1.7-0.6,2.3
				c-0.4,0.7-1.1,1.2-1.8,1.5l3,4.6L351.4,33.5L351.4,33.5z"/>
			<path class="st4" d="M207.2,72.2c-0.7,0-1.4,0.1-1.9,0.4c-0.5,0.3-1,0.6-1.2,1.1s-0.5,1-0.6,1.6c-0.1,0.6-0.2,1.2-0.2,1.9
				c0,1.4,0.3,2.6,1,3.6c0.6,1,1.6,1.4,3,1.4s2.4-0.5,3-1.4c0.6-1,0.9-2.1,0.9-3.6c0-1.4-0.3-2.6-0.9-3.6
				C209.6,72.7,208.5,72.2,207.2,72.2z"/>
			<rect x="200.5" y="123.6" class="st4" width="19.7" height="19.7"/>
			<rect x="230.2" y="153.4" class="st4" width="9.9" height="9.9"/>
		</g>
	</g>
</g>
<g id="_x30_2phones">
	<g>
		<rect x="0.5" y="190.8" class="st0" width="140" height="245.5"/>
		<polyline class="st0" points="140.5,449.9 140.5,463.5 0.5,463.5 0.5,449.9 		"/>
		<polyline class="st0" points="0.5,177.1 0.5,163.5 140.5,163.5 140.5,177.1 		"/>
		<circle class="st0" cx="70.5" cy="449.9" r="6.8"/>
		<g>
			<circle class="st0" cx="53.5" cy="177.1" r="3.4"/>
			<line class="st0" x1="63.7" y1="177.1" x2="91" y2="177.1"/>
		</g>
	</g>
</g>
<g id="_x30_3ssids">
	<g>
		<rect x="0.5" y="0.5" class="st0" width="140" height="103"/>
		<g>
			<path class="st0" d="M63.4,145c3.9-3.9,10.2-3.9,14.1,0"/>
			<path class="st0" d="M56.4,137.9c7.8-7.8,20.5-7.8,28.3,0"/>
			<path class="st0" d="M49.3,130.8c11.7-11.7,30.7-11.7,42.4,0"/>
		</g>
		<g>
			<path class="st4" d="M22.7,32.6c-0.8-0.7-1.3-1.7-1.3-2.9H23c0.1,0.8,0.3,1.4,0.9,1.9c0.5,0.5,1.3,0.7,2.3,0.7
				c2.1,0,3.1-0.7,3.1-2.2c0-0.6-0.2-1-0.6-1.4c-0.4-0.3-0.9-0.5-1.7-0.7l-1.8-0.4c-1.1-0.2-1.9-0.6-2.5-1.2
				c-0.6-0.5-0.8-1.3-0.8-2.2c0-1.1,0.4-1.9,1.2-2.5c0.8-0.6,1.8-0.9,3.2-0.9c1.4,0,2.4,0.3,3.2,1c0.8,0.7,1.2,1.6,1.2,2.7h-1.6
				c0-0.7-0.3-1.3-0.8-1.7c-0.5-0.4-1.2-0.6-2.1-0.6c-1.8,0-2.7,0.7-2.7,2c0,0.9,0.7,1.6,2.1,1.9l1.7,0.4c2.4,0.5,3.6,1.7,3.6,3.6
				c0,1.1-0.4,2-1.3,2.6c-0.8,0.6-2,1-3.5,1C24.7,33.7,23.5,33.3,22.7,32.6z"/>
			<path class="st4" d="M34.2,32.6c-0.8-0.7-1.3-1.7-1.3-2.9h1.6c0.1,0.8,0.3,1.4,0.9,1.9c0.5,0.5,1.3,0.7,2.3,0.7
				c2.1,0,3.1-0.7,3.1-2.2c0-0.6-0.2-1-0.6-1.4c-0.4-0.3-0.9-0.5-1.7-0.7l-1.8-0.4c-1.1-0.2-1.9-0.6-2.5-1.2
				c-0.6-0.5-0.8-1.3-0.8-2.2c0-1.1,0.4-1.9,1.2-2.5c0.8-0.6,1.8-0.9,3.2-0.9c1.4,0,2.4,0.3,3.2,1c0.8,0.7,1.2,1.6,1.2,2.7h-1.6
				c0-0.7-0.3-1.3-0.8-1.7c-0.5-0.4-1.2-0.6-2.1-0.6c-1.8,0-2.7,0.7-2.7,2c0,0.9,0.7,1.6,2.1,1.9l1.7,0.4c2.4,0.5,3.6,1.7,3.6,3.6
				c0,1.1-0.4,2-1.3,2.6c-0.8,0.6-2,1-3.5,1C36.1,33.7,35,33.3,34.2,32.6z"/>
			<path class="st4" d="M46.7,20.9v12.6h-1.6V20.9H46.7z"/>
			<path class="st4" d="M54.2,20.9c1.8,0,3.2,0.6,4.1,1.7s1.5,2.7,1.5,4.6c0,1.9-0.5,3.4-1.4,4.5c-1,1.2-2.4,1.8-4.2,1.8H50V20.9
				H54.2z M54.1,32.1c1.4,0,2.4-0.5,3.1-1.4c0.7-0.9,1-2.1,1-3.5c0-1.4-0.3-2.6-1-3.5s-1.7-1.4-3.1-1.4h-2.4v9.7L54.1,32.1
				L54.1,32.1z"/>
			<path class="st4" d="M23.8,54.2c0-0.7,0.1-1.3,0.4-1.7c0.3-0.4,0.7-0.8,1.2-1.3l0.6-0.5c0.3-0.3,0.6-0.5,0.7-0.7
				c0.1-0.2,0.2-0.4,0.2-0.7c0-0.3-0.1-0.6-0.3-0.9c-0.2-0.2-0.6-0.4-1.1-0.4c-1.1,0-1.6,0.5-1.6,1.6H21c0-1.2,0.4-2.2,1.1-2.9
				c0.7-0.7,1.8-1.1,3.3-1.1c1.3,0,2.4,0.3,3.1,1c0.8,0.7,1.2,1.5,1.2,2.5c0,1.1-0.4,2-1.4,2.7l-0.8,0.6c-0.4,0.3-0.7,0.6-0.9,0.8
				c-0.2,0.2-0.3,0.5-0.3,0.8v0.3h-2.7L23.8,54.2L23.8,54.2z M26.6,55.7v2.8h-3v-2.8H26.6z"/>
			<path class="st4" d="M41.7,58.5h-3.1l-0.7-2.4h-4.7l-0.7,2.4h-3v-0.2l4.3-12.4h3.6l4.3,12.4L41.7,58.5L41.7,58.5z M35.5,48.7
				L35.5,48.7l-1.6,4.9H37L35.5,48.7z"/>
			<path class="st4" d="M48.9,45.9c1.1,0,2.1,0.3,2.8,0.9c0.7,0.6,1,1.4,1,2.4c0,1.1-0.4,2-1.2,2.6v0.1c1.1,0.5,1.7,1.5,1.7,3
				c0,1.1-0.4,2-1.1,2.7c-0.7,0.6-1.7,1-3,1h-6.3V45.9H48.9z M48.5,50.8c0.9,0,1.3-0.4,1.3-1.2s-0.4-1.2-1.3-1.2h-2.8v2.4L48.5,50.8
				L48.5,50.8z M48.7,56c1.1,0,1.6-0.5,1.6-1.4c0-0.4-0.1-0.7-0.4-1s-0.7-0.4-1.2-0.4h-3V56L48.7,56L48.7,56z"/>
			<path class="st4" d="M55.8,56.8c-1.1-1.2-1.6-2.8-1.6-4.6c0-1.9,0.5-3.5,1.6-4.7c1.1-1.2,2.6-1.8,4.5-1.8c1.6,0,2.9,0.5,3.9,1.4
				c1,1,1.6,2.1,1.7,3.5H63c-0.1-0.7-0.3-1.2-0.8-1.7s-1.1-0.7-1.9-0.7c-1,0-1.8,0.3-2.4,1c-0.6,0.7-0.8,1.6-0.8,2.9
				c0,1.3,0.3,2.2,0.8,2.9c0.6,0.7,1.4,1,2.4,1c0.8,0,1.4-0.2,1.9-0.6s0.7-1,0.8-1.6h2.9c-0.1,1.4-0.7,2.5-1.7,3.4
				c-1,0.9-2.3,1.4-3.9,1.4C58.3,58.7,56.8,58.1,55.8,56.8z"/>
			<path class="st4" d="M73.2,52v2.5h-5.5V52H73.2z"/>
			<path class="st4" d="M84.7,45.9v2.5h-6.2v2.3h5.6v2.5h-5.6V56h6.2v2.5h-9V45.9H84.7z"/>
			<path class="st4" d="M87.3,56.9c-0.8-1.2-1.2-2.8-1.2-4.7c0-2,0.4-3.5,1.2-4.7c0.8-1.2,2.1-1.8,3.7-1.8c1.7,0,2.9,0.6,3.7,1.8
				c0.8,1.2,1.2,2.8,1.2,4.7c0,2-0.4,3.6-1.2,4.7c-0.8,1.2-2.1,1.8-3.7,1.8S88.1,58.1,87.3,56.9z M92.6,55.2
				c0.3-0.6,0.5-1.7,0.5-3.1c0-1.4-0.2-2.4-0.5-3.1s-0.9-1-1.6-1c-0.8,0-1.3,0.3-1.6,1s-0.5,1.7-0.5,3.1c0,1.4,0.2,2.4,0.5,3.1
				c0.3,0.6,0.8,1,1.6,1C91.7,56.2,92.3,55.9,92.6,55.2z"/>
			<path class="st4" d="M100.1,48.7l-2.9,2.2h-0.2v-2.6l3.1-2.3h2.8v12.6h-2.8L100.1,48.7L100.1,48.7z"/>
		</g>
	</g>
</g>
<g id="file">
	<polygon class="st0" points="120.3,247.1 120.3,379.9 20.7,379.9 20.7,277.1 50.7,247.1 	"/>
	<polygon class="st3" points="85.5,313.5 59.5,298.5 59.5,328.5 	"/>
	<polyline class="st0" points="50.7,257.1 50.7,277.1 30.7,277.1 	"/>
</g>
</svg>
