<svg id="Layer_1" xmlns="http://www.w3.org/2000/svg" viewBox="0 0 742 240"><style>.st0{fill:none}.st0,.st1{stroke:#2e343a;stroke-miterlimit:10}.st1,.st2{fill:#2e343a}</style><g id="plane"><path class="st0" d="M741 129.327l-370 86.154L1 129.327l370-86.153zM75 112.097l370 86.153M149 94.866l370 86.154M223 77.635l370 86.154M297 60.404l370 86.154M445 60.404L75 146.558M519 77.635l-370 86.154M593 94.866L223 181.02M667 112.097L297 198.25"/><path class="st1" d="M371 215.481L43.946 139.327 1 149.327l370 86.154 370-86.154-42.946-10z"/></g><g id="nodes"><circle class="st2" cx="223" cy="129.327" r="2.154"/><path class="st0" d="M223 129.327v17.231"/><circle class="st2" cx="371" cy="94.866" r="2.154"/><path class="st0" d="M371 94.866v17.231"/><circle class="st2" cx="445" cy="181.02" r="2.154"/><path class="st0" d="M445 181.02v17.23"/><circle class="st2" cx="667" cy="129.327" r="2.154"/><path class="st0" d="M667 129.327v17.231"/><circle class="st2" cx="223" cy="163.789" r="2.154"/><path class="st0" d="M223 163.789v17.231"/><circle class="st2" cx="445" cy="146.558" r="2.154"/><path class="st0" d="M445 146.558v17.231"/><circle class="st2" cx="445" cy="77.635" r="2.154"/><path class="st0" d="M445 77.635v17.231"/><g><circle class="st2" cx="297" cy="112.097" r="2.154"/><path class="st0" d="M297 112.097v17.23"/></g><g><circle class="st2" cx="149" cy="112.097" r="2.154"/><path class="st0" d="M149 112.097v17.23"/></g><g><circle class="st2" cx="75" cy="94.866" r="2.154"/><path class="st0" d="M75 94.866v17.231"/></g><g><circle class="st2" cx="518.822" cy="94.824" r="2.154"/><path class="st0" d="M518.822 94.824v17.231"/></g><g><circle class="st2" cx="593" cy="112.097" r="2.154"/><path class="st0" d="M593 112.097v17.23"/></g><g><circle class="st2" cx="593" cy="77.635" r="2.154"/><path class="st0" d="M593 77.635v17.231"/></g></g><g id="hops2"><path class="st0" d="M518.822 88.404c0-23.196 16.565-45.959 37-50.843s37 9.961 37 33.157"/><path class="st0" d="M592.822 106.091c0-23.196-16.565-45.959-37-50.843s-37 9.961-37 33.157M223 123.777c0-23.196-16.565-45.959-37-50.843s-37 9.961-37 33.157"/></g><g id="hops1"><path class="st0" d="M371 88.404c0-23.196 16.565-45.959 37-50.843s37 9.961 37 33.157M297 106.091c0-23.196 16.565-45.959 37-50.843s37 9.961 37 33.157"/><path class="st0" d="M223 123.777c0-46.392 33.131-91.918 74-101.686s74 19.922 74 66.314M445 140.102c0-23.196-16.565-53.573-37-67.849s-37-7.045-37 16.151"/><path class="st0" d="M371 88.404c0-46.336 33.091-83.899 73.911-83.899s73.911 37.563 73.911 83.899"/></g></svg>