<svg id="Layer_1" xmlns="http://www.w3.org/2000/svg" viewBox="0 0 742 240"><style>.st0{fill:none;stroke:#2e343a;stroke-miterlimit:10}.st1{stroke-width:.5}.st1,.st2,.st3,.st4,.st5{fill:#2e343a;stroke:#2e343a;stroke-miterlimit:10}.st3,.st4,.st5{stroke-width:.75}.st4,.st5{stroke-width:.625}.st5{stroke-width:.875}</style><g id="memory"><path class="st0" d="M321 210l100-90M321 201l90-81M321 192l80-72M321 183l70-63M321 174l60-54M321 165l50-45M321 156l40-36M321 147l30-27M321 138l20-18M321 129l10-9M421 129l-90 81M421 138l-80 72M421 147l-70 63M421 156l-60 54M421 165l-50 45M421 174l-40 36M421 183l-30 27M421 192l-20 18M421 201l-10 9"/><g><path class="st0" d="M481 210l100-90M481 201l90-81M481 192l80-72M481 183l70-63M481 174l60-54M481 165l50-45M481 156l40-36M481 147l30-27M481 138l20-18M481 129l10-9M581 129l-90 81M581 138l-80 72M581 147l-70 63M581 156l-60 54M581 165l-50 45M581 174l-40 36M581 183l-30 27M581 192l-20 18M581 201l-10 9"/></g><g><path class="st0" d="M1 210l100-90M1 201l90-81M1 192l80-72M1 183l70-63M1 174l60-54M1 165l50-45M1 156l40-36M1 147l30-27M1 138l20-18M1 129l10-9M101 129l-90 81M101 138l-80 72M101 147l-70 63M101 156l-60 54M101 165l-50 45M101 174l-40 36M101 183l-30 27M101 192l-20 18M101 201l-10 9"/></g><g><path class="st0" d="M161 210l100-90M161 201l90-81M161 192l80-72M161 183l70-63M161 174l60-54M161 165l50-45M161 156l40-36M161 147l30-27M161 138l20-18M161 129l10-9M261 129l-90 81M261 138l-80 72M261 147l-70 63M261 156l-60 54M261 165l-50 45M261 174l-40 36M261 183l-30 27M261 192l-20 18M261 201l-10 9"/></g><g><path class="st0" d="M641 210l100-90M641 201l90-81M641 192l80-72M641 183l70-63M641 174l60-54M641 165l50-45M641 156l40-36M641 147l30-27M641 138l20-18M641 129l10-9M741 129l-90 81M741 138l-80 72M741 147l-70 63M741 156l-60 54M741 165l-50 45M741 174l-40 36M741 183l-30 27M741 192l-20 18M741 201l-10 9"/></g></g><g id="phones"><path class="st0" d="M641 30h100v180H641zM741 220v10H641v-10M641 20V10h100v10"/><circle class="st0" cx="691" cy="220" r="5"/><circle class="st0" cx="678.5" cy="20" r="2.5"/><path class="st0" d="M686 20h20"/><g><path class="st0" d="M481 30h100v180H481zM581 220v10H481v-10M481 20V10h100v10"/><circle class="st0" cx="531" cy="220" r="5"/><circle class="st0" cx="518.5" cy="20" r="2.5"/><path class="st0" d="M526 20h20"/></g><g><path class="st0" d="M321 30h100v180H321zM421 220v10H321v-10M321 20V10h100v10"/><circle class="st0" cx="371" cy="220" r="5"/><circle class="st0" cx="358.5" cy="20" r="2.5"/><path class="st0" d="M366 20h20"/></g><g><path class="st0" d="M161 30h100v180H161zM261 220v10H161v-10M161 20V10h100v10"/><circle class="st0" cx="211" cy="220" r="5"/><circle class="st0" cx="198.5" cy="20" r="2.5"/><path class="st0" d="M206 20h20"/></g><g><path class="st0" d="M1 30h100v180H1zM101 220v10H1v-10M1 20V10h100v10"/><circle class="st0" cx="51" cy="220" r="5"/><circle class="st0" cx="38.5" cy="20" r="2.5"/><path class="st0" d="M46 20h20"/></g></g><g id="_x31_gb"><path class="st1" d="M641 115h100v5H641z"/><path class="st2" d="M1 100h100v20H1z"/><path class="st3" d="M321 107.5h100V120H321z"/><path class="st4" d="M481 111.25h100V120H481z"/><path class="st5" d="M161 103.75h100V120H161z"/></g></svg>